<svg width="633" height="660" viewBox="0 0 633 660" fill="none" xmlns="http://www.w3.org/2000/svg">
<path d="M615.596 -119.289C641.343 -140.297 680.132 -126.858 686.903 -94.5849L717.992 53.604C722.444 74.8212 740.243 90.6182 761.958 92.6228L915.154 106.765C948.446 109.838 966.182 147.131 947.558 174.899L864.271 299.079C851.91 317.508 853.206 341.756 867.449 358.601L964.421 473.282C986.052 498.863 971.995 538.33 938.896 544.95L790.51 574.626C768.714 578.985 752.328 597.108 750.288 619.112L736.539 767.384C733.465 800.539 695.978 818.7 668.051 800.564L539.541 717.108C521.326 705.279 497.42 706.627 480.493 720.438L362.27 816.897C336.523 837.904 297.734 824.466 290.963 792.193L259.873 644.004C255.422 622.787 237.622 606.99 215.908 604.985L62.7115 590.843C29.4194 587.77 11.6833 550.477 30.3075 522.709L113.595 398.529C125.955 380.1 124.66 355.852 110.416 339.006L13.4441 224.326C-8.18655 198.745 5.87017 159.278 38.9693 152.658L187.355 122.982C209.151 118.623 225.537 100.5 227.578 78.4961L241.326 -69.7756C244.401 -102.931 281.887 -121.092 309.814 -102.956L438.324 -19.5004C456.539 -7.67138 480.445 -9.01948 497.372 -22.8302L615.596 -119.289Z" fill="#EF4985" stroke="black" stroke-width="5.6626"/>
</svg>
