<svg width="240" height="236" viewBox="0 0 240 236" fill="none" xmlns="http://www.w3.org/2000/svg">
<path d="M150.874 4.14311C157.15 -0.977401 166.605 2.29824 168.255 10.1648L175.833 46.2859C176.918 51.4576 181.257 55.3081 186.55 55.7967L223.891 59.2439C232.006 59.993 236.329 69.0831 231.79 75.8516L211.488 106.12C208.476 110.612 208.791 116.523 212.263 120.629L235.9 148.582C241.173 154.818 237.746 164.438 229.678 166.051L193.509 173.285C188.197 174.348 184.202 178.765 183.705 184.128L180.354 220.27C179.605 228.351 170.467 232.778 163.66 228.357L132.336 208.015C127.896 205.132 122.069 205.46 117.943 208.827L89.1257 232.339C82.8498 237.459 73.395 234.183 71.7446 226.317L64.1665 190.196C63.0815 185.024 58.7428 181.174 53.45 180.685L16.1084 177.238C7.99339 176.489 3.67024 167.399 8.20988 160.63L28.5112 130.361C31.524 125.869 31.2083 119.959 27.7363 115.853L4.09943 87.8993C-1.17304 81.664 2.25328 72.0438 10.3212 70.4303L46.4903 63.1968C51.803 62.1342 55.7971 57.7168 56.2945 52.3533L59.6457 16.2121C60.3951 8.13043 69.5324 3.70374 76.3397 8.12445L107.664 28.4667C112.104 31.35 117.931 31.0214 122.057 27.655L150.874 4.14311Z" fill="#EF4985" stroke="black" stroke-width="1.38026"/>
</svg>
