<svg width="129" height="129" viewBox="0 0 129 129" fill="none" xmlns="http://www.w3.org/2000/svg">
<path d="M17.7233 85.6441C14.1538 85.5029 11.2335 84.5304 8.95 82.7243C8.51421 82.3792 7.47577 81.3447 7.12738 80.9083C6.2014 79.7491 5.57186 78.6208 5.15196 77.369C3.85987 73.5157 4.52486 68.4593 7.05404 62.91C9.21954 58.1591 12.561 53.4471 18.3907 46.9211C19.2494 45.9608 21.8067 43.1523 21.8232 43.1523C21.8293 43.1523 21.69 43.3927 21.5146 43.6854C19.9988 46.2133 18.7018 49.1909 17.9952 51.7687C16.8602 55.905 16.9971 59.4547 18.3962 62.2071C19.3613 64.1034 21.0158 65.7458 22.8763 66.6538C26.1335 68.2427 30.9021 68.3741 36.7257 67.0384C37.1266 66.9459 56.9945 61.6947 80.8768 55.3689C104.759 49.0424 124.302 43.8704 124.305 43.8747C124.312 43.8802 68.8201 67.5222 40.0133 79.7874C35.4513 81.7293 34.2313 82.2198 32.0866 82.9695C26.6041 84.8864 21.693 85.8011 17.7233 85.6441Z" fill="white"/>
</svg>
