<svg width="130" height="129" viewBox="0 0 130 129" fill="none" xmlns="http://www.w3.org/2000/svg">
<path fill-rule="evenodd" clip-rule="evenodd" d="M58.4441 67.3436H53.6953V61.4727H58.4441V67.3436Z" fill="white"/>
<path fill-rule="evenodd" clip-rule="evenodd" d="M53.6953 61.4727H58.4441V62.7916H53.6953V61.4727ZM53.6953 66.0235H58.4441V67.3436H53.6953V66.0235Z" fill="#4F4D67"/>
<path fill-rule="evenodd" clip-rule="evenodd" d="M58.4443 67.3436H63.1931V61.4727H58.4443V67.3436Z" fill="#CA3432"/>
<path fill-rule="evenodd" clip-rule="evenodd" d="M63.1931 61.4727H58.4443V62.7916H63.1931V61.4727ZM63.1931 66.0235H58.4443V67.3436H63.1931V66.0235Z" fill="#4F4D67"/>
<path fill-rule="evenodd" clip-rule="evenodd" d="M9.29232 67.3793V62.1379H7.33594V61.4353H12.0371V62.1379H10.0807V67.3793H9.29232ZM17.1927 62.587C17.3819 62.4014 17.606 62.2551 17.8521 62.1566C18.0982 62.0582 18.3613 62.0096 18.6264 62.0135C19.0175 62.0135 19.3694 62.1131 19.6839 62.3117C19.9984 62.5103 20.2369 62.7898 20.3998 63.1508C20.5634 63.5118 20.6443 63.9337 20.6443 64.4178C20.6443 65.182 20.4536 65.773 20.0721 66.1889C19.6906 66.6048 19.204 66.813 18.6137 66.813C18.0342 66.813 17.5519 66.6066 17.168 66.1949C16.7835 65.7826 16.5915 65.2195 16.5915 64.5029C16.5915 63.6077 16.7919 62.9691 17.1927 62.587ZM16.1213 65.9704C16.3394 66.4288 16.6869 66.8134 17.1209 67.0768C17.5603 67.3467 18.0595 67.4819 18.6179 67.4819C19.1216 67.485 19.6177 67.3588 20.0588 67.1155C20.5037 66.8716 20.8483 66.5112 21.091 66.0356C21.3337 65.5599 21.455 65.0203 21.455 64.4178C21.455 63.8232 21.3397 63.2914 21.1091 62.8224C20.8897 62.3654 20.5398 61.9837 20.1035 61.7256C19.664 61.4636 19.1702 61.3326 18.6221 61.3326C17.7855 61.3326 17.1028 61.6115 16.574 62.1705C16.0452 62.7282 15.7814 63.5003 15.7814 64.4866C15.7814 65.0088 15.8943 65.5026 16.1213 65.9704ZM25.7734 67.3793V61.4346H26.9505L28.3588 65.642C28.4886 66.0338 28.5827 66.3271 28.6425 66.5215C28.7113 66.3054 28.817 65.9879 28.9612 65.569L30.3967 61.4346H31.4464V67.3793H30.69V62.4077L28.9534 67.3793H28.2447L26.5292 62.3214V67.3793H25.7734ZM36.0069 67.3793V61.4346H37.1846L38.5923 65.642C38.722 66.0338 38.8168 66.3271 38.8766 66.5215C38.9448 66.3054 39.051 65.9879 39.1959 65.569L40.6313 61.4346H41.6811V67.3793H40.9247V62.4077L39.188 67.3793H38.4788L36.7632 62.3214V67.3793H36.0069ZM47.9378 67.3793V64.8609L45.647 61.4346H46.5935L47.7651 63.2353C47.9806 63.5612 48.1842 63.8948 48.3754 64.2355C48.5583 63.9246 48.7756 63.5739 49.0273 63.1834L50.1785 61.4346H51.0942L48.7273 64.8609V67.3793H47.9378ZM67.0531 67.3793V61.4353H67.8415V63.8782H70.9212V61.4353H71.7114V67.3793H70.9212V64.5808H67.8415V67.3793H67.0531ZM75.6441 67.3793V61.4353H76.433V67.3793H75.6441ZM80.2679 67.3793V61.4353H81.0569V66.6772H83.9857V67.3793H80.2679ZM87.4385 67.3793V61.4353H91.4588V62.1379H88.2275V63.9754H91.0266V64.6774H88.2275V67.3793H87.4385ZM95.1065 67.3793V61.4353H95.8955V67.3793H95.1065ZM102.539 65.0504V64.3484H105.057V66.5541C104.698 66.8472 104.295 67.0817 103.863 67.2489C103.459 67.4032 103.031 67.4822 102.599 67.4819C102.016 67.4819 101.487 67.3569 101.011 67.1076C100.545 66.8687 100.167 66.4885 99.9308 66.0217C99.6894 65.549 99.5662 65.0196 99.5662 64.4353C99.5662 63.857 99.6875 63.3168 99.9296 62.8146C100.172 62.3123 100.519 61.9405 100.972 61.6966C101.425 61.4534 101.948 61.332 102.539 61.332C102.968 61.332 103.356 61.4014 103.703 61.5409C104.051 61.6797 104.322 61.8741 104.52 62.1228C104.717 62.3715 104.867 62.6962 104.969 63.0959L104.262 63.2902C104.173 62.9872 104.063 62.7488 103.929 62.5749C103.797 62.4017 103.609 62.2628 103.363 62.159C103.104 62.0522 102.826 61.9991 102.545 62.0027C102.185 62.0027 101.875 62.0576 101.614 62.1669C101.351 62.2767 101.14 62.421 100.981 62.6003C100.822 62.7737 100.695 62.9733 100.604 63.19C100.451 63.5711 100.374 63.9787 100.378 64.3894C100.378 64.9206 100.469 65.3649 100.652 65.7229C100.834 66.0808 101.098 66.3458 101.447 66.5197C101.791 66.6922 102.172 66.7813 102.557 66.7798C102.896 66.7798 103.228 66.7141 103.553 66.5825C103.877 66.4509 104.122 66.3114 104.29 66.1611V65.0504H102.539ZM108.74 67.3793V61.4353H113.019V62.1379H109.529V63.9536H112.793V64.6563H109.529V66.6772H113.161V67.3793H108.74ZM117.533 62.095H119.415C119.856 62.095 120.179 62.185 120.383 62.3667C120.587 62.5478 120.69 62.7796 120.69 63.0602C120.69 63.2522 120.637 63.4297 120.532 63.5933C120.422 63.7605 120.259 63.8863 120.069 63.9506C119.865 64.0249 119.585 64.0623 119.225 64.0623H117.533V62.095ZM117.533 67.3793V64.7426H118.446C118.649 64.7426 118.795 64.7516 118.884 64.7709C119.006 64.8005 119.126 64.853 119.244 64.9291C119.361 65.0046 119.495 65.1374 119.643 65.3263C119.792 65.5152 119.981 65.7875 120.211 66.1436L120.997 67.3793H121.98L120.951 65.7627C120.768 65.4731 120.549 65.2077 120.3 64.9732C120.191 64.8754 120.034 64.777 119.826 64.6768C120.397 64.5989 120.818 64.4148 121.091 64.1251C121.365 63.8353 121.501 63.4798 121.501 63.0578C121.501 62.7301 121.418 62.4312 121.254 62.1608C121.104 61.9032 120.87 61.7038 120.593 61.5946C120.317 61.4884 119.914 61.4346 119.384 61.4346H116.746V67.3793H117.533Z" fill="white"/>
</svg>
