<svg width="130" height="129" viewBox="0 0 130 129" fill="none" xmlns="http://www.w3.org/2000/svg">
<path d="M69.2575 37.5787C68.9028 37.6334 68.5618 38.9395 67.8762 39.6199C67.3749 40.111 66.7491 40.0803 66.4167 40.6874C66.2905 40.9142 66.3313 41.3013 66.1881 41.673C65.9085 42.4165 64.9229 42.4829 64.9229 43.2929C64.9195 44.1677 65.7448 44.3348 66.4593 44.9555C67.0169 45.4551 67.0715 45.7995 67.7466 46.0416C68.3231 46.2378 69.1808 45.5966 69.9532 45.8268C70.5876 46.0162 71.1945 46.1525 71.3379 46.8039C71.4639 47.4041 71.3293 48.3351 70.5603 48.2277C70.301 48.1987 69.1773 47.8202 67.7962 47.9668C66.1301 48.1561 64.2288 48.6999 64.043 50.5571C63.9407 51.5955 65.2246 52.8198 66.4644 52.5709C67.322 52.402 66.9163 51.391 67.3835 50.8998C67.9956 50.2707 71.4639 53.0961 74.6885 53.0961C76.0459 53.0961 77.0553 52.7534 78.0581 51.703C78.1517 51.6228 78.266 51.4506 78.4109 51.4403C78.5474 51.4506 78.7861 51.5852 78.8646 51.6432C81.4616 53.7303 83.4242 57.9167 92.9682 57.9661C94.3102 57.9729 95.8397 58.6141 97.0879 59.7531C98.2014 60.7831 98.8528 62.3842 99.4854 64.0092C100.44 66.4477 102.152 68.8197 104.748 71.4593C104.889 71.6008 107.026 73.2617 107.196 73.3862C107.224 73.4032 107.38 73.7783 107.326 73.988C107.263 75.5705 107.033 80.1727 110.463 80.3808C111.302 80.4234 111.082 79.8334 111.082 79.4276C111.081 78.6261 110.934 77.8298 111.357 77.0096C111.935 75.8809 110.131 75.3607 110.184 72.9206C110.221 71.1012 108.693 71.4114 107.918 70.0252C107.471 69.222 107.073 68.7958 107.103 67.8134C107.276 62.2854 105.926 58.6533 105.252 57.7615C104.727 57.0879 104.292 56.8202 104.773 56.5081C107.636 54.6171 108.286 52.8573 108.286 52.8573C109.809 49.2782 111.178 46.0092 113.066 44.5702C113.446 44.2733 114.421 43.5453 115.02 43.2588C116.781 42.4283 117.709 41.9254 118.22 41.4274C119.03 40.6379 119.67 38.9924 118.894 37.9949C117.929 36.7637 116.259 37.7408 115.523 38.1772C110.259 41.3013 109.483 46.8123 107.66 49.9773C106.206 52.506 103.84 54.363 101.726 54.5148C100.14 54.6324 98.4317 54.3118 96.7299 53.565C92.5914 51.7507 90.3268 49.4078 89.7931 48.9935C88.6813 48.1357 80.0496 39.6625 73.0566 39.3164C73.0566 39.3164 72.1888 37.5788 71.9704 37.5498C71.4588 37.485 70.9354 38.5882 70.5603 38.7163C70.2073 38.8338 69.6139 37.5208 69.2575 37.5788M38.472 88.1497C37.8137 88.1343 37.2545 87.5938 37.2545 86.9254L37.2562 65.1125H30.0671V89.1574C30.0671 90.3357 31.0219 91.2975 32.1934 91.2975H44.759C45.9389 91.2975 46.882 90.3357 46.882 89.1574V65.1125H39.6997L39.6929 86.9254C39.6929 87.5938 39.1335 88.1343 38.472 88.1497ZM62.5424 65.1125H51.6616C50.3742 65.1125 49.3255 66.1595 49.3255 67.4606V91.2974H56.5212V69.4319C56.5264 68.7618 57.0686 68.2314 57.7371 68.2314C58.409 68.2314 58.9478 68.7498 58.9631 69.4132V91.2975H66.13V69.4129C66.1386 68.7497 66.6774 68.2313 67.3475 68.2313C68.0126 68.2313 68.5617 68.7617 68.5668 69.4318V91.2975H75.7626V67.4606C75.7626 66.1595 74.7122 65.1125 73.4249 65.1125H62.5424ZM20.4463 69.4778C20.4515 68.7497 19.8581 68.2313 19.2289 68.2313H18.0079V81.4755H19.2289C19.8632 81.4755 20.4516 80.9707 20.4463 80.2462V69.4778ZM25.2704 84.7171H18.0079V91.2975H10.8223V65.1125H25.3165C26.614 65.1125 27.6269 66.1664 27.6269 67.4709V82.3589C27.6269 83.6651 26.5749 84.7171 25.2704 84.7171ZM100.422 85.4418C98.9773 85.4418 97.7648 86.69 97.7648 88.2026C97.7648 89.7202 98.9773 90.9581 100.468 90.9581C101.946 90.9581 103.143 89.7202 103.143 88.2026C103.143 86.6866 101.946 85.4418 100.467 85.4418H100.422ZM103.658 88.194C103.658 89.9724 102.232 91.4186 100.468 91.4186C98.6839 91.4186 97.2516 89.9828 97.2516 88.194C97.2516 86.4393 98.6839 84.9729 100.415 84.9729C102.232 84.9729 103.658 86.3951 103.658 88.194Z" fill="white"/>
<path d="M100.135 87.9891C100.635 87.9891 100.897 87.8118 100.897 87.4572C100.897 87.1417 100.643 86.9797 100.157 86.9797H100.014V87.9891H100.135ZM101.975 90.0592H101.117L100.014 88.5911V90.0592H99.3133V86.3471H100.05C101.051 86.3471 101.583 86.7256 101.583 87.4486C101.583 87.9311 101.269 88.3593 100.831 88.4871L100.78 88.5059L101.975 90.0592ZM87.8272 81.4804V69.4231C87.8101 68.7563 87.273 68.2448 86.6029 68.2448C85.9395 68.2448 85.3904 68.7767 85.3854 69.4418V81.4804H87.8272ZM87.8272 91.2973V84.7237H85.3854V91.2973H78.2031V67.4604C78.2031 66.1593 79.2517 65.1123 80.5392 65.1123H92.6733C93.9642 65.1123 95.0129 66.1593 95.0129 67.4604V91.2972L87.8272 91.2973Z" fill="white"/>
</svg>
