<svg width="130" height="129" viewBox="0 0 130 129" fill="none" xmlns="http://www.w3.org/2000/svg">
<path d="M83.729 77.0577L59.0967 34.0432L76.7926 23.8301L107.423 77.0577H83.729Z" fill="white"/>
<path d="M18.1191 71.0311L35.8151 60.749L45.1781 77.0577H21.553L18.1191 71.0311Z" fill="white"/>
<path d="M52.8477 104.499H57.884V84.0273H52.8477V104.499Z" fill="white"/>
<path d="M115.962 104.983C110.33 104.983 106.942 102.061 106.759 97.9438H112.07C112.07 99.2319 112.871 101.118 116.305 101.187C118.594 101.187 119.67 99.83 119.67 98.8179C119.533 97.2077 117.518 97.0697 115.366 96.7247C113.215 96.3796 111.383 95.9886 110.055 95.2985C108.361 94.4244 107.217 92.5382 107.217 90.376C107.217 86.7186 110.376 83.8203 115.641 83.8203C120.746 83.8203 123.974 86.5116 124.317 90.514H119.189C119.144 89.4329 118.938 87.7307 115.916 87.7307C113.878 87.7307 112.528 88.1447 112.413 89.5709C112.413 91.6641 116.648 91.5261 119.945 92.4002C123.104 93.2053 125.119 95.1835 125.119 97.9438C125.119 103.027 121.021 104.983 115.962 104.983Z" fill="white"/>
<path d="M38.8594 52.7669L56.5553 42.5078L76.4031 77.0574H57.8831V82.1179H52.8467V77.0344L38.8594 52.7669Z" fill="white"/>
<path fill-rule="evenodd" clip-rule="evenodd" d="M39.3175 104.983C33.457 104.983 28.6953 100.175 28.6953 94.3554C28.6953 88.4668 33.457 83.8203 39.3175 83.8203C41.538 83.8203 43.5526 84.4184 45.3153 85.6375V77.0576H50.3516V104.499H45.3153V103.142C43.5526 104.292 41.538 104.983 39.3175 104.983ZM33.5256 94.3554C33.5256 97.5298 36.227 100.175 39.4548 100.175C42.614 100.175 45.3153 97.5298 45.3153 94.3554C45.3153 91.1811 42.614 88.4668 39.4548 88.4668C36.227 88.4668 33.5256 91.1811 33.5256 94.3554Z" fill="white"/>
<path fill-rule="evenodd" clip-rule="evenodd" d="M76.5409 77.0576H81.5086V104.499H76.5409V103.142C74.8468 104.292 72.7636 104.983 70.4744 104.983C64.6825 104.983 59.9209 100.175 59.9209 94.3554C59.9209 88.4668 64.6825 83.8203 70.4744 83.8203C72.7636 83.8203 74.7781 84.4184 76.5409 85.6375V77.0576ZM64.8199 94.3554C64.8199 97.5298 67.5212 100.175 70.6117 100.175C73.8396 100.175 76.5409 97.5298 76.5409 94.3554C76.5409 91.1811 73.8396 88.4668 70.6117 88.4668C67.5212 88.4668 64.8199 91.1811 64.8199 94.3554Z" fill="white"/>
<path fill-rule="evenodd" clip-rule="evenodd" d="M93.7566 104.983C87.9877 104.983 83.2031 100.175 83.2031 94.3554C83.2031 88.4668 87.9877 83.8203 93.7566 83.8203C95.9772 83.8203 98.0604 84.4184 99.7544 85.6375V84.0043H104.791V104.499H99.7544V103.142C98.0604 104.292 96.0458 104.983 93.7566 104.983ZM88.1021 94.3554C88.1021 97.5297 90.8034 100.175 93.9626 100.175C97.1218 100.175 99.7544 97.5297 99.7544 94.3554C99.7544 91.1811 97.1218 88.4668 93.9626 88.4668C90.8034 88.4668 88.1021 91.1811 88.1021 94.3554Z" fill="white"/>
<path fill-rule="evenodd" clip-rule="evenodd" d="M10.1755 94.3554C10.1755 97.5297 12.8768 100.175 16.036 100.175C19.2638 100.175 21.9651 97.5297 21.9651 94.3554C21.9651 91.1811 19.2638 88.4668 16.036 88.4668C12.8768 88.4668 10.1755 91.1811 10.1755 94.3554ZM15.8986 104.983C10.1068 104.983 5.32227 100.175 5.32227 94.3554C5.32227 88.4668 10.1068 83.8203 15.8986 83.8203C18.1192 83.8203 20.2024 84.4184 21.9651 85.6375V84.0043H26.9328V104.499H21.9651V103.142C20.2711 104.292 18.1879 104.983 15.8986 104.983Z" fill="white"/>
</svg>
