<svg width="498" height="136" viewBox="0 0 498 136" fill="none" xmlns="http://www.w3.org/2000/svg">
<path d="M0.661494 3.84773H15.6443V7.84976H10.1539V27H6.15189V7.84976H0.661494V3.84773ZM32.7494 3.84773V27H28.7142V17.1107H20.8094V27H16.8074V3.84773H20.8094V13.0756H28.7142V3.84773H32.7494ZM48.1722 3.84773H35.4054V27H48.1722V22.9649H39.4074V17.1107H47.3123V13.0756H39.4074V7.84976H48.1722V3.84773ZM58.2127 11.488C58.2127 10.3855 58.4222 9.34915 58.8411 8.37896C59.2601 7.40877 59.8223 6.57088 60.5279 5.86528C61.2556 5.13764 62.1045 4.56435 63.0747 4.1454C64.0449 3.72645 65.0812 3.51698 66.1837 3.51698C67.2862 3.51698 68.3115 3.72645 69.2597 4.1454C70.2298 4.56435 71.0788 5.13764 71.8064 5.86528C72.534 6.59293 73.1073 7.44184 73.5263 8.41203C73.9452 9.36017 74.1547 10.3855 74.1547 11.488V19.3267C74.1547 20.4292 73.9452 21.4655 73.5263 22.4357C73.1073 23.4059 72.534 24.2548 71.8064 24.9824C71.1008 25.688 70.2629 26.2503 69.2927 26.6693C68.3225 27.0882 67.2862 27.2977 66.1837 27.2977C65.0812 27.2977 64.0449 27.0882 63.0747 26.6693C62.1045 26.2503 61.2556 25.688 60.5279 24.9824C59.8223 24.2548 59.2601 23.4059 58.8411 22.4357C58.4222 21.4655 58.2127 20.4292 58.2127 19.3267V11.488ZM62.2147 19.3267C62.2147 19.8779 62.314 20.3961 62.5124 20.8812C62.7329 21.3442 63.0196 21.7632 63.3724 22.138C63.7472 22.4908 64.1662 22.7775 64.6292 22.998C65.1143 23.1964 65.6325 23.2956 66.1837 23.2956C66.735 23.2956 67.2421 23.1964 67.7051 22.998C68.1902 22.7775 68.6092 22.4908 68.962 22.138C69.3148 21.7632 69.5904 21.3442 69.7888 20.8812C70.0093 20.3961 70.1196 19.8779 70.1196 19.3267V11.488C70.1196 10.9588 70.0093 10.4516 69.7888 9.96654C69.5904 9.48145 69.3148 9.0625 68.962 8.7097C68.6092 8.35691 68.1902 8.08129 67.7051 7.88284C67.2421 7.66234 66.735 7.55209 66.1837 7.55209C65.6545 7.55209 65.1474 7.66234 64.6623 7.88284C64.1772 8.08129 63.7472 8.35691 63.3724 8.7097C63.0196 9.0625 62.7329 9.48145 62.5124 9.96654C62.314 10.4516 62.2147 10.9588 62.2147 11.488V19.3267ZM94.3721 3.84773V22.568C94.3721 23.2295 94.2398 23.8469 93.9752 24.4202C93.7327 24.9935 93.3909 25.5006 92.9499 25.9416C92.531 26.3606 92.0348 26.7023 91.4616 26.9669C90.8883 27.2095 90.2709 27.3307 89.6094 27.3307C89.0581 27.3307 88.5179 27.2315 87.9887 27.0331C87.4816 26.8346 87.0185 26.559 86.5996 26.2062C86.2027 25.8534 85.8499 25.4455 85.5412 24.9824C85.2545 24.5194 85.0561 24.0123 84.9458 23.461L80.9107 4.70767H80.15V27H76.148V3.84773H84.8135L89.014 23.2956H90.3701V3.84773H94.3721ZM100.848 22.9649V3.84773H96.8455V27H109.612V22.9649H100.848ZM117.276 14.6631L120.683 3.84773H124.883L121.212 15.5231H118.93V27H114.894V15.5231H112.612L108.941 3.84773H113.141L116.548 14.6631H117.276Z" fill="white"/>
<path d="M11.7816 57.1886H21.9162C23.3098 57.1886 24.4921 56.703 25.4634 55.7317C26.4346 54.7605 26.9202 53.5781 26.9202 52.1846C26.9202 50.7911 26.4346 49.6087 25.4634 48.6375C24.4921 47.6662 23.3098 47.1806 21.9162 47.1806H11.7816V57.1886ZM21.9162 39.5163C23.6898 39.5163 25.3367 39.8541 26.8569 40.5297C28.4193 41.2054 29.7706 42.1133 30.9108 43.2534C32.0509 44.3936 32.9588 45.7449 33.6345 47.3073C34.3101 48.8275 34.6479 50.4533 34.6479 52.1846C34.6479 53.9582 34.3101 55.6262 33.6345 57.1886C32.9588 58.7088 32.0509 60.039 30.9108 61.1791C29.7706 62.3193 28.4193 63.2272 26.8569 63.9028C25.3367 64.5785 23.6898 64.9163 21.9162 64.9163H11.7816V83.8555H4.11721V39.5163H21.9162ZM45.172 76.1278V39.5163H37.5077V83.8555H61.9576V76.1278H45.172ZM94.0531 69.2235C94.0531 71.2927 93.6519 73.2563 92.8496 75.1143C92.0472 76.9723 90.9493 78.5981 89.5558 79.9916C88.1623 81.3851 86.5365 82.4831 84.6785 83.2854C82.8627 84.0877 80.8991 84.4889 78.7877 84.4889C76.7185 84.4889 74.7549 84.0877 72.8969 83.2854C71.0389 82.4831 69.4131 81.3851 68.0196 79.9916C66.6261 78.5981 65.5282 76.9723 64.7258 75.1143C63.9235 73.2563 63.5223 71.2927 63.5223 69.2235V39.5163H71.1867V69.2235C71.1867 70.237 71.3978 71.2082 71.8201 72.1373C72.2424 73.0663 72.7913 73.8686 73.467 74.5442C74.1849 75.2199 74.9872 75.7688 75.874 76.1911C76.803 76.5712 77.7742 76.7612 78.7877 76.7612C79.8434 76.7612 80.8146 76.5712 81.7014 76.1911C82.6304 75.7688 83.4328 75.2199 84.1084 74.5442C84.784 73.8686 85.3119 73.0663 85.6919 72.1373C86.1142 71.2082 86.3254 70.237 86.3254 69.2235V39.5163H94.0531V69.2235ZM127.738 54.1482H120.01C120.01 53.1347 119.799 52.1635 119.377 51.2345C118.997 50.3055 118.469 49.5031 117.793 48.8275C117.118 48.1519 116.315 47.624 115.386 47.244C114.5 46.8217 113.528 46.6105 112.473 46.6105C111.459 46.6105 110.488 46.8217 109.559 47.244C108.63 47.624 107.806 48.1519 107.089 48.8275C106.413 49.5031 105.864 50.3055 105.442 51.2345C105.062 52.1635 104.872 53.1347 104.872 54.1482V69.1602C104.872 70.2159 105.062 71.2082 105.442 72.1373C105.864 73.024 106.413 73.8264 107.089 74.5442C107.806 75.2199 108.63 75.7688 109.559 76.1911C110.488 76.5712 111.459 76.7612 112.473 76.7612C113.528 76.7612 114.5 76.5712 115.386 76.1911C116.315 75.7688 117.118 75.2199 117.793 74.5442C118.469 73.8264 118.997 73.024 119.377 72.1373C119.799 71.2082 120.01 70.2159 120.01 69.1602V68.1467H112.473V60.4824H127.738V69.1602C127.738 71.2716 127.337 73.2563 126.534 75.1143C125.732 76.9723 124.634 78.5981 123.241 79.9916C121.889 81.3429 120.285 82.4197 118.427 83.2221C116.569 84.0244 114.584 84.4255 112.473 84.4255C110.361 84.4255 108.377 84.0244 106.519 83.2221C104.66 82.4197 103.035 81.3429 101.641 79.9916C100.29 78.5981 99.2131 76.9723 98.4108 75.1143C97.6084 73.2563 97.2073 71.2716 97.2073 69.1602V54.1482C97.2073 52.0368 97.6084 50.0732 98.4108 48.2574C99.2131 46.3994 100.311 44.7736 101.705 43.3801C103.098 41.9866 104.724 40.8887 106.582 40.0863C108.44 39.284 110.403 38.8828 112.473 38.8828C114.584 38.8828 116.548 39.284 118.363 40.0863C120.221 40.8887 121.847 41.9866 123.241 43.3801C124.634 44.7736 125.732 46.3994 126.534 48.2574C127.337 50.0732 127.738 52.0368 127.738 54.1482ZM160.723 60.229L167.247 39.5163H175.291L168.26 61.8759H163.89V83.8555H156.162V61.8759H151.792L144.761 39.5163H152.805L159.329 60.229H160.723ZM175.605 54.1482C175.605 52.0368 176.006 50.0521 176.809 48.1941C177.611 46.3361 178.688 44.7314 180.039 43.3801C181.432 41.9866 183.058 40.8887 184.916 40.0863C186.774 39.284 188.759 38.8828 190.87 38.8828C192.982 38.8828 194.945 39.284 196.761 40.0863C198.619 40.8887 200.245 41.9866 201.638 43.3801C203.032 44.7736 204.13 46.3994 204.932 48.2574C205.735 50.0732 206.136 52.0368 206.136 54.1482V69.1602C206.136 71.2716 205.735 73.2563 204.932 75.1143C204.13 76.9723 203.032 78.5981 201.638 79.9916C200.287 81.3429 198.683 82.4197 196.824 83.2221C194.966 84.0244 192.982 84.4255 190.87 84.4255C188.759 84.4255 186.774 84.0244 184.916 83.2221C183.058 82.4197 181.432 81.3429 180.039 79.9916C178.688 78.5981 177.611 76.9723 176.809 75.1143C176.006 73.2563 175.605 71.2716 175.605 69.1602V54.1482ZM183.269 69.1602C183.269 70.2159 183.459 71.2082 183.839 72.1373C184.262 73.024 184.811 73.8264 185.486 74.5442C186.204 75.2199 187.007 75.7688 187.893 76.1911C188.822 76.5712 189.815 76.7612 190.87 76.7612C191.926 76.7612 192.897 76.5712 193.784 76.1911C194.713 75.7688 195.515 75.2199 196.191 74.5442C196.867 73.8264 197.395 73.024 197.775 72.1373C198.197 71.2082 198.408 70.2159 198.408 69.1602V54.1482C198.408 53.1347 198.197 52.1635 197.775 51.2345C197.395 50.3055 196.867 49.5031 196.191 48.8275C195.515 48.1519 194.713 47.624 193.784 47.244C192.897 46.8217 191.926 46.6105 190.87 46.6105C189.857 46.6105 188.886 46.8217 187.957 47.244C187.028 47.624 186.204 48.1519 185.486 48.8275C184.811 49.5031 184.262 50.3055 183.839 51.2345C183.459 52.1635 183.269 53.1347 183.269 54.1482V69.1602ZM239.85 69.2235C239.85 71.2927 239.449 73.2563 238.647 75.1143C237.845 76.9723 236.747 78.5981 235.353 79.9916C233.96 81.3851 232.334 82.4831 230.476 83.2854C228.66 84.0877 226.696 84.4889 224.585 84.4889C222.516 84.4889 220.552 84.0877 218.694 83.2854C216.836 82.4831 215.21 81.3851 213.817 79.9916C212.423 78.5981 211.325 76.9723 210.523 75.1143C209.721 73.2563 209.32 71.2927 209.32 69.2235V39.5163H216.984V69.2235C216.984 70.237 217.195 71.2082 217.617 72.1373C218.04 73.0663 218.589 73.8686 219.264 74.5442C219.982 75.2199 220.784 75.7688 221.671 76.1911C222.6 76.5712 223.572 76.7612 224.585 76.7612C225.641 76.7612 226.612 76.5712 227.499 76.1911C228.428 75.7688 229.23 75.2199 229.906 74.5442C230.581 73.8686 231.109 73.0663 231.489 72.1373C231.912 71.2082 232.123 70.237 232.123 69.2235V39.5163H239.85V69.2235ZM295.862 39.5163V75.3677C295.862 76.6345 295.608 77.8169 295.102 78.9148C294.637 80.0127 293.983 80.984 293.138 81.8285C292.336 82.6309 291.386 83.2854 290.288 83.7921C289.19 84.2566 288.007 84.4889 286.741 84.4889C285.685 84.4889 284.65 84.2989 283.637 83.9188C282.666 83.5388 281.779 83.0109 280.976 82.3353C280.216 81.6596 279.541 80.8784 278.95 79.9916C278.401 79.1048 278.021 78.1336 277.809 77.0779L270.082 41.1631H268.625V83.8555H260.96V39.5163H277.556L285.6 76.7612H288.197V39.5163H295.862ZM325.048 39.5163H300.599V83.8555H325.048V76.1278H308.263V64.9163H323.402V57.1886H308.263V47.1806H325.048V39.5163ZM353.305 39.5163H328.855V83.8555H353.305V76.1278H336.519V64.9163H351.658V57.1886H336.519V47.1806H353.305V39.5163ZM372.377 39.5163C374.488 39.5163 376.452 39.9174 378.267 40.7198C380.125 41.5221 381.751 42.62 383.145 44.0135C384.538 45.407 385.636 47.0328 386.438 48.8908C387.241 50.7066 387.642 52.6702 387.642 54.7816V68.5901C387.642 70.6593 387.241 72.6229 386.438 74.4809C385.636 76.3389 384.538 77.9647 383.145 79.3582C381.751 80.7517 380.125 81.8496 378.267 82.652C376.452 83.4543 374.488 83.8555 372.377 83.8555H357.111V39.5163H372.377ZM372.377 47.1806H364.776V76.1278H372.377C373.39 76.1278 374.361 75.9378 375.29 75.5577C376.219 75.1354 377.022 74.5865 377.697 73.9108C378.373 73.2352 378.901 72.4328 379.281 71.5038C379.703 70.5748 379.914 69.6036 379.914 68.5901V54.7816C379.914 53.7259 379.703 52.7547 379.281 51.8679C378.901 50.9389 378.373 50.1366 377.697 49.4609C377.022 48.743 376.219 48.1941 375.29 47.814C374.404 47.3917 373.432 47.1806 372.377 47.1806Z" fill="#BCD63F"/>
<path fill-rule="evenodd" clip-rule="evenodd" d="M3.625 93.9585V112.499H11.2893V93.9585H3.625ZM37.0155 93.9585V112.499H61.4654V104.772H44.6798V93.9585H37.0155ZM63.0301 93.9585V97.8675C63.0301 99.9367 63.4313 101.9 64.2336 103.758C65.036 105.616 66.1339 107.242 67.5274 108.636C68.9209 110.029 70.5467 111.127 72.4047 111.929C74.2627 112.732 76.2263 113.133 78.2955 113.133C80.4069 113.133 82.3705 112.732 84.1863 111.929C86.0443 111.127 87.6701 110.029 89.0636 108.636C90.4571 107.242 91.555 105.616 92.3574 103.758C93.1597 101.9 93.5608 99.9367 93.5608 97.8675V93.9585H85.8332V97.8675C85.8332 98.881 85.622 99.8523 85.1997 100.781C84.8197 101.71 84.2918 102.513 83.6162 103.188C82.9406 103.864 82.1382 104.413 81.2092 104.835C80.3224 105.215 79.3512 105.405 78.2955 105.405C77.282 105.405 76.3108 105.215 75.3818 104.835C74.495 104.413 73.6927 103.864 72.9748 103.188C72.2991 102.513 71.7502 101.71 71.3279 100.781C70.9056 99.8523 70.6945 98.881 70.6945 97.8675V93.9585H63.0301ZM96.7151 93.9585V97.8042C96.7151 99.9156 97.1162 101.9 97.9186 103.758C98.7209 105.616 99.7977 107.242 101.149 108.636C102.542 109.987 104.168 111.064 106.026 111.866C107.884 112.668 109.869 113.07 111.98 113.07C114.092 113.07 116.077 112.668 117.935 111.866C119.793 111.064 121.397 109.987 122.749 108.636C124.142 107.242 125.24 105.616 126.042 103.758C126.845 101.9 127.246 99.9156 127.246 97.8042V93.9585H111.98V96.7907H119.518V97.8042C119.518 98.8599 119.307 99.8523 118.885 100.781C118.505 101.668 117.977 102.47 117.301 103.188C116.625 103.864 115.823 104.413 114.894 104.835C114.007 105.215 113.036 105.405 111.98 105.405C110.967 105.405 109.996 105.215 109.067 104.835C108.138 104.413 107.314 103.864 106.596 103.188C105.921 102.47 105.372 101.668 104.949 100.781C104.569 99.8523 104.379 98.8599 104.379 97.8042V93.9585H96.7151ZM155.67 93.9585V112.499H163.398V93.9585H155.67ZM175.113 93.9585V97.8042C175.113 99.9156 175.514 101.9 176.316 103.758C177.119 105.616 178.195 107.242 179.547 108.636C180.94 109.987 182.566 111.064 184.424 111.866C186.282 112.668 188.267 113.07 190.378 113.07C192.49 113.07 194.474 112.668 196.332 111.866C198.19 111.064 199.795 109.987 201.146 108.636C202.54 107.242 203.638 105.616 204.44 103.758C205.242 101.9 205.644 99.9156 205.644 97.8042V93.9585H197.916V97.8042C197.916 98.8599 197.705 99.8523 197.282 100.781C196.902 101.668 196.375 102.47 195.699 103.188C195.023 103.864 194.221 104.413 193.292 104.835C192.405 105.215 191.434 105.405 190.378 105.405C189.322 105.405 188.33 105.215 187.401 104.835C186.514 104.413 185.712 103.864 184.994 103.188C184.318 102.47 183.77 101.668 183.347 100.781C182.967 99.8523 182.777 98.8599 182.777 97.8042V93.9585H175.113ZM208.827 93.9585V97.8675C208.827 99.9367 209.229 101.9 210.031 103.758C210.833 105.616 211.931 107.242 213.325 108.636C214.718 110.029 216.344 111.127 218.202 111.929C220.06 112.732 222.024 113.133 224.093 113.133C226.204 113.133 228.168 112.732 229.984 111.929C231.842 111.127 233.467 110.029 234.861 108.636C236.254 107.242 237.352 105.616 238.155 103.758C238.957 101.9 239.358 99.9367 239.358 97.8675V93.9585H231.63V97.8675C231.63 98.881 231.419 99.8523 230.997 100.781C230.617 101.71 230.089 102.513 229.414 103.188C228.738 103.864 227.936 104.413 227.007 104.835C226.12 105.215 225.149 105.405 224.093 105.405C223.079 105.405 222.108 105.215 221.179 104.835C220.292 104.413 219.49 103.864 218.772 103.188C218.096 102.513 217.548 101.71 217.125 100.781C216.703 99.8523 216.492 98.881 216.492 97.8675V93.9585H208.827ZM260.468 93.9585V112.499H268.133V93.9585H260.468ZM274.786 93.9585L277.317 105.722C277.528 106.778 277.908 107.749 278.457 108.636C279.049 109.522 279.724 110.304 280.484 110.979C281.287 111.655 282.173 112.183 283.145 112.563C284.158 112.943 285.193 113.133 286.248 113.133C287.515 113.133 288.698 112.901 289.796 112.436C290.893 111.929 291.844 111.275 292.646 110.473C293.49 109.628 294.145 108.657 294.609 107.559C295.116 106.461 295.37 105.279 295.37 104.012V93.9585H287.705V105.405H285.108L282.636 93.9585H274.786ZM300.106 93.9585V112.499H324.556V104.772H307.771V93.9585H300.106ZM328.363 93.9585V112.499H352.813V104.772H336.027V93.9585H328.363ZM356.619 93.9585V112.499H371.884C373.996 112.499 375.959 112.098 377.775 111.296C379.633 110.494 381.259 109.396 382.652 108.002C384.046 106.609 385.144 104.983 385.946 103.125C386.749 101.267 387.15 99.3033 387.15 97.2341V93.9585H379.422V97.2341C379.422 98.2476 379.211 99.2188 378.789 100.148C378.409 101.077 377.881 101.879 377.205 102.555C376.529 103.23 375.727 103.779 374.798 104.202C373.869 104.582 372.898 104.772 371.884 104.772H364.283V93.9585H356.619Z" fill="#BCD63F"/>
<path fill-rule="evenodd" clip-rule="evenodd" d="M3.62891 119.989V134.746H11.2933V119.989H3.62891ZM37.0194 119.989V134.746H61.4693V127.018H44.6837V119.989H37.0194ZM63.034 119.989V120.114C63.034 122.183 63.4352 124.147 64.2375 126.005C65.0399 127.863 66.1378 129.488 67.5313 130.882C68.9248 132.275 70.5506 133.373 72.4086 134.176C74.2666 134.978 76.2302 135.379 78.2994 135.379C80.4108 135.379 82.3744 134.978 84.1902 134.176C86.0482 133.373 87.674 132.275 89.0675 130.882C90.461 129.488 91.5589 127.863 92.3613 126.005C93.1636 124.147 93.5648 122.183 93.5648 120.114V119.989H85.8371V120.114C85.8371 121.127 85.6259 122.098 85.2036 123.027C84.8236 123.956 84.2957 124.759 83.6201 125.434C82.9445 126.11 82.1421 126.659 81.2131 127.081C80.3263 127.461 79.3551 127.651 78.2994 127.651C77.2859 127.651 76.3147 127.461 75.3857 127.081C74.4989 126.659 73.6966 126.11 72.9787 125.434C72.303 124.759 71.7541 123.956 71.3318 123.027C70.9095 122.098 70.6984 121.127 70.6984 120.114V119.989H63.034ZM96.719 119.989V120.05C96.719 122.162 97.1201 124.147 97.9225 126.005C98.7248 127.863 99.8016 129.488 101.153 130.882C102.546 132.233 104.172 133.31 106.03 134.112C107.888 134.915 109.873 135.316 111.984 135.316C114.096 135.316 116.08 134.915 117.938 134.112C119.796 133.31 121.401 132.233 122.752 130.882C124.146 129.488 125.244 127.863 126.046 126.005C126.849 124.147 127.25 122.162 127.25 120.05V119.989H119.522V120.05C119.522 121.106 119.311 122.098 118.889 123.027C118.509 123.914 117.981 124.717 117.305 125.434C116.629 126.11 115.827 126.659 114.898 127.081C114.011 127.461 113.04 127.651 111.984 127.651C110.971 127.651 110 127.461 109.071 127.081C108.142 126.659 107.318 126.11 106.6 125.434C105.925 124.717 105.376 123.914 104.953 123.027C104.573 122.098 104.383 121.106 104.383 120.05V119.989H96.719ZM155.674 119.989V134.746H163.401V119.989H155.674ZM175.117 119.989V120.05C175.117 122.162 175.518 124.147 176.32 126.005C177.123 127.863 178.199 129.488 179.551 130.882C180.944 132.233 182.57 133.31 184.428 134.112C186.286 134.915 188.271 135.316 190.382 135.316C192.493 135.316 194.478 134.915 196.336 134.112C198.194 133.31 199.799 132.233 201.15 130.882C202.544 129.488 203.642 127.863 204.444 126.005C205.246 124.147 205.647 122.162 205.647 120.05V119.989H197.92V120.05C197.92 121.106 197.709 122.098 197.286 123.027C196.906 123.914 196.378 124.717 195.703 125.434C195.027 126.11 194.225 126.659 193.296 127.081C192.409 127.461 191.438 127.651 190.382 127.651C189.326 127.651 188.334 127.461 187.405 127.081C186.518 126.659 185.716 126.11 184.998 125.434C184.322 124.717 183.773 123.914 183.351 123.027C182.971 122.098 182.781 121.106 182.781 120.05V119.989H175.117ZM208.831 119.989V120.114C208.831 122.183 209.233 124.147 210.035 126.005C210.837 127.863 211.935 129.488 213.329 130.882C214.722 132.275 216.348 133.373 218.206 134.176C220.064 134.978 222.028 135.379 224.097 135.379C226.208 135.379 228.172 134.978 229.987 134.176C231.846 133.373 233.471 132.275 234.865 130.882C236.258 129.488 237.356 127.863 238.159 126.005C238.961 124.147 239.362 122.183 239.362 120.114V119.989H231.634V120.114C231.634 121.127 231.423 122.098 231.001 123.027C230.621 123.956 230.093 124.759 229.417 125.434C228.742 126.11 227.939 126.659 227.01 127.081C226.124 127.461 225.152 127.651 224.097 127.651C223.083 127.651 222.112 127.461 221.183 127.081C220.296 126.659 219.494 126.11 218.776 125.434C218.1 124.759 217.551 123.956 217.129 123.027C216.707 122.098 216.496 121.127 216.496 120.114V119.989H208.831ZM260.472 119.989V134.746H268.137V119.989H260.472ZM275.604 119.989L277.321 127.968C277.532 129.024 277.912 129.995 278.461 130.882C279.052 131.769 279.728 132.55 280.488 133.226C281.29 133.901 282.177 134.429 283.148 134.809C284.162 135.189 285.197 135.379 286.252 135.379C287.519 135.379 288.701 135.147 289.799 134.682C290.897 134.176 291.847 133.521 292.65 132.719C293.494 131.874 294.149 130.903 294.613 129.805C295.12 128.707 295.373 127.525 295.373 126.258V119.989H287.709V127.651H285.112L283.457 119.989H275.604ZM300.11 119.989V134.746H324.56V127.018H307.775V119.989H300.11ZM328.367 119.989V134.746H352.816V127.018H336.031V119.989H328.367ZM356.623 119.989V134.746H371.888C374 134.746 375.963 134.345 377.779 133.542C379.637 132.74 381.263 131.642 382.656 130.248C384.05 128.855 385.148 127.229 385.95 125.371C386.686 123.666 387.085 121.872 387.146 119.989H379.408C379.349 120.82 379.144 121.622 378.793 122.394C378.412 123.323 377.885 124.125 377.209 124.801C376.533 125.477 375.731 126.026 374.802 126.448C373.873 126.828 372.902 127.018 371.888 127.018H364.287V119.989H356.623Z" fill="#BCD63F"/>
<path d="M458.651 47.8222L413.403 93.0698M458.651 47.8222H413.403M458.651 47.8222V93.0698" stroke="white" stroke-width="10.491" stroke-miterlimit="16" stroke-linecap="square"/>
</svg>
