<svg width="112" height="112" viewBox="0 0 112 112" fill="none" xmlns="http://www.w3.org/2000/svg">
<path d="M48.1904 11.7414C51.9986 6.3458 60.0008 6.3458 63.809 11.7414C66.4522 15.4865 71.2458 17.044 75.5855 15.5678C81.8378 13.4411 88.3117 18.1446 88.2211 24.7482C88.1582 29.3316 91.1208 33.4093 95.4994 34.7659C101.808 36.7203 104.281 44.3308 100.326 49.62C97.5808 53.2911 97.5808 58.3314 100.326 62.0025C104.281 67.2916 101.808 74.9021 95.4994 76.8566C91.1208 78.2132 88.1582 82.2908 88.2211 86.8743C88.3117 93.4778 81.8378 98.1814 75.5855 96.0546C71.2458 94.5784 66.4522 96.136 63.809 99.881C60.0008 105.277 51.9986 105.277 48.1904 99.881C45.5472 96.136 40.7537 94.5784 36.4139 96.0546C30.1616 98.1814 23.6877 93.4778 23.7783 86.8743C23.8412 82.2908 20.8786 78.2132 16.5 76.8566C10.1917 74.9021 7.71888 67.2916 11.6736 62.0025C14.4186 58.3314 14.4186 53.2911 11.6736 49.62C7.71888 44.3308 10.1917 36.7203 16.5 34.7659C20.8786 33.4093 23.8412 29.3316 23.7783 24.7482C23.6877 18.1446 30.1616 13.4411 36.4139 15.5678C40.7537 17.044 45.5472 15.4865 48.1904 11.7414Z" fill="#BCD63F" stroke="black" stroke-width="0.780577"/>
<g clip-path="url(#clip0_553_21823)">
<path d="M55.6538 84.4914C55.2778 84.2351 55.0973 83.9035 55.0673 83.4212C55.0372 82.562 54.3002 81.8836 53.4129 81.7932C52.706 81.7178 52.3751 81.4314 52.3901 80.8737C52.4052 80.331 52.721 80.0446 53.4429 79.9843C54.3153 79.8939 55.0071 79.2005 55.0823 78.3262C55.1425 77.6178 55.4282 77.2861 55.9847 77.2861C56.5412 77.2861 56.8119 77.5876 56.8871 78.3262C56.9924 79.2457 57.6692 79.909 58.5866 79.9843C59.2484 80.0446 59.5793 80.331 59.5793 80.8737C59.5793 81.4314 59.2634 81.7329 58.6167 81.7932C57.6541 81.8686 56.9473 82.5318 56.9021 83.4815C56.8721 83.9487 56.6765 84.2502 56.3156 84.4914C56.105 84.4914 55.8794 84.4914 55.6538 84.4914Z" fill="#161617"/>
<path d="M55.0817 53.6805C55.0817 57.6449 55.1269 61.6093 55.0667 65.5888C55.0216 68.5131 54.6305 71.3922 53.3822 74.0904C52.6452 75.6732 51.6376 77.0147 50.1636 77.9945C48.043 79.4115 45.9224 79.4115 43.8168 77.9945C41.8766 76.6831 40.7486 74.7838 40.0116 72.6283C39.1393 70.0507 38.8836 67.3826 38.8836 64.6844C38.8686 56.5446 38.8836 48.4047 38.8836 40.2649C38.8836 36.0292 42.2075 32.4265 46.3284 32.1552C50.69 31.8688 54.3899 34.8534 54.9915 39.1344C55.0517 39.5414 55.0817 39.9634 55.0817 40.3704C55.0968 44.8021 55.0968 49.2489 55.0817 53.6805ZM53.292 49.882C53.292 46.6712 53.292 43.4455 53.292 40.2347C53.292 40.1745 53.292 40.1292 53.292 40.0689C53.1867 36.2553 49.6974 33.3762 45.9825 34.0244C42.8392 34.5821 40.6884 37.1296 40.6884 40.3704C40.6734 46.822 40.6433 53.2736 40.7185 59.7101C40.7336 61.6696 41.4555 63.4936 42.6587 65.0763C43.2152 65.7999 43.9371 66.2822 44.8696 66.4028C45.6065 66.4932 45.9976 66.1918 46.1028 65.4532C46.178 64.9256 46.4939 64.6241 46.9902 64.6241C47.4865 64.6241 47.8324 64.9105 47.9076 65.423C48.028 66.237 48.419 66.5234 49.2161 66.4028C50.2539 66.237 51.0059 65.6491 51.5624 64.805C52.6452 63.177 53.2619 61.3682 53.292 59.4086C53.322 56.2431 53.292 53.0625 53.292 49.882ZM40.7185 65.6039C40.6584 67.88 41.2148 70.9702 42.042 72.8996C42.7188 74.4823 43.6664 75.8541 45.2004 76.7283C46.4036 77.4217 47.5617 77.4217 48.7649 76.7434C49.7425 76.1706 50.5096 75.4018 51.1262 74.4522C52.0286 73.0503 52.555 71.5128 52.8257 69.8999C53.0664 68.5131 53.1867 67.0962 53.3521 65.6943C50.5547 68.4378 49.2312 68.8448 46.9601 67.6087C45.5163 68.7995 42.6436 68.4076 40.7185 65.6039Z" fill="#161617"/>
<path d="M56.8867 53.6502C56.8867 49.2335 56.8867 44.8169 56.8867 40.4003C56.8867 35.6822 60.5414 32.0796 65.2189 32.155C69.415 32.2153 73.0547 35.7576 73.0698 39.9783C73.1149 48.6155 73.1149 57.2377 73.0547 65.875C73.0397 68.95 72.5434 71.9799 71.0544 74.7534C69.8813 76.909 68.2269 78.4767 65.7603 79.0344C64.8278 79.2454 63.9706 79.0494 63.1283 78.7028C60.7219 77.723 59.2931 75.8237 58.3456 73.5174C57.3078 71.0001 56.9469 68.332 56.9168 65.6338C56.8717 61.6242 56.9018 57.6296 56.8867 53.6502C56.9018 53.6502 56.9018 53.6502 56.8867 53.6502ZM71.295 49.9119C71.295 46.6258 71.3402 43.3246 71.28 40.0385C71.2198 36.2249 67.6854 33.3759 63.9555 34.0241C60.8723 34.5517 58.7066 37.1293 58.7066 40.34C58.6915 46.7012 58.7066 53.0472 58.7066 59.4083C58.7066 59.8606 58.7366 60.3128 58.8419 60.7499C59.1878 62.3326 59.6691 63.8702 60.7219 65.1665C61.3085 65.875 62.0304 66.3423 62.9629 66.4327C63.6397 66.493 64.0157 66.1915 64.1059 65.4981C64.1811 64.9404 64.497 64.6389 65.0234 64.6389C65.5197 64.6389 65.8355 64.9404 65.9107 65.468C66.016 66.2368 66.4221 66.5382 67.1891 66.4176C68.2419 66.2669 69.024 65.6489 69.5805 64.7897C70.6483 63.1617 71.28 61.3529 71.295 59.3933C71.3251 56.2278 71.295 53.0774 71.295 49.9119ZM58.7066 65.6037C58.8118 68.1662 59.0826 70.6081 60.0602 72.8994C60.7219 74.467 61.6694 75.8237 63.1734 76.713C64.4518 77.4667 65.6851 77.4215 66.9334 76.6527C68.0314 75.9744 68.8435 75.0248 69.4602 73.9093C70.3926 72.206 70.8438 70.3519 71.0694 68.4375C71.1747 67.518 71.2349 66.5985 71.3251 65.5584C68.7082 68.4074 67.3245 68.8294 64.9632 67.6085C62.993 68.8897 61.3686 68.3772 58.7066 65.6037Z" fill="#161617"/>
<path d="M59.5943 30.3313C59.5943 30.8136 59.2634 31.1905 58.7822 31.2508C57.4887 31.4166 57.0375 31.8688 56.8871 33.1199C56.827 33.6174 56.481 33.949 55.9998 33.964C55.4884 33.9791 55.1425 33.6475 55.0823 33.1048C54.947 31.914 54.4055 31.3714 53.2324 31.2508C52.691 31.1905 52.3751 30.8438 52.3902 30.3313C52.4052 29.8338 52.706 29.5022 53.2174 29.457C54.4055 29.3364 54.962 28.7787 55.0823 27.618C55.1425 27.0753 55.4734 26.7588 55.9847 26.7588C56.4961 26.7588 56.842 27.0904 56.8871 27.6331C56.9924 28.7787 57.5639 29.3515 58.707 29.457C59.2484 29.4871 59.5943 29.8188 59.5943 30.3313Z" fill="#161617"/>
<path d="M35.3041 36.6777C35.1838 38.1248 34.9882 38.4866 34.3265 38.4564C33.6948 38.4263 33.4993 38.0645 33.4391 36.6928C32.9729 36.5571 32.5518 36.3159 32.5668 35.7281C32.5818 35.1703 32.9729 34.9291 33.4391 34.8086C33.5294 33.4067 33.7249 33.0449 34.3716 33.0449C35.0183 33.0449 35.1988 33.4067 35.3041 34.8086C35.7703 34.9291 36.1614 35.1854 36.1614 35.7431C36.1614 36.3009 35.8004 36.5722 35.3041 36.6777Z" fill="#161617"/>
<path d="M76.6794 34.8236C76.7546 33.4217 76.9651 33.0298 77.6118 33.0448C78.2435 33.0448 78.424 33.3915 78.5293 34.8085C79.0106 34.9291 79.3866 35.1853 79.3866 35.7431C79.3866 36.3008 79.0106 36.5721 78.5293 36.6776C78.409 38.1247 78.2134 38.4865 77.5667 38.4563C76.92 38.4262 76.7395 38.0795 76.6794 36.6927C76.2131 36.557 75.792 36.3159 75.807 35.728C75.8371 35.2004 76.183 34.9441 76.6794 34.8236Z" fill="#161617"/>
<path d="M36.1914 75.4921C36.1312 76.8789 35.9357 77.2557 35.289 77.2708C34.6272 77.2859 34.4016 76.894 34.3415 75.5072C33.8752 75.3715 33.4541 75.1303 33.4691 74.5424C33.4842 73.9847 33.8602 73.7285 34.3415 73.6229C34.4317 72.206 34.6122 71.8442 35.2739 71.8442C35.9207 71.8442 36.1162 72.206 36.2064 73.6079C36.6877 73.7435 37.0938 73.9998 37.0637 74.5877C37.0487 75.1303 36.6877 75.3866 36.1914 75.4921Z" fill="#161617"/>
<path d="M75.7771 75.5077C75.2808 75.3871 74.9198 75.1309 74.9047 74.5882C74.8897 74.0305 75.2507 73.7592 75.762 73.6386C75.8974 72.1764 76.0779 71.8448 76.7246 71.8599C77.3563 71.8749 77.5217 72.1915 77.642 73.6386C78.1233 73.7592 78.4993 74.0154 78.4993 74.5731C78.4993 75.1309 78.1083 75.3871 77.642 75.5077C77.5368 76.9246 77.3563 77.2713 76.7246 77.2864C76.0628 77.2864 75.8673 76.8945 75.7771 75.5077Z" fill="#161617"/>
<path d="M43.3806 81.8081C43.3655 82.3055 42.9745 82.6824 42.4782 82.6824C41.9969 82.6824 41.5908 82.2754 41.5908 81.793C41.5908 81.2956 42.027 80.8735 42.5233 80.8886C43.0196 80.9187 43.3956 81.3257 43.3806 81.8081Z" fill="#161617"/>
<path d="M34.3419 50.1986C33.8606 50.1685 33.4696 49.7163 33.4997 49.249C33.5298 48.7516 33.996 48.3446 34.4923 48.4049C34.9736 48.4501 35.3195 48.8722 35.2894 49.3696C35.2443 49.867 34.8232 50.2288 34.3419 50.1986Z" fill="#161617"/>
<path d="M77.6415 48.3896C78.1378 48.3896 78.5138 48.7816 78.5138 49.279C78.5138 49.7764 78.1378 50.1684 77.6415 50.1834C77.1451 50.1985 76.709 49.7463 76.724 49.2639C76.7391 48.7966 77.1602 48.3896 77.6415 48.3896Z" fill="#161617"/>
<path d="M33.484 62.8302C33.0028 62.8302 32.5967 62.4082 32.5967 61.9258C32.5967 61.4284 33.0328 61.0063 33.5442 61.0214C34.0405 61.0365 34.4015 61.4435 34.3864 61.9409C34.3714 62.4534 33.9804 62.8302 33.484 62.8302Z" fill="#161617"/>
<path d="M79.4167 61.941C79.4017 62.4384 79.0106 62.8303 78.5294 62.8303C78.0481 62.8303 77.642 62.4233 77.627 61.941C77.627 61.4435 78.0631 61.0215 78.5594 61.0365C79.0558 61.0516 79.4318 61.4435 79.4167 61.941Z" fill="#161617"/>
<path d="M69.5202 80.8887C70.0165 80.8887 70.4075 81.2806 70.4226 81.778C70.4226 82.2755 70.0466 82.6825 69.5503 82.6825C69.069 82.6825 68.6479 82.2755 68.6328 81.7931C68.6328 81.3107 69.0389 80.9037 69.5202 80.8887Z" fill="#161617"/>
<path d="M41.5756 46.3548C41.5756 44.3651 41.5756 42.3753 41.5756 40.3856C41.5756 37.2804 43.9519 34.8535 46.9599 34.8535C49.983 34.8535 52.3743 37.2653 52.3743 40.3705C52.3743 44.5309 52.3743 48.6762 52.3743 52.8365C52.3743 53.3942 52.0735 53.7711 51.5772 53.8163C51.111 53.8766 50.735 53.545 50.5695 53.1078C50.389 52.5953 50.1785 52.0678 49.8626 51.6005C49.2009 50.6207 48.3135 50.1986 47.0652 50.1534C45.3657 50.078 44.4031 50.9071 43.6361 52.2185C43.5007 52.4597 43.4255 52.731 43.3653 53.0023C43.245 53.5299 42.869 53.8465 42.3877 53.8163C41.8914 53.7711 41.5605 53.4093 41.5605 52.8516C41.5756 50.681 41.5756 48.5254 41.5756 46.3548ZM43.3954 49.6409C44.4633 48.6008 45.6514 48.3596 46.975 48.3596C48.3286 48.3596 49.5167 48.6159 50.5695 49.6258C50.5695 46.3096 50.6297 43.1139 50.5394 39.9334C50.4943 38.0492 48.7948 36.6473 46.8998 36.6624C45.0649 36.6774 43.4405 38.1697 43.4105 40.0238C43.3503 43.1742 43.3954 46.3246 43.3954 49.6409Z" fill="#161617"/>
<path d="M48.5092 55.1428C48.7197 55.3086 48.8852 55.4593 49.0656 55.5799C49.7124 56.0773 49.8477 56.5597 49.4868 57.0421C49.1258 57.5093 48.6295 57.5093 47.9677 57.0119C47.6519 56.7707 47.336 56.5446 46.9901 56.2733C46.5991 56.5597 46.2231 56.8612 45.832 57.1325C45.3056 57.5093 44.7792 57.449 44.4484 56.9968C44.1476 56.5597 44.2528 56.0773 44.7642 55.6854C44.9748 55.5196 45.2004 55.3538 45.4711 55.1428C45.1703 54.9016 44.8996 54.7207 44.6439 54.4946C44.2378 54.1328 44.1776 53.6354 44.4784 53.2435C44.7792 52.8515 45.3508 52.7008 45.7117 53.0777C46.5991 53.9821 47.3661 54.0273 48.2535 53.0927C48.6144 52.7159 49.186 52.8515 49.4868 53.2435C49.8026 53.6505 49.7274 54.163 49.2912 54.5398C49.0506 54.7358 48.7949 54.9167 48.5092 55.1428Z" fill="#161617"/>
<path d="M48.5093 60.5541C48.795 60.7651 49.0206 60.946 49.2613 61.1269C49.7426 61.5188 49.8328 62.0313 49.5019 62.4534C49.1861 62.8604 48.6898 62.9207 48.2085 62.574C48.013 62.4383 47.8174 62.2876 47.6219 62.1368C47.4264 61.9861 47.2309 61.8504 47.0053 61.6846C46.6142 61.971 46.2382 62.2725 45.8322 62.5438C45.3208 62.9056 44.8245 62.8754 44.4936 62.4383C44.1477 62.0012 44.253 61.4887 44.7794 61.0817C44.9899 60.9158 45.2155 60.75 45.4862 60.539C45.2005 60.328 44.9598 60.1471 44.7342 59.9662C44.253 59.5743 44.1627 59.0769 44.4786 58.6397C44.7944 58.2327 45.2907 58.1724 45.772 58.504C46.1931 58.7905 46.5992 59.2879 47.0203 59.2879C47.4114 59.303 47.8024 58.7754 48.1934 58.504C48.6747 58.1724 49.1861 58.2327 49.4869 58.6397C49.8027 59.0467 49.7275 59.5592 49.2914 59.9361C49.0507 60.1471 48.795 60.343 48.5093 60.5541Z" fill="#161617"/>
<path d="M59.5938 46.3699C59.5938 44.3651 59.5938 42.3452 59.5938 40.3404C59.6088 37.2804 61.9851 34.8535 64.9781 34.8535C68.0162 34.8535 70.3925 37.2653 70.4075 40.3554C70.4075 44.4857 70.4075 48.6309 70.4075 52.7611C70.4075 53.1983 70.3022 53.5902 69.8661 53.6957C69.5803 53.7711 69.2194 53.6806 68.9336 53.5902C68.7982 53.545 68.708 53.3038 68.6178 53.1531C68.317 52.5652 68.0914 51.917 67.7154 51.3894C67.1138 50.5152 66.2565 50.2288 65.1586 50.1685C63.444 50.0629 62.4363 50.8769 61.6693 52.2185C61.5339 52.4597 61.4437 52.731 61.3986 53.0023C61.2782 53.5299 60.9173 53.8615 60.421 53.8163C59.9246 53.7711 59.5938 53.4093 59.5938 52.8667C59.5938 50.696 59.5938 48.5254 59.5938 46.3699ZM61.3986 49.4901C63.805 47.8772 66.1813 47.8772 68.5877 49.4901C68.5877 46.3096 68.6328 43.129 68.5726 39.9635C68.5275 38.0793 66.8731 36.6322 64.9781 36.6473C63.0981 36.6473 61.4587 38.1396 61.4136 40.0087C61.3685 43.1742 61.3986 46.3246 61.3986 49.4901Z" fill="#161617"/>
<path d="M66.5123 55.1426C66.8131 55.3687 67.0688 55.5496 67.3095 55.7606C67.7456 56.1375 67.8208 56.6349 67.505 57.057C67.1891 57.4489 66.7229 57.5242 66.2567 57.2077C66.0311 57.057 65.8355 56.8911 65.625 56.7404C65.4295 56.5897 65.2339 56.454 65.0083 56.2882C64.6474 56.5595 64.2864 56.8308 63.9255 57.0871C63.3389 57.5242 62.8426 57.5092 62.4967 57.057C62.1507 56.6047 62.2711 56.0922 62.8275 55.6702C63.0381 55.5194 63.2336 55.3536 63.4893 55.1577C63.2035 54.9466 62.9629 54.7657 62.7373 54.5849C62.256 54.1929 62.1658 53.6804 62.4967 53.2584C62.8125 52.8514 63.3088 52.7911 63.7901 53.1227C64.2112 53.4091 64.6173 53.9065 65.0234 53.9065C65.4144 53.9216 65.8055 53.394 66.2115 53.1227C66.6928 52.7911 67.2042 52.8514 67.505 53.2584C67.8208 53.6654 67.7456 54.1779 67.2944 54.5547C67.0688 54.7356 66.8131 54.9165 66.5123 55.1426Z" fill="#161617"/>
<path d="M64.9933 61.6998C64.5872 62.0013 64.2112 62.3028 63.8052 62.5892C63.2938 62.951 62.7824 62.8907 62.4666 62.4535C62.1507 62.0164 62.256 61.519 62.7373 61.1421C62.9629 60.9763 63.1735 60.8105 63.4743 60.5844C63.1885 60.3733 62.9328 60.1925 62.7072 59.9965C62.256 59.6197 62.1508 59.1373 62.4516 58.7152C62.7524 58.2781 63.2788 58.2178 63.7901 58.5645C64.1962 58.8358 64.5872 59.3333 64.9783 59.3333C65.3693 59.3333 65.7754 58.8358 66.1664 58.5645C66.6778 58.2178 67.1892 58.263 67.505 58.7002C67.8058 59.1222 67.7306 59.6046 67.2644 59.9814C67.0388 60.1774 66.7981 60.3432 66.4973 60.5693C66.6778 60.72 66.8432 60.8406 66.9936 60.9612C67.7005 61.4888 67.8509 61.9561 67.505 62.4535C67.144 62.966 66.6327 62.9359 65.8957 62.3932C65.61 62.152 65.3242 61.941 64.9933 61.6998Z" fill="#161617"/>
</g>
<defs>
<clipPath id="clip0_553_21823">
<rect width="46.8346" height="57.7627" fill="white" transform="translate(32.582 26.7285)"/>
</clipPath>
</defs>
</svg>
