<svg width="36" height="34" viewBox="0 0 36 34" fill="none" xmlns="http://www.w3.org/2000/svg">
<rect x="0.75" y="0.5" width="34.75" height="33" rx="16.5" fill="#BCD63F"/>
<path d="M9 10.75L8.25 8.25M15.992 15.75H17.992M19.992 15.75H17.992M17.992 15.75V13.75M17.992 15.75V17.75M17 24.25C17 24.6478 16.842 25.0294 16.5607 25.3107C16.2794 25.592 15.8978 25.75 15.5 25.75C15.1022 25.75 14.7206 25.592 14.4393 25.3107C14.158 25.0294 14 24.6478 14 24.25M23 24.25C23 24.6478 22.842 25.0294 22.5607 25.3107C22.2794 25.592 21.8978 25.75 21.5 25.75C21.1022 25.75 20.7206 25.592 20.4393 25.3107C20.158 25.0294 20 24.6478 20 24.25M9 10.75H28L25 20.75H12L9 10.75Z" stroke="black" stroke-width="1.5" stroke-linecap="round" stroke-linejoin="round"/>
<rect x="0.75" y="0.5" width="34.75" height="33" rx="16.5" stroke="black"/>
</svg>
