<svg width="25" height="25" viewBox="0 0 25 25" fill="none" xmlns="http://www.w3.org/2000/svg">
<path d="M11.6711 0.2146H12.4488C13.6711 0.2146 15.3377 0.661111 17.4488 1.44251C21.7822 4.00995 24.0044 7.69367 24.0044 12.2704C24.0044 16.5123 22.0044 19.9727 18.1155 22.5402C16.0044 23.6565 14.1155 24.2146 12.56 24.2146H11.56C10.3377 24.2146 8.67106 23.7681 6.78218 22.9867C5.44884 22.3169 4.22662 21.4239 3.11551 20.196C1.78218 18.5216 0.893283 16.9588 0.55995 15.5076C0.226617 14.3913 0.115508 13.7216 0.115508 13.2751V12.4937C0.115508 12.382 0.115506 12.2704 0.00439453 12.1588C0.00439453 12.0472 0.115508 11.9355 0.115508 11.8239V11.1541C0.115508 9.92623 0.671064 8.25181 1.78217 6.01925C3.44884 3.45181 5.67106 1.66576 8.44884 0.772739C9.78218 0.437855 10.8933 0.2146 11.6711 0.2146ZM7.22662 9.59134L7.33773 9.70297C7.33773 9.8146 7.22662 9.8146 7.22662 9.92623C7.44884 11.2658 8.11551 12.8286 9.33773 14.503C11.4488 16.8472 13.1155 17.9634 14.56 17.9634H14.8933C16.1155 17.182 16.7822 16.5123 16.8933 16.0658C16.8933 15.7309 16.3377 15.2844 15.3377 14.7262C14.8933 14.3913 14.56 14.1681 14.2266 14.0565C13.8933 14.2797 13.4488 14.503 13.1155 14.8379C12.4488 14.8379 11.4488 13.8332 10.2266 11.9355L10.0044 11.2658C10.5599 10.7076 10.8933 10.3727 10.8933 10.1495C10.2266 8.36344 9.78217 7.47041 9.67106 7.35879H9.33773C9.0044 7.35879 8.33773 7.91693 7.22662 9.14483V9.59134Z" fill="#BCD63F"/>
</svg>
