<svg width="16" height="17" viewBox="0 0 16 17" fill="none" xmlns="http://www.w3.org/2000/svg">
<path d="M2.45098 7.159L7.24698 12.639C7.34084 12.7464 7.4566 12.8325 7.58647 12.8915C7.71635 12.9505 7.85734 12.981 7.99998 12.981C8.14262 12.981 8.28362 12.9505 8.41349 12.8915C8.54337 12.8325 8.65912 12.7464 8.75298 12.639L13.549 7.159C14.115 6.512 13.655 5.5 12.796 5.5H3.20398C3.01174 5.49984 2.82352 5.55509 2.66187 5.65914C2.50022 5.76319 2.37199 5.91164 2.29253 6.08669C2.21308 6.26175 2.18577 6.456 2.21387 6.64618C2.24197 6.83636 2.32429 7.01441 2.45098 7.159Z" fill="#161617"/>
</svg>
