<svg width="19" height="19" viewBox="0 0 19 19" fill="none" xmlns="http://www.w3.org/2000/svg">
<path d="M17.0755 7.15525L17.4426 6.89189L17.2176 6.50005L15.9156 4.23205L15.6888 3.83701L15.2744 4.02611L11.5858 5.70928L11.1916 1.66054L11.1477 1.20898H10.694H8.09H7.63631L7.59235 1.66054L7.19823 5.70928L3.50957 4.02611L3.09516 3.83701L2.86837 4.23205L1.56637 6.50005L1.34143 6.89189L1.70855 7.15525L5.00623 9.52099L1.70855 11.8867L1.33843 12.1522L1.56841 12.5454L2.87041 14.7714L3.09852 15.1614L3.50957 14.9739L7.19823 13.2907L7.59235 17.3394L7.63631 17.791H8.09H10.694H11.1477L11.1916 17.3394L11.5858 13.2907L15.2744 14.9739L15.6855 15.1614L15.9136 14.7714L17.2156 12.5454L17.4456 12.1522L17.0755 11.8867L13.7778 9.52099L17.0755 7.15525Z" stroke="black"/>
</svg>
