<svg width="32" height="35" viewBox="0 0 32 35" fill="none" xmlns="http://www.w3.org/2000/svg">
<g clip-path="url(#clip0_1512_1857)">
<path d="M16.2087 0.5C16.9043 0.846939 17.6 1.19388 18.3652 1.54082C22.7478 3.69184 27.1304 5.77347 31.5826 7.8551C31.9304 7.99388 32.0696 8.27143 32.0696 8.61837C32.0696 14.5163 32.0696 20.4143 32.0696 26.3122C32.0696 26.7286 31.9304 26.9367 31.5826 27.0755C26.5739 29.5041 21.4957 31.9327 16.487 34.3612C16.2087 34.5 15.9304 34.5 15.6522 34.3612C10.6435 31.9327 5.63478 29.5041 0.556522 27.0755C0.13913 27.0061 0 26.7286 0 26.3122C0 20.4143 0 14.5857 0 8.68776C0 8.27143 0.13913 8.06327 0.486957 7.8551C5.49565 5.49592 10.5043 3.06735 15.513 0.708163C15.6522 0.638776 15.7217 0.569388 15.7913 0.5C15.9304 0.5 16.0696 0.5 16.2087 0.5ZM1.66957 8.47959C1.8087 8.54898 1.94783 8.61837 2.01739 8.68776C5.14783 10.2143 8.27826 11.6714 11.3391 13.198C11.687 13.4061 12.1043 13.5449 12.4522 13.7531C12.7304 13.8918 12.8 14.1 12.6609 14.3776C12.5217 14.6551 12.313 14.7245 12.0348 14.6551C11.8957 14.6551 11.8261 14.5857 11.687 14.5163C8.48696 12.9898 5.21739 11.3939 2.01739 9.86735C1.66957 9.72857 1.32174 9.52041 0.904348 9.38163C0.904348 9.52041 0.904348 9.65918 0.904348 9.72857C0.904348 15.1408 0.904348 20.6224 0.904348 26.0347C0.904348 26.3122 0.973913 26.451 1.25217 26.5204C5.56522 28.602 9.87826 30.6837 14.1913 32.7653C14.6087 32.9735 14.9565 33.1122 15.4435 33.3204C15.4435 33.1122 15.4435 33.0429 15.4435 32.9041C15.4435 31.1 15.4435 29.3653 15.4435 27.5612C15.4435 23.9531 15.4435 20.2755 15.4435 16.6673C15.4435 16.3898 15.3739 16.251 15.1652 16.1816C14.8174 16.0429 14.5391 15.9041 14.2609 15.7653C13.913 15.6265 13.8435 15.349 13.9826 15.0714C14.1217 14.7939 14.4 14.7245 14.7478 14.8633C15.0957 15.002 15.4435 15.2102 15.8609 15.349C16 15.4184 16.2087 15.4184 16.3478 15.349C16.8348 15.1408 17.3217 14.8633 17.8087 14.6551C18.4348 14.3776 18.9913 14.1 19.6174 13.8224C19.8957 13.6837 20.1739 13.8224 20.313 14.0306C20.4522 14.3082 20.313 14.5857 20.1043 14.7245C20.0348 14.7939 19.9652 14.7939 19.8957 14.7939C18.9217 15.2796 17.9478 15.7653 16.9739 16.1816C16.6957 16.3204 16.6261 16.4592 16.6261 16.7367C16.6261 22.149 16.6261 27.5612 16.6261 32.9735C16.6261 33.1122 16.6261 33.1816 16.6261 33.3898C16.7652 33.3204 16.8348 33.3204 16.9043 33.251C21.5652 31.0306 26.2261 28.7408 30.8174 26.5204C31.0261 26.3816 31.0957 26.2429 31.0957 26.0347C31.0957 20.6224 31.0957 15.1408 31.0957 9.72857C31.0957 9.5898 31.0957 9.52041 31.0957 9.38163C31.0261 9.38163 30.9565 9.38163 30.9565 9.45102C29.4957 10.1449 28.1043 10.8388 26.6435 11.5327C26.3652 11.4633 26.4348 11.602 26.4348 11.7408C26.4348 13.5449 26.4348 15.4184 26.4348 17.2225C26.4348 17.6388 26.2957 17.8469 25.8783 18.0551C24.7652 18.5408 23.6522 19.0959 22.5391 19.651C21.9826 19.9286 21.6348 19.7204 21.6348 19.0959C21.6348 17.2918 21.6348 15.4878 21.6348 13.6837C21.6348 13.4061 21.5652 13.2673 21.287 13.1286C19.5478 12.2959 17.8783 11.4633 16.1391 10.7C13.0087 9.24286 9.94783 7.71633 6.81739 6.25918C6.74783 6.12041 6.6087 6.12041 6.46957 6.12041C4.93913 6.88367 3.33913 7.64694 1.66957 8.47959ZM11.8957 3.55306C12.0348 3.62245 12.1739 3.69184 12.2435 3.76122C16.8348 5.98163 21.4261 8.20204 26.0174 10.4224C26.2261 10.4918 26.3652 10.4918 26.5043 10.4224C27.687 9.86735 28.9391 9.24286 30.1217 8.68776C30.1913 8.68776 30.2609 8.61837 30.3304 8.54898C28.4522 7.64694 26.5739 6.7449 24.6957 5.84286C21.913 4.4551 19.0609 3.13673 16.2087 1.74898C16.0696 1.67959 15.9304 1.67959 15.7913 1.67959C14.5391 2.23469 13.2174 2.85918 11.8957 3.55306ZM25.0435 11.0469C24.9043 10.9776 24.7652 10.9082 24.6957 10.8388C23.6522 10.3531 22.6087 9.79796 21.5652 9.31225C18.087 7.64694 14.5391 5.91225 11.0609 4.24694C10.9217 4.17755 10.7826 4.10816 10.6435 4.17755C9.73913 4.59388 8.76522 5.07959 7.7913 5.56531C8.69565 5.98163 9.46087 6.39796 10.2957 6.7449C14.1217 8.61837 18.0174 10.4224 21.8435 12.2959C21.9826 12.3653 22.1217 12.3653 22.2609 12.3653C23.1652 11.949 24.0696 11.4633 25.0435 11.0469ZM22.6783 18.4714C22.7478 18.4714 22.8174 18.4714 22.8174 18.402C23.5826 17.9857 24.4174 17.6388 25.2522 17.2225C25.4609 17.1531 25.4609 17.0143 25.4609 16.8755C25.4609 15.349 25.4609 13.8224 25.4609 12.2959C25.4609 12.2265 25.4609 12.0878 25.4609 11.949C25.3217 12.0184 25.2522 12.0184 25.113 12.0878C24.4174 12.4347 23.7217 12.7816 23.0261 13.0592C22.8174 13.1286 22.7478 13.2673 22.7478 13.5449C22.7478 15.0714 22.7478 16.5286 22.7478 18.0551C22.6783 18.1939 22.6783 18.3327 22.6783 18.4714Z" fill="white"/>
<path d="M2.57289 20.8306C2.78159 20.9 2.85116 20.9 2.99029 20.9693C4.38159 21.6632 5.77289 22.2877 7.09463 22.9816C7.44246 23.1898 7.58159 23.4673 7.44246 23.7449C7.30333 24.0224 7.02507 24.0918 6.60768 23.8836C5.21637 23.2591 3.89463 22.5653 2.50333 21.9408C2.43376 21.8714 2.29463 21.8714 2.22507 21.802C2.1555 21.6632 2.08594 21.4551 2.08594 21.2469C2.22507 21.0387 2.43376 20.9 2.57289 20.8306Z" fill="white"/>
<path d="M5.42582 24.6471C5.42582 25.1328 5.07799 25.341 4.6606 25.2022C4.03451 24.9246 3.40842 24.5777 2.78234 24.3001C2.64321 24.2308 2.57364 24.1614 2.43451 24.092C2.15625 23.9532 2.08668 23.6757 2.22582 23.4675C2.36495 23.1899 2.57364 23.1206 2.8519 23.2593C3.61712 23.6063 4.38234 23.9532 5.14755 24.3695C5.28668 24.4389 5.35625 24.5777 5.42582 24.6471Z" fill="white"/>
</g>
<defs>
<clipPath id="clip0_1512_1857">
<rect width="32" height="34" fill="white" transform="translate(0 0.5)"/>
</clipPath>
</defs>
</svg>
