<svg width="30" height="31" viewBox="0 0 30 31" fill="none" xmlns="http://www.w3.org/2000/svg">
<path fill-rule="evenodd" clip-rule="evenodd" d="M15 27.7151C21.9036 27.7151 27.5 22.1186 27.5 15.2151C27.5 8.31153 21.9036 2.71509 15 2.71509C8.09644 2.71509 2.5 8.31153 2.5 15.2151C2.5 22.1186 8.09644 27.7151 15 27.7151ZM17.1448 9.59049C18.2166 9.77174 19.2416 10.0905 20.1979 10.5217C20.2062 10.5251 20.2131 10.5313 20.2173 10.5392C21.9116 12.9905 22.7479 15.7567 22.4354 18.9405C22.4347 18.9472 22.4325 18.9537 22.429 18.9595C22.4256 18.9653 22.4209 18.9704 22.4154 18.9742C21.2789 19.8022 20.0106 20.4321 18.6641 20.8374C18.6546 20.8402 18.6445 20.84 18.6351 20.8369C18.6257 20.8338 18.6175 20.8278 18.6116 20.8199C18.3285 20.4317 18.071 20.023 17.846 19.5936C17.8429 19.5877 17.8412 19.5812 17.8408 19.5745C17.8405 19.5679 17.8415 19.5612 17.844 19.555C17.8464 19.5488 17.8501 19.5432 17.8549 19.5385C17.8597 19.5339 17.8654 19.5303 17.8716 19.528C18.2798 19.3767 18.6685 19.1949 19.0423 18.9799C19.0489 18.9759 19.0545 18.9704 19.0585 18.9637C19.0625 18.9571 19.0648 18.9496 19.0651 18.9418C19.0655 18.9341 19.064 18.9264 19.0606 18.9194C19.0573 18.9124 19.0523 18.9063 19.046 18.9017C18.9666 18.8436 18.8885 18.783 18.8135 18.7217C18.8066 18.7163 18.7984 18.7128 18.7896 18.7118C18.7809 18.7109 18.7721 18.7123 18.7641 18.7161C16.3385 19.8186 13.6804 19.8186 11.226 18.7161C11.2181 18.7125 11.2094 18.7112 11.2008 18.7123C11.1921 18.7134 11.184 18.7169 11.1773 18.7224C11.1023 18.783 11.0235 18.8436 10.9448 18.9017C10.9386 18.9064 10.9336 18.9126 10.9304 18.9196C10.9272 18.9267 10.9257 18.9344 10.9262 18.9422C10.9267 18.9499 10.9291 18.9574 10.9332 18.964C10.9373 18.9706 10.943 18.976 10.9498 18.9799C11.3248 19.1931 11.716 19.3766 12.1198 19.5286C12.146 19.5386 12.1585 19.5686 12.1454 19.5936C11.9254 20.0236 11.6679 20.433 11.3791 20.8205C11.373 20.8282 11.3648 20.8338 11.3554 20.8367C11.346 20.8396 11.336 20.8396 11.3266 20.8367C9.98247 20.4304 8.71626 19.8008 7.58101 18.9742C7.57562 18.9701 7.57112 18.965 7.56779 18.959C7.56446 18.9531 7.56237 18.9466 7.56164 18.9399C7.29976 16.1861 7.83289 13.3974 9.77789 10.538C9.78268 10.5305 9.78965 10.5246 9.79789 10.5211C10.7548 10.0892 11.7798 9.77049 12.851 9.58924C12.8607 9.58771 12.8706 9.58916 12.8794 9.59341C12.8882 9.59765 12.8955 9.60448 12.9004 9.61299C13.0431 9.86188 13.1718 10.1185 13.286 10.3817C14.4228 10.2119 15.5786 10.2119 16.7154 10.3817C16.8179 10.1442 16.9641 9.84362 17.0954 9.61299C17.1003 9.60459 17.1076 9.5979 17.1165 9.59387C17.1253 9.58984 17.1352 9.58866 17.1448 9.59049ZM11.1641 15.7755C11.1641 16.5949 11.7735 17.263 12.5123 17.263C13.2629 17.263 13.8604 16.5955 13.8604 15.7755C13.8723 14.9611 13.2685 14.288 12.5123 14.288C11.7616 14.288 11.1641 14.9555 11.1641 15.7755ZM16.1485 15.7755C16.1485 16.5949 16.7573 17.263 17.4966 17.263C18.2535 17.263 18.8448 16.5955 18.8448 15.7755C18.8566 14.9611 18.2529 14.288 17.4966 14.288C16.7454 14.288 16.1485 14.9555 16.1485 15.7755Z" fill="#DADADA"/>
</svg>
