<svg width="582" height="213" viewBox="0 0 582 213" fill="none" xmlns="http://www.w3.org/2000/svg">
<g opacity="0.1">
<path d="M36.188 197.526C54.936 197.526 65.618 186.626 65.618 168.75V167.224H51.448V169.186C51.448 178.124 46.434 184.664 36.188 184.664C25.942 184.664 19.838 177.906 19.838 167.224V148.476C19.838 137.794 25.942 131.036 36.188 131.036C46.434 131.036 51.448 137.576 51.448 146.514V147.604H65.618V146.95C65.618 129.074 54.936 118.174 36.188 118.174C17.222 118.174 5.45 129.074 5.45 148.694V167.006C5.45 186.626 17.222 197.526 36.188 197.526ZM104.918 197.526C124.102 197.526 136.31 186.626 136.31 167.006V148.694C136.31 129.074 124.102 118.174 104.918 118.174C85.7345 118.174 73.5265 129.074 73.5265 148.694V167.006C73.5265 186.626 85.7345 197.526 104.918 197.526ZM104.918 184.664C94.2365 184.664 87.9145 177.906 87.9145 167.442V148.258C87.9145 137.794 94.2365 131.036 104.918 131.036C115.6 131.036 121.922 137.794 121.922 148.258V167.442C121.922 177.906 115.6 184.664 104.918 184.664ZM146.86 196H196.128V182.92H161.248V119.7H146.86V196ZM203.866 196H253.134V182.92H218.254V119.7H203.866V196ZM260.872 196H310.576V182.92H275.26V164.063H306.87V150.983H275.26V132.78H309.922V119.7H260.872V196ZM348.149 197.526C366.897 197.526 377.579 186.626 377.579 168.75V167.224H363.409V169.186C363.409 178.124 358.395 184.664 348.149 184.664C337.903 184.664 331.799 177.906 331.799 167.224V148.476C331.799 137.794 337.903 131.036 348.149 131.036C358.395 131.036 363.409 137.576 363.409 146.514V147.604H377.579V146.95C377.579 129.074 366.897 118.174 348.149 118.174C329.183 118.174 317.411 129.074 317.411 148.694V167.006C317.411 186.626 329.183 197.526 348.149 197.526ZM403.4 196H417.788V132.78H440.024V119.7H381.164V132.78H403.4V196ZM442.955 196H459.305L474.674 167.769H476.636L492.005 196H508.355L486.01 157.523L508.137 119.7H491.787L476.636 147.277H474.674L459.523 119.7H443.173L465.3 157.523L442.955 196ZM515.827 196H529.997V129.51H531.959L547.11 196H574.469V119.7H560.299V186.19H558.337L543.186 119.7H515.827V196Z" fill="white"/>
<path d="M7.524 96H59.508V82.32H22.572V62.598H55.632V48.918H22.572V29.88H58.824V16.2H7.524V96ZM63.465 96H80.565L96.639 66.474H98.691L114.765 96H131.865L108.495 55.758L131.637 16.2H114.537L98.691 45.042H96.639L80.793 16.2H63.693L86.835 55.758L63.465 96ZM139.68 96H154.728V66.816H172.512C187.104 66.816 198.048 57.24 198.048 42.306V40.71C198.048 25.776 187.56 16.2 172.512 16.2H139.68V96ZM154.728 53.136V29.88H171.03C178.212 29.88 183 34.098 183 40.938V42.078C183 48.918 178.098 53.136 171.03 53.136H154.728ZM206.315 96H257.843V82.32H221.363V16.2H206.315V96ZM294.161 97.596C314.225 97.596 326.993 86.196 326.993 65.676V46.524C326.993 26.004 314.225 14.604 294.161 14.604C274.097 14.604 261.329 26.004 261.329 46.524V65.676C261.329 86.196 274.097 97.596 294.161 97.596ZM294.161 84.144C282.989 84.144 276.377 77.076 276.377 66.132V46.068C276.377 35.124 282.989 28.056 294.161 28.056C305.333 28.056 311.945 35.124 311.945 46.068V66.132C311.945 77.076 305.333 84.144 294.161 84.144ZM338.026 96H353.074V65.904H374.05C378.496 65.904 380.206 68.412 380.206 72.06V96H395.254V69.894C395.254 63.51 391.72 59.406 385.678 59.064V57.012C392.404 54.276 397.534 48.462 397.534 38.886V37.518C397.534 24.636 387.616 16.2 372.682 16.2H338.026V96ZM353.074 52.224V29.88H371.086C378.382 29.88 382.486 34.098 382.486 40.482V41.622C382.486 48.006 378.154 52.224 371.086 52.224H353.074ZM407.889 96H459.873V82.32H422.937V62.598H455.997V48.918H422.937V29.88H459.189V16.2H407.889V96Z" fill="white"/>
</g>
</svg>
