<svg width="517" height="229" viewBox="0 0 517 229" fill="none" xmlns="http://www.w3.org/2000/svg">
<path d="M172.942 35H177.826V24.233H188.334V19.793H177.826V13.54H189.222V9.1H172.942V35ZM192.707 35H197.591V25.232H204.399C205.842 25.232 206.397 26.046 206.397 27.23V35H211.281V26.527C211.281 24.455 210.134 23.123 208.173 23.012V22.346C210.356 21.458 212.021 19.571 212.021 16.463V16.019C212.021 11.838 208.802 9.1 203.955 9.1H192.707V35ZM197.591 20.792V13.54H203.437C205.805 13.54 207.137 14.909 207.137 16.981V17.351C207.137 19.423 205.731 20.792 203.437 20.792H197.591ZM226.149 35.518C232.661 35.518 236.805 31.818 236.805 25.158V18.942C236.805 12.282 232.661 8.582 226.149 8.582C219.637 8.582 215.493 12.282 215.493 18.942V25.158C215.493 31.818 219.637 35.518 226.149 35.518ZM226.149 31.152C222.523 31.152 220.377 28.858 220.377 25.306V18.794C220.377 15.242 222.523 12.948 226.149 12.948C229.775 12.948 231.921 15.242 231.921 18.794V25.306C231.921 28.858 229.775 31.152 226.149 31.152ZM241.088 35H245.824V12.689H246.49L250.93 35H258.996L263.436 12.689H264.102V35H268.838V9.1H259.773L255.296 31.67H254.63L250.153 9.1H241.088V35ZM287.985 35H292.869V13.54H300.417V9.1H280.437V13.54H287.985V35ZM303.743 35H308.627V24.233H318.247V35H323.131V9.1H318.247V19.793H308.627V9.1H303.743V35ZM328.024 35H344.896V30.56H332.908V24.159H343.638V19.719H332.908V13.54H344.674V9.1H328.024V35Z" fill="#BCD63F"/>
<path d="M18.298 131H31.482V68.891H33.336L45.696 131H68.15L80.51 68.891H82.364V131H95.548V58.9H70.313L57.85 121.73H55.996L43.533 58.9H18.298V131ZM103.153 131H117.161L121.075 115.138H146.825L150.739 131H164.747L145.795 58.9H122.105L103.153 131ZM124.268 102.572L133.023 67.449H134.877L143.632 102.572H124.268ZM196.67 132.442C207.794 132.442 211.09 127.601 212.532 124.099H214.386V131H226.952V94.126H196.464V105.662H213.562V106.692C213.562 114.726 209.236 120.494 199.348 120.494C189.46 120.494 183.692 113.902 183.692 103.808V86.092C183.692 75.998 189.46 69.612 199.142 69.612C208.824 69.612 213.562 75.586 213.562 83.208V84.032H226.952V83.62C226.952 67.552 216.858 57.458 199.142 57.458C181.22 57.458 170.096 67.758 170.096 86.298V103.602C170.096 122.142 181.838 132.442 196.67 132.442ZM233.967 131H247.975L251.889 115.138H277.639L281.553 131H295.561L276.609 58.9H252.919L233.967 131ZM255.082 102.572L263.837 67.449H265.691L274.446 102.572H255.082ZM301.101 131H351.159V118.846H315.315V117.198L350.953 76.204V58.9H302.131V71.054H336.739V72.702L301.101 113.696V131ZM361.477 131H375.073V58.9H361.477V131ZM387.605 131H400.995V68.17H402.849L417.166 131H443.019V58.9H429.629V121.73H427.775L413.458 58.9H387.605V131ZM455.577 131H502.545V118.64H469.173V100.821H499.043V88.461H469.173V71.26H501.927V58.9H455.577V131Z" fill="white"/>
<mask id="mask0_553_22058" style="mask-type:alpha" maskUnits="userSpaceOnUse" x="0" y="138" width="517" height="53">
<rect x="1" y="138.5" width="515" height="52" fill="#D9D9D9" stroke="#BCD63F"/>
</mask>
<g mask="url(#mask0_553_22058)">
<path d="M18.298 217H17.298V218H18.298V217ZM31.482 217V218H32.482V217H31.482ZM31.482 154.891V153.891H30.482V154.891H31.482ZM33.336 154.891L34.3168 154.696L34.1566 153.891H33.336V154.891ZM45.696 217L44.7152 217.195L44.8754 218H45.696V217ZM68.15 217V218H68.9706L69.1308 217.195L68.15 217ZM80.51 154.891V153.891H79.6894L79.5292 154.696L80.51 154.891ZM82.364 154.891H83.364V153.891H82.364V154.891ZM82.364 217H81.364V218H82.364V217ZM95.548 217V218H96.548V217H95.548ZM95.548 144.9H96.548V143.9H95.548V144.9ZM70.313 144.9V143.9H69.4919L69.3321 144.705L70.313 144.9ZM57.85 207.73V208.73H58.6711L58.8309 207.925L57.85 207.73ZM55.996 207.73L55.0151 207.925L55.1749 208.73H55.996V207.73ZM43.533 144.9L44.5139 144.705L44.3541 143.9H43.533V144.9ZM18.298 144.9V143.9H17.298V144.9H18.298ZM18.298 218H31.482V216H18.298V218ZM32.482 217V154.891H30.482V217H32.482ZM31.482 155.891H33.336V153.891H31.482V155.891ZM32.3552 155.086L44.7152 217.195L46.6768 216.805L34.3168 154.696L32.3552 155.086ZM45.696 218H68.15V216H45.696V218ZM69.1308 217.195L81.4908 155.086L79.5292 154.696L67.1692 216.805L69.1308 217.195ZM80.51 155.891H82.364V153.891H80.51V155.891ZM81.364 154.891V217H83.364V154.891H81.364ZM82.364 218H95.548V216H82.364V218ZM96.548 217V144.9H94.548V217H96.548ZM95.548 143.9H70.313V145.9H95.548V143.9ZM69.3321 144.705L56.8691 207.535L58.8309 207.925L71.2939 145.095L69.3321 144.705ZM57.85 206.73H55.996V208.73H57.85V206.73ZM56.9769 207.535L44.5139 144.705L42.5521 145.095L55.0151 207.925L56.9769 207.535ZM43.533 143.9H18.298V145.9H43.533V143.9ZM17.298 144.9V217H19.298V144.9H17.298ZM103.153 217L102.186 216.746L101.856 218H103.153V217ZM117.161 217V218H117.944L118.132 217.24L117.161 217ZM121.075 201.138V200.138H120.292L120.104 200.898L121.075 201.138ZM146.825 201.138L147.796 200.898L147.608 200.138H146.825V201.138ZM150.739 217L149.768 217.24L149.956 218H150.739V217ZM164.747 217V218H166.044L165.714 216.746L164.747 217ZM145.795 144.9L146.762 144.646L146.566 143.9H145.795V144.9ZM122.105 144.9V143.9H121.334L121.138 144.646L122.105 144.9ZM124.268 188.572L123.298 188.33L122.988 189.572H124.268V188.572ZM133.023 153.449V152.449H132.242L132.053 153.207L133.023 153.449ZM134.877 153.449L135.847 153.207L135.658 152.449H134.877V153.449ZM143.632 188.572V189.572H144.912L144.602 188.33L143.632 188.572ZM103.153 218H117.161V216H103.153V218ZM118.132 217.24L122.046 201.378L120.104 200.898L116.19 216.76L118.132 217.24ZM121.075 202.138H146.825V200.138H121.075V202.138ZM145.854 201.378L149.768 217.24L151.71 216.76L147.796 200.898L145.854 201.378ZM150.739 218H164.747V216H150.739V218ZM165.714 216.746L146.762 144.646L144.828 145.154L163.78 217.254L165.714 216.746ZM145.795 143.9H122.105V145.9H145.795V143.9ZM121.138 144.646L102.186 216.746L104.12 217.254L123.072 145.154L121.138 144.646ZM125.238 188.814L133.993 153.691L132.053 153.207L123.298 188.33L125.238 188.814ZM133.023 154.449H134.877V152.449H133.023V154.449ZM133.907 153.691L142.662 188.814L144.602 188.33L135.847 153.207L133.907 153.691ZM143.632 187.572H124.268V189.572H143.632V187.572ZM212.532 210.099V209.099H211.862L211.607 209.718L212.532 210.099ZM214.386 210.099H215.386V209.099H214.386V210.099ZM214.386 217H213.386V218H214.386V217ZM226.952 217V218H227.952V217H226.952ZM226.952 180.126H227.952V179.126H226.952V180.126ZM196.464 180.126V179.126H195.464V180.126H196.464ZM196.464 191.662H195.464V192.662H196.464V191.662ZM213.562 191.662H214.562V190.662H213.562V191.662ZM213.562 170.032H212.562V171.032H213.562V170.032ZM226.952 170.032V171.032H227.952V170.032H226.952ZM196.67 219.442C202.376 219.442 206.195 218.199 208.799 216.408C211.408 214.612 212.692 212.337 213.457 210.48L211.607 209.718C210.93 211.363 209.845 213.259 207.665 214.76C205.479 216.264 202.088 217.442 196.67 217.442V219.442ZM212.532 211.099H214.386V209.099H212.532V211.099ZM213.386 210.099V217H215.386V210.099H213.386ZM214.386 218H226.952V216H214.386V218ZM227.952 217V180.126H225.952V217H227.952ZM226.952 179.126H196.464V181.126H226.952V179.126ZM195.464 180.126V191.662H197.464V180.126H195.464ZM196.464 192.662H213.562V190.662H196.464V192.662ZM212.562 191.662V192.692H214.562V191.662H212.562ZM212.562 192.692C212.562 196.539 211.527 199.711 209.437 201.918C207.356 204.114 204.096 205.494 199.348 205.494V207.494C204.488 207.494 208.335 205.99 210.889 203.293C213.433 200.608 214.562 196.879 214.562 192.692H212.562ZM199.348 205.494C194.636 205.494 191.006 203.931 188.548 201.259C186.079 198.577 184.692 194.669 184.692 189.808H182.692C182.692 195.041 184.189 199.476 187.076 202.613C189.973 205.761 194.172 207.494 199.348 207.494V205.494ZM184.692 189.808V172.092H182.692V189.808H184.692ZM184.692 172.092C184.692 167.231 186.079 163.377 188.519 160.747C190.951 158.126 194.529 156.612 199.142 156.612V154.612C194.072 154.612 189.926 156.291 187.053 159.387C184.189 162.473 182.692 166.859 182.692 172.092H184.692ZM199.142 156.612C203.772 156.612 207.098 158.035 209.268 160.251C211.444 162.474 212.562 165.602 212.562 169.208H214.562C214.562 165.192 213.311 161.522 210.697 158.852C208.077 156.176 204.194 154.612 199.142 154.612V156.612ZM212.562 169.208V170.032H214.562V169.208H212.562ZM213.562 171.032H226.952V169.032H213.562V171.032ZM227.952 170.032V169.62H225.952V170.032H227.952ZM227.952 169.62C227.952 161.373 225.356 154.549 220.382 149.791C215.412 145.037 208.187 142.458 199.142 142.458V144.458C207.813 144.458 214.493 146.926 218.999 151.236C223.501 155.542 225.952 161.799 225.952 169.62H227.952ZM199.142 142.458C189.992 142.458 182.454 145.09 177.2 150.209C171.942 155.333 169.096 162.826 169.096 172.298H171.096C171.096 163.23 173.812 156.303 178.596 151.642C183.384 146.976 190.369 144.458 199.142 144.458V142.458ZM169.096 172.298V189.602H171.096V172.298H169.096ZM169.096 189.602C169.096 199.088 172.104 206.565 177.106 211.674C182.106 216.782 189.019 219.442 196.67 219.442V217.442C189.489 217.442 183.114 214.952 178.535 210.275C173.958 205.599 171.096 198.656 171.096 189.602H169.096ZM233.967 217L233 216.746L232.67 218H233.967V217ZM247.975 217V218H248.758L248.946 217.24L247.975 217ZM251.889 201.138V200.138H251.106L250.918 200.898L251.889 201.138ZM277.639 201.138L278.61 200.898L278.422 200.138H277.639V201.138ZM281.553 217L280.582 217.24L280.77 218H281.553V217ZM295.561 217V218H296.858L296.528 216.746L295.561 217ZM276.609 144.9L277.576 144.646L277.38 143.9H276.609V144.9ZM252.919 144.9V143.9H252.148L251.952 144.646L252.919 144.9ZM255.082 188.572L254.112 188.33L253.802 189.572H255.082V188.572ZM263.837 153.449V152.449H263.056L262.867 153.207L263.837 153.449ZM265.691 153.449L266.661 153.207L266.472 152.449H265.691V153.449ZM274.446 188.572V189.572H275.726L275.416 188.33L274.446 188.572ZM233.967 218H247.975V216H233.967V218ZM248.946 217.24L252.86 201.378L250.918 200.898L247.004 216.76L248.946 217.24ZM251.889 202.138H277.639V200.138H251.889V202.138ZM276.668 201.378L280.582 217.24L282.524 216.76L278.61 200.898L276.668 201.378ZM281.553 218H295.561V216H281.553V218ZM296.528 216.746L277.576 144.646L275.642 145.154L294.594 217.254L296.528 216.746ZM276.609 143.9H252.919V145.9H276.609V143.9ZM251.952 144.646L233 216.746L234.934 217.254L253.886 145.154L251.952 144.646ZM256.052 188.814L264.807 153.691L262.867 153.207L254.112 188.33L256.052 188.814ZM263.837 154.449H265.691V152.449H263.837V154.449ZM264.721 153.691L273.476 188.814L275.416 188.33L266.661 153.207L264.721 153.691ZM274.446 187.572H255.082V189.572H274.446V187.572ZM301.101 217H300.101V218H301.101V217ZM351.159 217V218H352.159V217H351.159ZM351.159 204.846H352.159V203.846H351.159V204.846ZM315.315 204.846H314.315V205.846H315.315V204.846ZM315.315 203.198L314.561 202.542L314.315 202.824V203.198H315.315ZM350.953 162.204L351.708 162.86L351.953 162.578V162.204H350.953ZM350.953 144.9H351.953V143.9H350.953V144.9ZM302.131 144.9V143.9H301.131V144.9H302.131ZM302.131 157.054H301.131V158.054H302.131V157.054ZM336.739 157.054H337.739V156.054H336.739V157.054ZM336.739 158.702L337.494 159.358L337.739 159.076V158.702H336.739ZM301.101 199.696L300.347 199.04L300.101 199.322V199.696H301.101ZM301.101 218H351.159V216H301.101V218ZM352.159 217V204.846H350.159V217H352.159ZM351.159 203.846H315.315V205.846H351.159V203.846ZM316.315 204.846V203.198H314.315V204.846H316.315ZM316.07 203.854L351.708 162.86L350.199 161.548L314.561 202.542L316.07 203.854ZM351.953 162.204V144.9H349.953V162.204H351.953ZM350.953 143.9H302.131V145.9H350.953V143.9ZM301.131 144.9V157.054H303.131V144.9H301.131ZM302.131 158.054H336.739V156.054H302.131V158.054ZM335.739 157.054V158.702H337.739V157.054H335.739ZM335.985 158.046L300.347 199.04L301.856 200.352L337.494 159.358L335.985 158.046ZM300.101 199.696V217H302.101V199.696H300.101ZM361.477 217H360.477V218H361.477V217ZM375.073 217V218H376.073V217H375.073ZM375.073 144.9H376.073V143.9H375.073V144.9ZM361.477 144.9V143.9H360.477V144.9H361.477ZM361.477 218H375.073V216H361.477V218ZM376.073 217V144.9H374.073V217H376.073ZM375.073 143.9H361.477V145.9H375.073V143.9ZM360.477 144.9V217H362.477V144.9H360.477ZM387.605 217H386.605V218H387.605V217ZM400.995 217V218H401.995V217H400.995ZM400.995 154.17V153.17H399.995V154.17H400.995ZM402.849 154.17L403.824 153.948L403.647 153.17H402.849V154.17ZM417.166 217L416.191 217.222L416.369 218H417.166V217ZM443.019 217V218H444.019V217H443.019ZM443.019 144.9H444.019V143.9H443.019V144.9ZM429.629 144.9V143.9H428.629V144.9H429.629ZM429.629 207.73V208.73H430.629V207.73H429.629ZM427.775 207.73L426.8 207.952L426.978 208.73H427.775V207.73ZM413.458 144.9L414.433 144.678L414.256 143.9H413.458V144.9ZM387.605 144.9V143.9H386.605V144.9H387.605ZM387.605 218H400.995V216H387.605V218ZM401.995 217V154.17H399.995V217H401.995ZM400.995 155.17H402.849V153.17H400.995V155.17ZM401.874 154.392L416.191 217.222L418.141 216.778L403.824 153.948L401.874 154.392ZM417.166 218H443.019V216H417.166V218ZM444.019 217V144.9H442.019V217H444.019ZM443.019 143.9H429.629V145.9H443.019V143.9ZM428.629 144.9V207.73H430.629V144.9H428.629ZM429.629 206.73H427.775V208.73H429.629V206.73ZM428.75 207.508L414.433 144.678L412.483 145.122L426.8 207.952L428.75 207.508ZM413.458 143.9H387.605V145.9H413.458V143.9ZM386.605 144.9V217H388.605V144.9H386.605ZM455.577 217H454.577V218H455.577V217ZM502.545 217V218H503.545V217H502.545ZM502.545 204.64H503.545V203.64H502.545V204.64ZM469.173 204.64H468.173V205.64H469.173V204.64ZM469.173 186.821V185.821H468.173V186.821H469.173ZM499.043 186.821V187.821H500.043V186.821H499.043ZM499.043 174.461H500.043V173.461H499.043V174.461ZM469.173 174.461H468.173V175.461H469.173V174.461ZM469.173 157.26V156.26H468.173V157.26H469.173ZM501.927 157.26V158.26H502.927V157.26H501.927ZM501.927 144.9H502.927V143.9H501.927V144.9ZM455.577 144.9V143.9H454.577V144.9H455.577ZM455.577 218H502.545V216H455.577V218ZM503.545 217V204.64H501.545V217H503.545ZM502.545 203.64H469.173V205.64H502.545V203.64ZM470.173 204.64V186.821H468.173V204.64H470.173ZM469.173 187.821H499.043V185.821H469.173V187.821ZM500.043 186.821V174.461H498.043V186.821H500.043ZM499.043 173.461H469.173V175.461H499.043V173.461ZM470.173 174.461V157.26H468.173V174.461H470.173ZM469.173 158.26H501.927V156.26H469.173V158.26ZM502.927 157.26V144.9H500.927V157.26H502.927ZM501.927 143.9H455.577V145.9H501.927V143.9ZM454.577 144.9V217H456.577V144.9H454.577Z" fill="#BCD63F"/>
</g>
<mask id="mask1_553_22058" style="mask-type:alpha" maskUnits="userSpaceOnUse" x="0" y="197" width="517" height="32">
<rect x="1" y="197.5" width="515" height="31" fill="#D9D9D9" stroke="#BCD63F"/>
</mask>
<g mask="url(#mask1_553_22058)">
<path d="M18.298 276H17.298V277H18.298V276ZM31.482 276V277H32.482V276H31.482ZM31.482 213.891V212.891H30.482V213.891H31.482ZM33.336 213.891L34.3168 213.696L34.1566 212.891H33.336V213.891ZM45.696 276L44.7152 276.195L44.8754 277H45.696V276ZM68.15 276V277H68.9706L69.1308 276.195L68.15 276ZM80.51 213.891V212.891H79.6894L79.5292 213.696L80.51 213.891ZM82.364 213.891H83.364V212.891H82.364V213.891ZM82.364 276H81.364V277H82.364V276ZM95.548 276V277H96.548V276H95.548ZM95.548 203.9H96.548V202.9H95.548V203.9ZM70.313 203.9V202.9H69.4919L69.3321 203.705L70.313 203.9ZM57.85 266.73V267.73H58.6711L58.8309 266.925L57.85 266.73ZM55.996 266.73L55.0151 266.925L55.1749 267.73H55.996V266.73ZM43.533 203.9L44.5139 203.705L44.3541 202.9H43.533V203.9ZM18.298 203.9V202.9H17.298V203.9H18.298ZM18.298 277H31.482V275H18.298V277ZM32.482 276V213.891H30.482V276H32.482ZM31.482 214.891H33.336V212.891H31.482V214.891ZM32.3552 214.086L44.7152 276.195L46.6768 275.805L34.3168 213.696L32.3552 214.086ZM45.696 277H68.15V275H45.696V277ZM69.1308 276.195L81.4908 214.086L79.5292 213.696L67.1692 275.805L69.1308 276.195ZM80.51 214.891H82.364V212.891H80.51V214.891ZM81.364 213.891V276H83.364V213.891H81.364ZM82.364 277H95.548V275H82.364V277ZM96.548 276V203.9H94.548V276H96.548ZM95.548 202.9H70.313V204.9H95.548V202.9ZM69.3321 203.705L56.8691 266.535L58.8309 266.925L71.2939 204.095L69.3321 203.705ZM57.85 265.73H55.996V267.73H57.85V265.73ZM56.9769 266.535L44.5139 203.705L42.5521 204.095L55.0151 266.925L56.9769 266.535ZM43.533 202.9H18.298V204.9H43.533V202.9ZM17.298 203.9V276H19.298V203.9H17.298ZM103.153 276L102.186 275.746L101.856 277H103.153V276ZM117.161 276V277H117.944L118.132 276.24L117.161 276ZM121.075 260.138V259.138H120.292L120.104 259.898L121.075 260.138ZM146.825 260.138L147.796 259.898L147.608 259.138H146.825V260.138ZM150.739 276L149.768 276.24L149.956 277H150.739V276ZM164.747 276V277H166.044L165.714 275.746L164.747 276ZM145.795 203.9L146.762 203.646L146.566 202.9H145.795V203.9ZM122.105 203.9V202.9H121.334L121.138 203.646L122.105 203.9ZM124.268 247.572L123.298 247.33L122.988 248.572H124.268V247.572ZM133.023 212.449V211.449H132.242L132.053 212.207L133.023 212.449ZM134.877 212.449L135.847 212.207L135.658 211.449H134.877V212.449ZM143.632 247.572V248.572H144.912L144.602 247.33L143.632 247.572ZM103.153 277H117.161V275H103.153V277ZM118.132 276.24L122.046 260.378L120.104 259.898L116.19 275.76L118.132 276.24ZM121.075 261.138H146.825V259.138H121.075V261.138ZM145.854 260.378L149.768 276.24L151.71 275.76L147.796 259.898L145.854 260.378ZM150.739 277H164.747V275H150.739V277ZM165.714 275.746L146.762 203.646L144.828 204.154L163.78 276.254L165.714 275.746ZM145.795 202.9H122.105V204.9H145.795V202.9ZM121.138 203.646L102.186 275.746L104.12 276.254L123.072 204.154L121.138 203.646ZM125.238 247.814L133.993 212.691L132.053 212.207L123.298 247.33L125.238 247.814ZM133.023 213.449H134.877V211.449H133.023V213.449ZM133.907 212.691L142.662 247.814L144.602 247.33L135.847 212.207L133.907 212.691ZM143.632 246.572H124.268V248.572H143.632V246.572ZM212.532 269.099V268.099H211.862L211.607 268.718L212.532 269.099ZM214.386 269.099H215.386V268.099H214.386V269.099ZM214.386 276H213.386V277H214.386V276ZM226.952 276V277H227.952V276H226.952ZM226.952 239.126H227.952V238.126H226.952V239.126ZM196.464 239.126V238.126H195.464V239.126H196.464ZM196.464 250.662H195.464V251.662H196.464V250.662ZM213.562 250.662H214.562V249.662H213.562V250.662ZM213.562 229.032H212.562V230.032H213.562V229.032ZM226.952 229.032V230.032H227.952V229.032H226.952ZM196.67 278.442C202.376 278.442 206.195 277.199 208.799 275.408C211.408 273.612 212.692 271.337 213.457 269.48L211.607 268.718C210.93 270.363 209.845 272.259 207.665 273.76C205.479 275.264 202.088 276.442 196.67 276.442V278.442ZM212.532 270.099H214.386V268.099H212.532V270.099ZM213.386 269.099V276H215.386V269.099H213.386ZM214.386 277H226.952V275H214.386V277ZM227.952 276V239.126H225.952V276H227.952ZM226.952 238.126H196.464V240.126H226.952V238.126ZM195.464 239.126V250.662H197.464V239.126H195.464ZM196.464 251.662H213.562V249.662H196.464V251.662ZM212.562 250.662V251.692H214.562V250.662H212.562ZM212.562 251.692C212.562 255.539 211.527 258.711 209.437 260.918C207.356 263.114 204.096 264.494 199.348 264.494V266.494C204.488 266.494 208.335 264.99 210.889 262.293C213.433 259.608 214.562 255.879 214.562 251.692H212.562ZM199.348 264.494C194.636 264.494 191.006 262.931 188.548 260.259C186.079 257.577 184.692 253.669 184.692 248.808H182.692C182.692 254.041 184.189 258.476 187.076 261.613C189.973 264.761 194.172 266.494 199.348 266.494V264.494ZM184.692 248.808V231.092H182.692V248.808H184.692ZM184.692 231.092C184.692 226.231 186.079 222.377 188.519 219.747C190.951 217.126 194.529 215.612 199.142 215.612V213.612C194.072 213.612 189.926 215.291 187.053 218.387C184.189 221.473 182.692 225.859 182.692 231.092H184.692ZM199.142 215.612C203.772 215.612 207.098 217.035 209.268 219.251C211.444 221.474 212.562 224.602 212.562 228.208H214.562C214.562 224.192 213.311 220.522 210.697 217.852C208.077 215.176 204.194 213.612 199.142 213.612V215.612ZM212.562 228.208V229.032H214.562V228.208H212.562ZM213.562 230.032H226.952V228.032H213.562V230.032ZM227.952 229.032V228.62H225.952V229.032H227.952ZM227.952 228.62C227.952 220.373 225.356 213.549 220.382 208.791C215.412 204.037 208.187 201.458 199.142 201.458V203.458C207.813 203.458 214.493 205.926 218.999 210.236C223.501 214.542 225.952 220.799 225.952 228.62H227.952ZM199.142 201.458C189.992 201.458 182.454 204.09 177.2 209.209C171.942 214.333 169.096 221.826 169.096 231.298H171.096C171.096 222.23 173.812 215.303 178.596 210.642C183.384 205.976 190.369 203.458 199.142 203.458V201.458ZM169.096 231.298V248.602H171.096V231.298H169.096ZM169.096 248.602C169.096 258.088 172.104 265.565 177.106 270.674C182.106 275.782 189.019 278.442 196.67 278.442V276.442C189.489 276.442 183.114 273.952 178.535 269.275C173.958 264.599 171.096 257.656 171.096 248.602H169.096ZM233.967 276L233 275.746L232.67 277H233.967V276ZM247.975 276V277H248.758L248.946 276.24L247.975 276ZM251.889 260.138V259.138H251.106L250.918 259.898L251.889 260.138ZM277.639 260.138L278.61 259.898L278.422 259.138H277.639V260.138ZM281.553 276L280.582 276.24L280.77 277H281.553V276ZM295.561 276V277H296.858L296.528 275.746L295.561 276ZM276.609 203.9L277.576 203.646L277.38 202.9H276.609V203.9ZM252.919 203.9V202.9H252.148L251.952 203.646L252.919 203.9ZM255.082 247.572L254.112 247.33L253.802 248.572H255.082V247.572ZM263.837 212.449V211.449H263.056L262.867 212.207L263.837 212.449ZM265.691 212.449L266.661 212.207L266.472 211.449H265.691V212.449ZM274.446 247.572V248.572H275.726L275.416 247.33L274.446 247.572ZM233.967 277H247.975V275H233.967V277ZM248.946 276.24L252.86 260.378L250.918 259.898L247.004 275.76L248.946 276.24ZM251.889 261.138H277.639V259.138H251.889V261.138ZM276.668 260.378L280.582 276.24L282.524 275.76L278.61 259.898L276.668 260.378ZM281.553 277H295.561V275H281.553V277ZM296.528 275.746L277.576 203.646L275.642 204.154L294.594 276.254L296.528 275.746ZM276.609 202.9H252.919V204.9H276.609V202.9ZM251.952 203.646L233 275.746L234.934 276.254L253.886 204.154L251.952 203.646ZM256.052 247.814L264.807 212.691L262.867 212.207L254.112 247.33L256.052 247.814ZM263.837 213.449H265.691V211.449H263.837V213.449ZM264.721 212.691L273.476 247.814L275.416 247.33L266.661 212.207L264.721 212.691ZM274.446 246.572H255.082V248.572H274.446V246.572ZM301.101 276H300.101V277H301.101V276ZM351.159 276V277H352.159V276H351.159ZM351.159 263.846H352.159V262.846H351.159V263.846ZM315.315 263.846H314.315V264.846H315.315V263.846ZM315.315 262.198L314.561 261.542L314.315 261.824V262.198H315.315ZM350.953 221.204L351.708 221.86L351.953 221.578V221.204H350.953ZM350.953 203.9H351.953V202.9H350.953V203.9ZM302.131 203.9V202.9H301.131V203.9H302.131ZM302.131 216.054H301.131V217.054H302.131V216.054ZM336.739 216.054H337.739V215.054H336.739V216.054ZM336.739 217.702L337.494 218.358L337.739 218.076V217.702H336.739ZM301.101 258.696L300.347 258.04L300.101 258.322V258.696H301.101ZM301.101 277H351.159V275H301.101V277ZM352.159 276V263.846H350.159V276H352.159ZM351.159 262.846H315.315V264.846H351.159V262.846ZM316.315 263.846V262.198H314.315V263.846H316.315ZM316.07 262.854L351.708 221.86L350.199 220.548L314.561 261.542L316.07 262.854ZM351.953 221.204V203.9H349.953V221.204H351.953ZM350.953 202.9H302.131V204.9H350.953V202.9ZM301.131 203.9V216.054H303.131V203.9H301.131ZM302.131 217.054H336.739V215.054H302.131V217.054ZM335.739 216.054V217.702H337.739V216.054H335.739ZM335.985 217.046L300.347 258.04L301.856 259.352L337.494 218.358L335.985 217.046ZM300.101 258.696V276H302.101V258.696H300.101ZM361.477 276H360.477V277H361.477V276ZM375.073 276V277H376.073V276H375.073ZM375.073 203.9H376.073V202.9H375.073V203.9ZM361.477 203.9V202.9H360.477V203.9H361.477ZM361.477 277H375.073V275H361.477V277ZM376.073 276V203.9H374.073V276H376.073ZM375.073 202.9H361.477V204.9H375.073V202.9ZM360.477 203.9V276H362.477V203.9H360.477ZM387.605 276H386.605V277H387.605V276ZM400.995 276V277H401.995V276H400.995ZM400.995 213.17V212.17H399.995V213.17H400.995ZM402.849 213.17L403.824 212.948L403.647 212.17H402.849V213.17ZM417.166 276L416.191 276.222L416.369 277H417.166V276ZM443.019 276V277H444.019V276H443.019ZM443.019 203.9H444.019V202.9H443.019V203.9ZM429.629 203.9V202.9H428.629V203.9H429.629ZM429.629 266.73V267.73H430.629V266.73H429.629ZM427.775 266.73L426.8 266.952L426.978 267.73H427.775V266.73ZM413.458 203.9L414.433 203.678L414.256 202.9H413.458V203.9ZM387.605 203.9V202.9H386.605V203.9H387.605ZM387.605 277H400.995V275H387.605V277ZM401.995 276V213.17H399.995V276H401.995ZM400.995 214.17H402.849V212.17H400.995V214.17ZM401.874 213.392L416.191 276.222L418.141 275.778L403.824 212.948L401.874 213.392ZM417.166 277H443.019V275H417.166V277ZM444.019 276V203.9H442.019V276H444.019ZM443.019 202.9H429.629V204.9H443.019V202.9ZM428.629 203.9V266.73H430.629V203.9H428.629ZM429.629 265.73H427.775V267.73H429.629V265.73ZM428.75 266.508L414.433 203.678L412.483 204.122L426.8 266.952L428.75 266.508ZM413.458 202.9H387.605V204.9H413.458V202.9ZM386.605 203.9V276H388.605V203.9H386.605ZM455.577 276H454.577V277H455.577V276ZM502.545 276V277H503.545V276H502.545ZM502.545 263.64H503.545V262.64H502.545V263.64ZM469.173 263.64H468.173V264.64H469.173V263.64ZM469.173 245.821V244.821H468.173V245.821H469.173ZM499.043 245.821V246.821H500.043V245.821H499.043ZM499.043 233.461H500.043V232.461H499.043V233.461ZM469.173 233.461H468.173V234.461H469.173V233.461ZM469.173 216.26V215.26H468.173V216.26H469.173ZM501.927 216.26V217.26H502.927V216.26H501.927ZM501.927 203.9H502.927V202.9H501.927V203.9ZM455.577 203.9V202.9H454.577V203.9H455.577ZM455.577 277H502.545V275H455.577V277ZM503.545 276V263.64H501.545V276H503.545ZM502.545 262.64H469.173V264.64H502.545V262.64ZM470.173 263.64V245.821H468.173V263.64H470.173ZM469.173 246.821H499.043V244.821H469.173V246.821ZM500.043 245.821V233.461H498.043V245.821H500.043ZM499.043 232.461H469.173V234.461H499.043V232.461ZM470.173 233.461V216.26H468.173V233.461H470.173ZM469.173 217.26H501.927V215.26H469.173V217.26ZM502.927 216.26V203.9H500.927V216.26H502.927ZM501.927 202.9H455.577V204.9H501.927V202.9ZM454.577 203.9V276H456.577V203.9H454.577Z" fill="#BCD63F"/>
</g>
</svg>
