<svg width="37" height="37" viewBox="0 0 37 37" fill="none" xmlns="http://www.w3.org/2000/svg">
<path d="M31.9953 23.9095C31.8462 24.0515 31.7191 24.2317 31.5423 24.3246C28.4759 26.0013 25.404 27.6616 22.332 29.3328C22.0502 29.4857 21.8127 29.4803 21.5309 29.3273C18.4534 27.6506 15.376 25.9794 12.293 24.3137C12.0002 24.1553 11.8565 23.9477 11.8731 23.6146C11.8897 23.3087 11.8786 22.9974 11.8786 22.6479C11.7681 22.6479 11.6742 22.6479 11.5747 22.6479C10.1824 22.6479 8.79564 22.6479 7.40333 22.6479C7.2873 22.6479 7.16023 22.6424 7.04973 22.6042C6.80662 22.5277 6.66297 22.2984 6.68507 22.0581C6.70717 21.8068 6.90055 21.5993 7.16023 21.5665C7.25968 21.5556 7.36466 21.5611 7.46411 21.5611C8.9172 21.5611 10.3703 21.5611 11.851 21.5611C11.851 20.6217 11.851 19.6878 11.851 18.7211C11.7626 18.7211 11.6631 18.7211 11.5637 18.7211C10.6244 18.7211 9.68518 18.7211 8.74592 18.7211C8.48072 18.7211 8.27629 18.6064 8.18789 18.3551C8.11606 18.1421 8.13816 17.9182 8.33154 17.7871C8.46414 17.6943 8.65199 17.6397 8.81222 17.6397C9.81778 17.6288 10.8178 17.6342 11.8455 17.6342C11.8455 16.9843 11.8455 16.3453 11.8455 15.6681C11.746 15.6681 11.641 15.6681 11.5305 15.6681C9.58573 15.6681 7.64643 15.6681 5.70161 15.6681C5.60769 15.6681 5.51376 15.6735 5.42536 15.6626C5.12701 15.6189 4.93363 15.3841 4.95021 15.0892C4.96126 14.8106 5.17121 14.5976 5.46404 14.5812C5.67399 14.5703 5.88947 14.5758 6.09942 14.5758C7.91164 14.5758 9.72938 14.5758 11.5416 14.5758C11.641 14.5758 11.7405 14.5758 11.8676 14.5758C11.8676 14.2153 11.8731 13.8822 11.8676 13.549C11.862 13.2596 11.9836 13.0739 12.2378 12.9319C15.3539 11.2443 18.459 9.5621 21.5585 7.86904C21.8182 7.72704 22.0502 7.72157 22.3099 7.86357C25.4095 9.55118 28.5146 11.2333 31.6141 12.9264C31.7578 13.0029 31.8683 13.1503 31.9953 13.2596C31.9953 14.5539 31.9953 15.8428 31.9953 17.1372C31.7357 17.4595 31.5202 17.5523 31.2605 17.4595C31.0008 17.3721 30.8903 17.1645 30.8903 16.744C30.8903 16.0722 30.8903 15.395 30.8903 14.7232C30.8903 14.6195 30.8903 14.5157 30.8903 14.3737C30.0339 14.8379 29.2273 15.2694 28.4317 15.7172C28.3599 15.7609 28.3101 15.9084 28.3101 16.0067C28.2991 16.8696 28.2991 17.738 28.3046 18.6009C28.3046 18.8412 28.2328 19.0324 28.0173 19.1525C27.3432 19.5239 26.6692 19.8953 25.9841 20.2558C25.5973 20.4578 25.1995 20.2284 25.1664 19.797C25.1498 19.5894 25.1609 19.3764 25.1609 19.1689C25.1609 18.6282 25.1609 18.0821 25.1609 17.5031C25.0338 17.5632 24.9398 17.6069 24.857 17.6506C24.1498 18.0329 23.4426 18.4261 22.7298 18.803C22.5475 18.8958 22.4923 19.0051 22.4923 19.2017C22.4978 22.0307 22.4978 24.8598 22.4978 27.6889C22.4978 27.7763 22.4978 27.8636 22.4978 27.9838C22.5807 27.951 22.6304 27.9292 22.6746 27.9073C25.3598 26.4491 28.0449 24.9963 30.7191 23.5327C30.8075 23.4835 30.8848 23.3415 30.8848 23.2432C30.9014 22.6151 30.8903 21.9871 30.8959 21.359C30.8959 21.075 31.0561 20.862 31.2937 20.8019C31.5589 20.7309 31.7799 20.8292 31.9456 21.0914C31.9622 21.1241 31.9843 21.1514 32.0009 21.1842C31.9953 22.0908 31.9953 22.9974 31.9953 23.9095ZM21.3872 28.0002C21.3872 27.8582 21.3872 27.7653 21.3872 27.678C21.3872 24.8653 21.3817 22.0581 21.3928 19.2454C21.3928 19.016 21.332 18.8958 21.122 18.7811C18.4921 17.3666 15.8677 15.9357 13.2378 14.5102C13.166 14.472 13.0941 14.4392 13.0002 14.3955C12.9947 14.4829 12.9892 14.543 12.9892 14.6085C12.9892 17.4813 12.9892 20.3595 12.9836 23.2323C12.9836 23.407 13.0499 23.4835 13.1936 23.5654C15.0997 24.5813 17.0003 25.619 18.901 26.6457C19.7131 27.0881 20.5253 27.5305 21.3872 28.0002ZM13.5859 13.4452C14.05 13.6965 14.4754 13.9313 14.9008 14.1607C17.1716 15.395 19.4424 16.6293 21.7132 17.8581C21.8071 17.9073 21.9563 17.9619 22.0337 17.9237C22.868 17.4868 23.6967 17.0335 24.5586 16.5638C24.2989 16.4218 24.0669 16.2907 23.8348 16.1651C21.3707 14.827 18.9065 13.4889 16.4368 12.1563C16.3373 12.1017 16.1771 12.058 16.0942 12.0962C15.271 12.5277 14.4533 12.981 13.5859 13.4452ZM30.2881 13.4507C30.1444 13.3688 30.0229 13.3032 29.9069 13.2377C27.3267 11.8396 24.7465 10.4359 22.1663 9.04326C22.0723 8.99411 21.9176 8.93949 21.8458 8.97772C21.0447 9.39826 20.2491 9.83518 19.4203 10.2885C19.9176 10.5616 20.3817 10.8128 20.8458 11.064C23.0779 12.2765 25.31 13.4889 27.5477 14.6959C27.6416 14.7451 27.7908 14.7997 27.8681 14.756C28.6693 14.3355 29.4649 13.8985 30.2881 13.4507ZM26.5863 15.4278C26.0283 15.1274 25.4924 14.8325 24.9564 14.543C22.7961 13.3688 20.6358 12.2 18.4755 11.0313C18.3927 10.9876 18.2601 10.9384 18.1827 10.9712C17.9175 11.0913 17.6689 11.2388 17.3816 11.3972C17.4976 11.4682 17.5805 11.5173 17.6689 11.5665C20.0999 12.8882 22.5365 14.2099 24.9675 15.5315C25.7576 15.963 25.7576 15.963 26.52 15.4988C26.5311 15.4878 26.5421 15.4715 26.5863 15.4278ZM27.1941 16.3781C26.9068 16.5365 26.6581 16.6512 26.4316 16.7986C26.3487 16.8532 26.2714 16.9734 26.2714 17.0662C26.2548 17.5632 26.2659 18.0657 26.2659 18.5627C26.2659 18.6446 26.2659 18.7265 26.2659 18.8521C26.5753 18.6883 26.8294 18.5627 27.067 18.4152C27.1278 18.377 27.1885 18.2787 27.1885 18.2022C27.1996 17.6178 27.1941 17.028 27.1941 16.3781Z" fill="#161617"/>
<path d="M3.70703 21.9438C3.86173 21.6434 4.11036 21.5232 4.45291 21.556C4.66287 21.5724 4.87282 21.5506 5.08829 21.5669C5.38112 21.5833 5.58555 21.7963 5.5966 22.0749C5.61317 22.3698 5.4198 22.621 5.12144 22.6429C4.81204 22.6647 4.49159 22.692 4.18771 22.6319C4.01091 22.5992 3.86726 22.4025 3.70703 22.2769C3.70703 22.1622 3.70703 22.053 3.70703 21.9438Z" fill="#161617"/>
<path d="M31.9953 19.3215C31.9566 19.3707 31.9179 19.4144 31.8793 19.4635C31.6638 19.7202 31.2881 19.7475 31.056 19.5182C30.824 19.2942 30.835 18.9338 31.0781 18.7262C31.3212 18.5132 31.6969 18.5624 31.8958 18.8355C31.9345 18.8846 31.9621 18.9447 31.9953 18.9993C31.9953 19.1031 31.9953 19.2123 31.9953 19.3215Z" fill="#161617"/>
<path d="M5.96094 18.1641C5.96094 17.8638 6.19851 17.6289 6.50239 17.6289C6.80075 17.6289 7.04937 17.8692 7.0549 18.1587C7.06042 18.4591 6.79522 18.7212 6.49134 18.7157C6.19851 18.7103 5.96094 18.4645 5.96094 18.1641Z" fill="#161617"/>
</svg>
