<svg width="30" height="31" viewBox="0 0 30 31" fill="none" xmlns="http://www.w3.org/2000/svg">
<path fill-rule="evenodd" clip-rule="evenodd" d="M15 27.7151C21.9036 27.7151 27.5 22.1186 27.5 15.2151C27.5 8.31153 21.9036 2.71509 15 2.71509C8.09644 2.71509 2.5 8.31153 2.5 15.2151C2.5 22.1186 8.09644 27.7151 15 27.7151ZM18.0305 9.10988C17.2396 9.0738 17.0024 9.06615 14.9998 9.06615C12.9972 9.06615 12.76 9.0738 11.9692 9.10988C11.2379 9.14323 10.8408 9.26541 10.5765 9.36812C10.2265 9.50417 9.97662 9.6667 9.71418 9.92916C9.45172 10.1916 9.2892 10.4414 9.15314 10.7915C9.05043 11.0558 8.92825 11.4529 8.89491 12.1841C8.85882 12.975 8.85117 13.2122 8.85117 15.2148C8.85117 17.2174 8.85882 17.4546 8.89491 18.2454C8.92825 18.9767 9.05043 19.3738 9.15314 19.6381C9.2892 19.9881 9.45175 20.238 9.71418 20.5004C9.97662 20.7629 10.2265 20.9254 10.5765 21.0614C10.8408 21.1642 11.2379 21.2863 11.9692 21.3197C12.7599 21.3558 12.9971 21.3634 14.9998 21.3634C17.0026 21.3634 17.2397 21.3558 18.0305 21.3197C18.7617 21.2863 19.1588 21.1642 19.4231 21.0614C19.7732 20.9254 20.023 20.7629 20.2855 20.5004C20.5479 20.238 20.7105 19.9881 20.8465 19.6381C20.9492 19.3738 21.0714 18.9767 21.1047 18.2454C21.1408 17.4546 21.1485 17.2174 21.1485 15.2148C21.1485 13.2122 21.1408 12.975 21.1047 12.1841C21.0714 11.4529 20.9492 11.0558 20.8465 10.7915C20.7105 10.4414 20.5479 10.1916 20.2855 9.92913C20.023 9.6667 19.7732 9.50417 19.4231 9.36812C19.1588 9.26541 18.7617 9.14323 18.0305 9.10988ZM11.9076 7.75994C12.7075 7.72344 12.9629 7.71481 14.9998 7.71481C17.0367 7.71481 17.2921 7.72344 18.0921 7.75994C18.8904 7.79635 19.4356 7.92315 19.9126 8.10853C20.4058 8.3002 20.8241 8.55665 21.241 8.97359C21.658 9.39057 21.9144 9.80882 22.1061 10.302C22.2915 10.7791 22.4183 11.3243 22.4547 12.1226C22.4912 12.9225 22.4998 13.1779 22.4998 15.2148C22.4998 17.2517 22.4912 17.5071 22.4547 18.307C22.4183 19.1053 22.2915 19.6505 22.1061 20.1276C21.9144 20.6207 21.658 21.039 21.241 21.456C20.8241 21.8729 20.4058 22.1294 19.9126 22.321C19.4356 22.5064 18.8904 22.6332 18.0921 22.6696C17.2921 22.7061 17.0367 22.7148 14.9998 22.7148C12.9629 22.7148 12.7075 22.7061 11.9076 22.6696C11.1093 22.6332 10.5641 22.5064 10.087 22.321C9.59385 22.1294 9.17559 21.8729 8.75861 21.456C8.34167 21.039 8.08522 20.6207 7.89358 20.1276C7.70816 19.6505 7.58137 19.1053 7.54496 18.307C7.50846 17.5071 7.49982 17.2517 7.49982 15.2148C7.49982 13.1779 7.50846 12.9225 7.54496 12.1226C7.58137 11.3243 7.70816 10.7791 7.89358 10.302C8.08522 9.80882 8.34167 9.39057 8.75861 8.97359C9.17559 8.55665 9.59385 8.3002 10.087 8.10853C10.5641 7.92315 11.1093 7.79635 11.9076 7.75994ZM15.0031 11.3667C12.8761 11.3667 11.1518 13.091 11.1518 15.2181C11.1518 17.3451 12.8761 19.0694 15.0031 19.0694C17.1302 19.0694 18.8545 17.3451 18.8545 15.2181C18.8545 13.091 17.1302 11.3667 15.0031 11.3667ZM15.0031 17.7181C13.6224 17.7181 12.5031 16.5988 12.5031 15.2181C12.5031 13.8374 13.6224 12.7181 15.0031 12.7181C16.3838 12.7181 17.5031 13.8374 17.5031 15.2181C17.5031 16.5988 16.3838 17.7181 15.0031 17.7181ZM19.0067 12.1122C19.5038 12.1122 19.9068 11.7092 19.9068 11.2122C19.9068 10.7151 19.5038 10.3122 19.0067 10.3122C18.5097 10.3122 18.1067 10.7151 18.1067 11.2122C18.1067 11.7092 18.5097 12.1122 19.0067 12.1122Z" fill="#DADADA"/>
</svg>
