<svg width="126" height="35" viewBox="0 0 126 35" fill="none" xmlns="http://www.w3.org/2000/svg">
<path d="M30.9814 34.7024L126 22.4688C125.994 24.6234 125.083 26.6934 123.457 28.25C121.83 29.8067 119.613 30.7308 117.263 30.8311L30.9814 34.7024Z" fill="#BCD63F"/>
<path d="M0.0150985 22.2712C0.0139263 21.413 0.197186 20.563 0.554421 19.7697C1.27584 18.1584 2.56511 16.8146 4.21689 15.9523C5.03017 15.5228 5.92542 15.2393 6.85465 15.117C7.74174 14.99 8.64831 15.0406 9.51203 15.2652C10.3113 15.477 11.0519 15.843 11.684 16.3385C12.3096 16.8335 12.8112 17.4463 13.1549 18.135C13.5213 18.8767 13.7054 19.6831 13.6942 20.4972V21.7458L10.2328 22.1949V20.9464C10.2349 20.5454 10.1429 20.1487 9.96309 19.7832C9.79459 19.4394 9.54708 19.133 9.23747 18.885C8.92389 18.6411 8.55568 18.4632 8.15883 18.364C7.73388 18.2512 7.28738 18.2236 6.84975 18.2832C6.38502 18.3439 5.93731 18.4857 5.53087 18.7008C5.12848 18.9166 4.76469 19.1877 4.45223 19.5047C4.13402 19.8227 3.8815 20.1909 3.70699 20.5916C3.52936 20.9814 3.43771 21.3997 3.43733 21.8221V27.9839C3.42932 28.3897 3.5215 28.7919 3.70699 29.1605C3.87725 29.5057 4.12833 29.8124 4.44242 30.0587C4.75655 30.3059 5.12411 30.4896 5.52106 30.5977C5.94958 30.7097 6.39944 30.7357 6.83994 30.674C7.30642 30.614 7.75589 30.4722 8.16373 30.2563C8.56605 30.0406 8.92574 29.7643 9.22766 29.439C9.53111 29.116 9.77609 28.7506 9.95329 28.3566C10.1315 27.9622 10.2231 27.5395 10.2229 27.1126L13.6844 26.6635C13.6847 27.5259 13.5015 28.3802 13.1451 29.1785C12.438 30.7849 11.1573 32.1243 9.51203 32.9779C8.68895 33.4134 7.78152 33.6986 6.83994 33.8177C5.9497 33.9467 5.03945 33.8962 4.17276 33.6695C3.37359 33.4705 2.63287 33.1109 2.00443 32.6168C1.37599 32.1228 0.875623 31.5066 0.539706 30.8132C0.174349 30.0664 -0.0096564 29.2558 0.000390335 28.4375L0.0150985 22.2712Z" fill="white"/>
<path d="M14.9834 26.4929V20.3311C14.9806 19.4685 15.1639 18.6138 15.5227 17.8161C15.8744 17.0188 16.3718 16.2823 16.9936 15.638C17.6145 14.9911 18.3485 14.4432 19.1655 14.0167C19.9877 13.5829 20.8932 13.2978 21.8327 13.1769C22.7202 13.0512 23.6268 13.1033 24.4901 13.3296C25.2883 13.5369 26.0278 13.9004 26.6576 14.3951C27.2874 14.8898 27.7925 15.5039 28.1379 16.1949C28.5043 16.9366 28.6884 17.7431 28.6772 18.5572V24.7234C28.6775 25.5844 28.4943 26.4372 28.1379 27.2339C27.7855 28.0322 27.2882 28.7702 26.667 29.4166C26.0461 30.0635 25.3121 30.6114 24.495 31.0378C23.6722 31.4703 22.767 31.7553 21.8278 31.8777C20.9373 32.0014 20.0283 31.9509 19.1606 31.7295C18.3617 31.5237 17.6208 31.1622 16.9887 30.6696C16.3599 30.1773 15.8576 29.5639 15.5178 28.8731C15.1501 28.1256 14.9676 27.3127 14.9834 26.4929ZM18.4154 19.8865V26.0483C18.4102 26.4538 18.5022 26.8555 18.6851 27.2249C18.8593 27.5691 19.1117 27.8754 19.4254 28.1231C19.7408 28.3676 20.1081 28.5496 20.504 28.6576C20.9321 28.7719 21.3825 28.798 21.8229 28.7339C22.2879 28.674 22.7357 28.5321 23.1418 28.3162C23.5444 28.1009 23.9055 27.8262 24.2106 27.5034C24.5104 27.1788 24.7535 26.8137 24.9314 26.421C25.1109 26.027 25.2026 25.604 25.201 25.177V19.0063C25.2061 18.6065 25.114 18.2107 24.9314 17.8476C24.7642 17.5043 24.5184 17.198 24.2106 16.9494C23.8981 16.7081 23.5341 16.5291 23.1418 16.4239C22.713 16.3132 22.2631 16.2887 21.8229 16.3521C21.3635 16.4127 20.9209 16.5529 20.5187 16.7652C20.1112 16.9799 19.7424 17.2511 19.4254 17.5691C19.1119 17.8895 18.8614 18.2572 18.6851 18.656C18.5097 19.0465 18.4182 19.4643 18.4154 19.8865Z" fill="white"/>
<path d="M41.6063 25.9045V29.0797L30.6729 30.4989V12.2921L34.1049 11.843V26.8791L41.6063 25.9045Z" fill="white"/>
<path d="M53.8437 24.3191V27.4898L42.8857 28.9135V10.7112L46.3178 10.2621V25.2937L53.8437 24.3191Z" fill="white"/>
<path d="M66.082 10.8504L58.5561 11.8249V15.9343L65.3417 15.0361V18.2067L58.5561 19.105V23.7083L66.082 22.7337V25.9044L55.124 27.3281V9.12133L66.082 7.70215V10.8504Z" fill="white"/>
<path d="M67.4981 13.5271C67.4969 12.6689 67.6801 11.8189 68.0374 11.0256C68.7588 9.41431 70.0481 8.07049 71.6998 7.20817C72.5137 6.77533 73.4109 6.49019 74.3425 6.36834C75.2283 6.24279 76.1333 6.29489 76.995 6.52104C77.7936 6.73205 78.534 7.09642 79.167 7.58991C79.7934 8.08415 80.2953 8.69708 80.6379 9.38634C81.0071 10.1273 81.1913 10.9343 81.1772 11.7486V12.9971L77.7157 13.4463V12.1977C77.7202 11.7966 77.6281 11.3994 77.4461 11.0346C77.2789 10.6901 77.0312 10.3835 76.7204 10.1363C76.4059 9.89273 76.0381 9.71358 75.6418 9.61089C75.2177 9.50202 74.7734 9.476 74.3376 9.53454C73.8727 9.5945 73.4248 9.73633 73.0187 9.95221C72.614 10.1667 72.2484 10.438 71.9352 10.7561C71.6249 11.0762 71.3763 11.4421 71.1998 11.8385C71.0226 12.2285 70.931 12.6466 70.9301 13.069V19.2442C70.9228 19.6485 71.015 20.0491 71.1998 20.4164C71.3733 20.7598 71.6239 21.0658 71.9352 21.3146C72.2493 21.5633 72.6192 21.7457 73.0187 21.849C73.4468 21.9635 73.8972 21.9896 74.3376 21.9254C74.8034 21.8688 75.252 21.7267 75.6565 21.5077C76.0587 21.2937 76.4184 21.0188 76.7204 20.6948C77.0231 20.3713 77.268 20.006 77.4461 19.6125C77.6382 19.2134 77.7383 18.7822 77.7402 18.346L81.2017 17.8969C81.2044 18.7596 81.0211 19.6143 80.6624 20.4119C80.3107 21.2092 79.8132 21.9458 79.1915 22.5901C78.5718 23.2382 77.8376 23.7863 77.0195 24.2113C76.1974 24.6451 75.2919 24.9303 74.3523 25.0512C73.4602 25.1756 72.5494 25.1251 71.6802 24.903C70.883 24.7002 70.1442 24.3392 69.5163 23.8456C68.8884 23.3519 68.3869 22.7378 68.0472 22.0466C67.6818 21.2998 67.4978 20.4892 67.5079 19.6709L67.4981 13.5271Z" fill="white"/>
<path d="M81.752 5.67216L94.6123 4.00598L95.637 7.01948L89.9006 7.7605V22.837L86.4685 23.2861V8.20512L81.7569 8.81591L81.752 5.67216Z" fill="white"/>
<path d="M101.628 11.6094L104.57 2.72608L108.178 2.27698L105.139 11.5106L108.178 20.4927L104.57 20.9418L101.628 12.2965L101 12.3774L98.0587 21.7817L94.4502 22.2308L97.49 12.4762L94.4502 4.02849L98.0587 3.57938L101 11.7037L101.628 11.6094Z" fill="white"/>
<path d="M125.505 0V14.7217C125.505 15.2352 125.393 15.7436 125.176 16.2172C124.964 16.6922 124.665 17.131 124.294 17.5151C123.925 17.9028 123.489 18.232 123.004 18.4897C122.516 18.7525 121.976 18.9249 121.416 18.9972C120.956 19.0571 120.489 19.0373 120.038 18.9388C119.609 18.8486 119.204 18.6806 118.846 18.4448C118.494 18.211 118.186 17.9258 117.934 17.6005C117.678 17.261 117.5 16.8776 117.41 16.4732L113.948 2.17817L113.291 2.2635V19.7786L109.859 20.2278V2.02996L117.297 1.06439L120.901 15.8849L122.068 15.7322V0.444618L125.505 0Z" fill="white"/>
</svg>
