<svg width="64" height="40" viewBox="0 0 64 40" fill="none" xmlns="http://www.w3.org/2000/svg">
<path d="M13.126 40L63.3148 32.8302C63.3115 34.093 62.8306 35.3061 61.9715 36.2185C61.1124 37.1308 59.9411 37.6724 58.7 37.7312L13.126 40Z" fill="#BCD63F"/>
<path d="M0.0205084 18.8801C0.0189163 17.5433 0.26784 16.2193 0.753076 14.9835C1.73299 12.4736 3.48421 10.3804 5.72784 9.03716C6.83254 8.36811 8.04856 7.92648 9.31075 7.73595C10.5157 7.53821 11.7471 7.61697 12.9203 7.96681C14.0059 8.29678 15.0119 8.86686 15.8705 9.63879C16.7202 10.4099 17.4016 11.3643 17.8684 12.4371C18.3662 13.5925 18.6162 14.8487 18.601 16.1168V18.0616L13.8993 18.7612V16.8164C13.9022 16.1918 13.7772 15.5739 13.533 15.0045C13.3041 14.469 12.9679 13.9918 12.5473 13.6054C12.1214 13.2254 11.6213 12.9484 11.0822 12.7938C10.505 12.6182 9.89853 12.5752 9.30409 12.6679C8.67284 12.7625 8.06471 12.9834 7.51264 13.3185C6.96607 13.6546 6.47192 14.077 6.04751 14.5708C5.61528 15.066 5.27228 15.6397 5.03524 16.2637C4.79397 16.871 4.66948 17.5225 4.66896 18.1806V27.7787C4.65808 28.4108 4.7833 29.0374 5.03524 29.6115C5.26651 30.1492 5.60755 30.6269 6.03419 31.0107C6.46087 31.3957 6.96013 31.6818 7.49932 31.8502C8.08138 32.0247 8.69242 32.0652 9.29077 31.9691C9.92439 31.8757 10.5349 31.6548 11.0889 31.3185C11.6354 30.9825 12.1239 30.5521 12.534 30.0453C12.9462 29.5422 13.279 28.973 13.5197 28.3593C13.7617 27.7449 13.8861 27.0864 13.8859 26.4215L18.5877 25.7219C18.5881 27.0654 18.3393 28.396 17.8551 29.6395C16.8947 32.1418 15.1551 34.2282 12.9203 35.5579C11.8023 36.2362 10.5697 36.6805 9.29077 36.8661C8.08155 37.067 6.84514 36.9882 5.66791 36.6352C4.58238 36.3252 3.57625 35.7651 2.72264 34.9954C1.86902 34.2258 1.18937 33.2661 0.733088 32.1859C0.236821 31.0226 -0.0131164 29.76 0.000530197 28.4852L0.0205084 18.8801Z" fill="white"/>
<path d="M30.741 18.0838L34.7368 4.24632L39.6383 3.54675L35.5093 17.9299L39.6383 31.9213L34.7368 32.6209L30.741 19.1542L29.8885 19.2801L25.8927 33.9291L20.9912 34.6287L25.1202 19.434L20.9912 6.27507L25.8927 5.5755L29.8885 18.2307L30.741 18.0838Z" fill="white"/>
<path d="M63.1729 0V22.9319C63.1729 23.7319 63.0212 24.5238 62.7267 25.2615C62.4381 26.0014 62.0328 26.6849 61.5279 27.2833C61.0276 27.8871 60.4358 28.4 59.7764 28.8013C59.1134 29.2107 58.3803 29.4793 57.6187 29.5918C56.995 29.6851 56.3602 29.6543 55.7473 29.5009C55.1644 29.3604 54.6142 29.0987 54.129 28.7314C53.6503 28.3672 53.2319 27.9229 52.8904 27.4162C52.5423 26.8875 52.2999 26.2901 52.1778 25.6603L47.476 3.39292L46.5836 3.52584V30.8091L41.9219 31.5087V3.16206L52.0246 1.65799L56.9194 24.7438L58.5044 24.506V0.692579L63.1729 0Z" fill="white"/>
</svg>
