<svg width="186" height="186" viewBox="0 0 186 186" fill="none" xmlns="http://www.w3.org/2000/svg">
<path d="M80.6814 20.055C86.6885 11.5438 99.3115 11.5438 105.319 20.055C109.94 26.6033 118.322 29.3267 125.91 26.7456C135.773 23.3907 145.985 30.8103 145.842 41.227C145.732 49.2412 150.912 56.3711 158.568 58.743C168.519 61.8261 172.42 73.8312 166.181 82.1745C161.382 88.5935 161.382 97.4065 166.181 103.826C172.42 112.169 168.519 124.174 158.568 127.257C150.912 129.629 145.732 136.759 145.842 144.773C145.985 155.19 135.773 162.609 125.91 159.254C118.322 156.673 109.94 159.397 105.319 165.945C99.3115 174.456 86.6885 174.456 80.6814 165.945C76.0597 159.397 67.678 156.673 60.09 159.254C50.2273 162.609 40.0151 155.19 40.158 144.773C40.268 136.759 35.0879 129.629 27.4319 127.257C17.4809 124.174 13.5802 112.169 19.8186 103.826C24.6182 97.4065 24.6182 88.5935 19.8186 82.1745C13.5802 73.8312 17.4809 61.8261 27.4319 58.743C35.0879 56.3711 40.268 49.2412 40.158 41.227C40.0151 30.8103 50.2273 23.3907 60.09 26.7456C67.678 29.3267 76.0597 26.6033 80.6814 20.055Z" fill="#E9E9E9" stroke="#6C6C6C" stroke-width="3"/>
<path d="M93.2479 133.13C77.2151 133.13 61.1823 133.13 45.1829 133.13C43.2163 133.13 42.683 132.597 42.783 130.629C43.3829 118.756 43.9829 106.884 44.5829 95.0108C45.0829 84.8388 45.5829 74.6669 46.0828 64.495C46.1495 62.8942 46.6828 62.3939 48.2828 62.3605C51.6827 62.3605 55.0825 62.3272 58.4824 62.3939C59.3157 62.3939 59.6157 62.2605 59.5824 61.3267C59.5157 58.8587 59.5491 56.4241 59.5491 53.9562C59.6157 43.7509 69.1821 36.5805 78.9484 39.4153C79.515 39.5821 80.015 39.5487 80.5817 39.4153C90.248 36.6139 99.8144 43.7509 99.9477 53.8228C99.981 56.3908 99.981 58.9588 99.9477 61.4934C99.9477 62.2605 100.181 62.3939 100.881 62.3939C104.348 62.3605 107.814 62.3605 111.281 62.3939C112.814 62.3939 113.347 62.9275 113.447 64.4616C113.781 71.3986 114.147 78.3355 114.481 85.2724C114.514 86.0395 114.914 85.9728 115.414 85.9728C122.88 85.9728 130.347 85.9728 137.813 85.9728C139.88 85.9728 140.246 86.3063 140.413 88.3406C141.313 100.147 142.246 111.986 143.146 123.792C143.313 126.027 143.513 128.261 143.68 130.496C143.846 132.53 143.313 133.13 141.313 133.13C125.28 133.13 109.247 133.13 93.2479 133.13ZM47.7828 97.8789H47.7495C47.7495 98.4125 47.7828 98.9461 47.7495 99.4464C47.2495 109.218 46.7828 118.99 46.2828 128.762C46.2495 129.429 46.2828 129.762 47.1161 129.762C58.9157 129.729 70.682 129.729 82.4816 129.762C83.1816 129.762 83.3482 129.529 83.3816 128.862C83.5816 125.727 83.8149 122.558 84.0482 119.423C84.8482 108.918 85.6815 98.4459 86.5148 87.9738C86.6148 86.5064 87.1481 85.9728 88.6147 85.9728C91.1147 85.9728 93.5812 85.9728 96.0811 85.9728C97.7144 85.9728 97.7478 85.9728 97.6478 84.2719C97.4478 79.903 97.2144 75.5007 97.0145 71.1318C96.9478 69.5976 96.8478 68.0635 96.7811 66.496C96.7478 65.9624 96.5811 65.6956 95.9812 65.729C94.1812 65.7623 92.4146 65.7623 90.6147 65.729C90.048 65.729 89.8814 65.8957 89.9147 66.4627C89.948 67.7633 89.9147 69.064 89.9147 70.3647C89.9147 71.6987 89.3147 72.4658 88.2481 72.4991C87.1814 72.5325 86.5481 71.7321 86.5481 70.3313C86.5481 69.0974 86.5148 67.8634 86.5481 66.6628C86.5815 65.9958 86.4148 65.7623 85.6815 65.7623C78.3818 65.7957 71.082 65.7957 63.7822 65.7623C63.0489 65.7623 62.9156 65.9958 62.9489 66.6628C62.9823 69.7644 62.9823 72.8326 62.9489 75.9342C62.9489 76.5012 63.1489 76.8347 63.6156 77.1015C64.7489 77.8019 65.8155 78.6023 66.9488 79.3026C67.6821 79.7696 68.0488 80.4032 68.0488 81.3037C68.0154 85.5392 68.0488 89.8081 68.0488 94.0436C68.0488 95.4777 67.4488 96.078 65.9822 96.078C62.8489 96.078 59.749 96.078 56.6158 96.078C55.1825 96.078 54.5826 95.4777 54.5826 94.0436C54.5826 89.8081 54.5826 85.5392 54.5826 81.3037C54.5826 80.4032 54.9159 79.7696 55.6825 79.3026C56.8491 78.5689 57.9491 77.7685 59.1157 77.0348C59.5157 76.768 59.6824 76.5012 59.6824 76.0009C59.6491 72.8326 59.6491 69.6977 59.6824 66.5294C59.6824 65.9624 59.5491 65.729 58.9491 65.729C56.0492 65.7623 53.1159 65.7623 50.216 65.729C49.6494 65.729 49.4827 65.9291 49.4494 66.4293C49.4161 67.6633 49.3494 68.8973 49.2827 70.0979C48.7161 79.4027 48.2494 88.6408 47.7828 97.8789ZM106.781 129.762C113.114 129.762 119.48 129.762 125.813 129.795C126.547 129.795 126.747 129.629 126.68 128.862C126.28 123.926 125.913 118.99 125.547 114.054C124.947 106.15 124.314 98.2458 123.747 90.3417C123.68 89.5079 123.447 89.3078 122.647 89.3078C114.414 89.3412 106.147 89.3412 97.9144 89.3412C95.4145 89.3412 92.9479 89.3745 90.448 89.3412C89.848 89.3412 89.648 89.5079 89.648 90.1082C89.6147 91.1754 89.5147 92.2093 89.448 93.2432C88.9814 99.2129 88.5147 105.216 88.0481 111.186C87.5814 117.055 87.1814 122.925 86.6815 128.795C86.6148 129.595 86.8481 129.762 87.6148 129.762C94.0146 129.762 100.414 129.762 106.781 129.762ZM79.7484 62.3939C81.7483 62.3939 83.7482 62.3605 85.7482 62.3939C86.3148 62.3939 86.5148 62.2605 86.5148 61.6602C86.4815 58.9254 86.6148 56.1907 86.4481 53.4559C86.2481 49.1537 84.1815 45.9187 80.4817 43.6842C79.9817 43.3841 79.5484 43.3507 79.0484 43.6842C75.9152 45.5519 73.8819 48.1866 73.2819 51.7884C72.7153 55.1568 73.1486 58.5586 73.0486 61.9603C73.0153 62.594 73.4819 62.3605 73.7819 62.3939C75.7818 62.3939 77.7484 62.3939 79.7484 62.3939ZM129.88 126.46C131.18 124.526 132.28 122.858 133.413 121.158C133.547 120.958 133.58 120.724 133.547 120.457C133.247 117.622 132.98 114.821 132.68 111.986C132.013 105.283 131.313 98.5793 130.68 91.9092C130.447 89.3078 130.48 89.3412 127.913 89.3412C127.113 89.3412 127.013 89.608 127.08 90.3083C127.313 92.843 127.513 95.411 127.68 97.979C128.447 107.35 129.147 116.755 129.88 126.46ZM75.1819 42.2501C69.5154 41.8499 64.0156 46.2522 63.1489 51.8218C62.649 55.1568 63.0489 58.5252 62.9156 61.8936C62.8823 62.4606 63.2489 62.3939 63.5823 62.3939C65.3489 62.3939 67.0821 62.3605 68.8487 62.4272C69.582 62.4606 69.682 62.1938 69.682 61.5268C69.6487 59.459 69.7487 57.3913 69.6487 55.3236C69.4487 50.1542 71.1487 45.7853 75.1819 42.2501ZM84.3149 42.2168C88.4814 45.852 90.1147 50.321 89.8814 55.5904C89.7814 57.6248 89.8814 59.6591 89.848 61.6935C89.848 62.1271 89.8814 62.3939 90.448 62.3939C92.3146 62.3605 94.1479 62.3605 96.0145 62.3939C96.4811 62.3939 96.6145 62.2605 96.6145 61.7936C96.5811 58.9254 96.6811 56.0573 96.5478 53.1891C96.2478 46.9526 90.6813 41.9166 84.3149 42.2168ZM139.78 124.826C139.78 124.359 139.78 124.126 139.78 123.892C139.413 119.057 139.046 114.254 138.68 109.418C138.213 103.515 137.78 97.6121 137.28 91.7091C137.213 90.942 137.58 89.8748 136.913 89.4746C136.313 89.1077 135.346 89.4079 134.547 89.3412C133.88 89.2745 133.813 89.608 133.88 90.1416C134.013 91.2421 134.147 92.3761 134.247 93.4766C135.046 101.581 135.946 109.652 136.58 117.756C136.78 120.524 138.046 122.592 139.78 124.826ZM57.8824 87.2067C57.8824 88.8076 57.9158 90.4417 57.8824 92.0426C57.8824 92.6095 58.0491 92.7429 58.5824 92.7429C60.3157 92.7096 62.0823 92.7096 63.8156 92.7429C64.4822 92.7763 64.6155 92.5428 64.6155 91.9092C64.5822 88.8076 64.5822 85.6726 64.6155 82.571C64.6155 82.004 64.4489 81.6705 63.9489 81.4037C63.0156 80.8701 62.1156 79.8029 61.2157 79.8029C60.3157 79.8029 59.4157 80.8701 58.4824 81.4037C58.0158 81.6705 57.8158 82.004 57.8491 82.571C57.9158 84.1051 57.8824 85.6393 57.8824 87.2067ZM100.148 67.7633C100.448 73.2995 100.714 78.5022 100.981 83.6716C101.114 85.9728 101.114 85.9061 103.414 86.0061C104.514 86.0395 104.648 85.6726 104.581 84.7054C104.181 78.7023 103.848 72.6992 103.514 66.6628C103.481 65.9291 103.214 65.6623 102.514 65.729C101.714 65.829 100.681 65.3955 100.214 65.9291C99.8477 66.3626 100.148 67.3965 100.148 67.7633ZM106.914 68.0968C107.214 73.0994 107.547 78.6023 107.914 84.1385C108.047 86.0061 108.047 85.9394 109.947 86.0061C110.914 86.0395 111.181 85.7727 111.114 84.8055C110.781 78.9691 110.514 73.1328 110.247 67.2964C110.181 65.7623 110.181 65.7623 108.681 65.7623C106.847 65.7623 106.847 65.7623 106.914 68.0968ZM138.88 129.729C137.746 128.028 136.713 126.494 135.68 124.96C135.546 124.759 135.413 124.259 135.046 124.793C133.98 126.394 132.88 128.028 131.747 129.729C134.18 129.729 136.446 129.729 138.88 129.729Z" fill="#6C6C6C"/>
<path d="M47.7838 97.879C48.2504 88.6409 48.7171 79.3694 49.1837 70.1313C49.2504 68.8974 49.2837 67.6634 49.3504 66.4628C49.3837 65.9625 49.5504 65.7291 50.117 65.7624C53.0169 65.7958 55.9502 65.7958 58.8501 65.7624C59.4834 65.7624 59.6167 65.9625 59.5834 66.5628C59.5501 69.7311 59.5501 72.8661 59.5834 76.0344C59.5834 76.5013 59.4167 76.8014 59.0167 77.0682C57.8501 77.802 56.7502 78.6024 55.5835 79.3361C54.8169 79.803 54.4836 80.4367 54.4836 81.3371C54.5169 85.5726 54.4836 89.8415 54.4836 94.077C54.4836 95.5111 55.0835 96.1114 56.5168 96.1114C59.6501 96.1114 62.75 96.1114 65.8832 96.1114C67.3165 96.1114 67.9164 95.5111 67.9498 94.077C67.9498 89.8415 67.9498 85.5726 67.9498 81.3371C67.9498 80.4367 67.6165 79.803 66.8498 79.3361C65.7165 78.6024 64.6499 77.8353 63.5166 77.135C63.0499 76.8348 62.8499 76.5346 62.8499 75.9677C62.8833 72.8661 62.8833 69.7978 62.8499 66.6962C62.8499 66.0292 62.9833 65.7958 63.6833 65.7958C70.983 65.8291 78.2828 65.8291 85.5825 65.7958C86.2825 65.7958 86.4825 66.0292 86.4491 66.6962C86.4158 67.9302 86.4158 69.1642 86.4491 70.3648C86.4491 71.7655 87.0825 72.5659 88.1491 72.5326C89.1824 72.4992 89.7824 71.7655 89.8157 70.3981C89.8157 69.0975 89.849 67.7968 89.8157 66.4961C89.8157 65.9625 89.949 65.7624 90.5157 65.7624C92.3156 65.7958 94.0822 65.7958 95.8821 65.7624C96.4821 65.7624 96.6821 65.9959 96.6821 66.5295C96.7488 68.0636 96.8488 69.5977 96.9154 71.1652C97.1488 75.5341 97.3488 79.9364 97.5488 84.3053C97.6154 86.0062 97.6154 86.0062 95.9821 86.0062C93.4822 86.0062 91.0157 86.0062 88.5157 86.0062C87.0491 86.0062 86.5158 86.5398 86.4158 88.0072C85.6158 98.5127 84.7825 108.985 83.9492 119.457C83.7159 122.592 83.4492 125.76 83.2826 128.895C83.2493 129.562 83.0826 129.796 82.3826 129.796C70.583 129.762 58.8168 129.762 47.0172 129.796C46.1838 129.796 46.1505 129.462 46.1838 128.795C46.6838 119.023 47.1838 109.252 47.6505 99.4798C47.6838 98.9462 47.6505 98.4126 47.6505 97.9124C47.7505 97.879 47.7505 97.879 47.7838 97.879Z" fill="#D2D2D2"/>
<path d="M106.781 129.762C100.415 129.762 94.0148 129.762 87.6483 129.795C86.8484 129.795 86.6484 129.629 86.715 128.828C87.1817 122.958 87.615 117.089 88.0817 111.219C88.5483 105.249 89.015 99.2462 89.4816 93.2764C89.5483 92.2426 89.6816 91.1753 89.6816 90.1415C89.6816 89.5412 89.9149 89.3744 90.4816 89.3744C92.9815 89.4078 95.4481 89.3744 97.948 89.3744C106.181 89.3744 114.447 89.3744 122.68 89.3411C123.48 89.3411 123.714 89.5412 123.78 90.3749C124.347 98.279 124.98 106.183 125.58 114.087C125.947 119.023 126.314 123.959 126.714 128.895C126.78 129.629 126.58 129.829 125.847 129.829C119.481 129.762 113.147 129.762 106.781 129.762ZM116.814 105.383C116.814 102.581 116.847 100.28 116.814 97.9455C116.814 96.6115 115.747 95.7444 114.614 96.1779C113.747 96.5114 113.447 97.1785 113.447 98.0789C113.447 102.314 113.447 106.55 113.447 110.819C113.447 114.187 111.348 116.288 108.014 116.288C107.181 116.288 106.348 116.288 105.481 116.288C102.048 116.288 99.9813 114.221 99.9479 110.819C99.9479 106.583 99.9479 102.348 99.9479 98.0789C99.9479 96.8449 99.2813 96.0779 98.2813 96.0779C97.248 96.0779 96.6147 96.8116 96.6147 98.0456C96.6147 102.515 96.5814 106.95 96.6147 111.419C96.648 115.388 99.5479 118.723 103.448 119.49C105.148 119.823 106.881 119.657 108.581 119.623C112.547 119.557 115.914 116.689 116.614 112.753C117.081 110.185 116.681 107.517 116.814 105.383Z" fill="#E9E9E9"/>
<path d="M129.879 126.46C129.146 116.755 128.413 107.35 127.713 97.9454C127.513 95.3774 127.346 92.8428 127.113 90.2748C127.046 89.5744 127.179 89.3076 127.946 89.3076C130.513 89.341 130.446 89.3076 130.713 91.8756C131.346 98.5791 132.046 105.283 132.713 111.953C132.979 114.787 133.279 117.589 133.579 120.424C133.612 120.691 133.579 120.924 133.446 121.124C132.279 122.858 131.179 124.526 129.879 126.46Z" fill="#E9E9E9"/>
<path d="M139.78 124.826C138.046 122.591 136.813 120.524 136.58 117.756C135.946 109.651 135.046 101.581 134.246 93.4764C134.146 92.3758 134.013 91.2419 133.88 90.1413C133.813 89.6077 133.88 89.2742 134.546 89.3409C135.346 89.4076 136.313 89.1075 136.913 89.4743C137.613 89.8745 137.213 90.9417 137.28 91.7088C137.78 97.6119 138.213 103.515 138.68 109.418C139.046 114.254 139.413 119.056 139.78 123.892C139.78 124.126 139.78 124.359 139.78 124.826Z" fill="#E9E9E9"/>
<path d="M57.8828 87.2067C57.8828 85.6725 57.9161 84.1384 57.8828 82.6043C57.8828 82.0373 58.0495 81.7038 58.5161 81.437C59.4494 80.9034 60.3494 79.8362 61.2494 79.8362C62.1493 79.8362 63.0493 80.8701 63.9826 81.437C64.4493 81.7038 64.6492 82.0373 64.6492 82.6043C64.6159 85.7059 64.6159 88.8408 64.6492 91.9424C64.6492 92.5761 64.5159 92.7762 63.8493 92.7762C62.116 92.7095 60.3494 92.7429 58.6161 92.7762C58.0828 92.7762 57.8828 92.6428 57.9161 92.0758C57.9161 90.4083 57.8828 88.8075 57.8828 87.2067Z" fill="#E9E9E9"/>
<path d="M100.147 67.7632C100.147 67.363 99.8468 66.3624 100.213 65.9289C100.68 65.3953 101.747 65.8288 102.513 65.7288C103.213 65.6621 103.48 65.9289 103.513 66.6626C103.847 72.6657 104.18 78.6688 104.58 84.7053C104.647 85.6724 104.513 86.0393 103.413 86.0059C101.113 85.9059 101.113 85.9726 100.98 83.6714C100.713 78.502 100.413 73.3327 100.147 67.7632Z" fill="#D2D2D2"/>
<path d="M106.914 68.0967C106.848 65.7622 106.848 65.7622 108.681 65.7622C110.181 65.7622 110.181 65.7622 110.247 67.2963C110.514 73.1327 110.814 78.969 111.114 84.8054C111.181 85.7726 110.881 86.0394 109.947 86.006C108.047 85.9393 108.014 85.9727 107.914 84.1384C107.547 78.6022 107.247 73.0993 106.914 68.0967Z" fill="#D2D2D2"/>
<path d="M138.879 129.729C136.446 129.729 134.179 129.729 131.746 129.729C132.879 128.028 133.979 126.394 135.046 124.793C135.413 124.259 135.546 124.76 135.679 124.96C136.746 126.494 137.746 128.028 138.879 129.729Z" fill="#E9E9E9"/>
<path d="M116.814 105.383C116.681 107.517 117.081 110.152 116.647 112.753C115.947 116.688 112.614 119.557 108.614 119.623C106.914 119.657 105.181 119.79 103.481 119.49C99.5813 118.756 96.6814 115.388 96.648 111.419C96.6147 106.95 96.6147 102.514 96.648 98.0454C96.648 96.8114 97.3147 96.0444 98.3147 96.0777C99.348 96.0777 99.9813 96.8448 99.9813 98.0787C99.9813 102.314 99.9813 106.55 99.9813 110.819C99.9813 114.22 102.081 116.288 105.514 116.288C106.348 116.288 107.181 116.288 108.048 116.288C111.381 116.288 113.481 114.187 113.481 110.819C113.481 106.583 113.481 102.348 113.481 98.0787C113.481 97.1783 113.747 96.4779 114.647 96.1778C115.781 95.7776 116.847 96.6113 116.847 97.9453C116.814 100.28 116.814 102.581 116.814 105.383Z" fill="#6C6C6C"/>
</svg>
