<svg width="37" height="37" viewBox="0 0 37 37" fill="none" xmlns="http://www.w3.org/2000/svg">
<g clip-path="url(#clip0_618_15623)">
<path d="M31.9995 13.1094C31.8304 13.387 31.5768 13.4682 31.2458 13.4615C30.2596 13.4479 29.2805 13.4547 28.2943 13.4547C27.6885 13.4547 27.5335 13.299 27.5265 12.7167C27.5265 12.6422 27.5194 12.5677 27.5124 12.4526C26.6671 13.0146 25.7514 13.2922 24.7229 13.2786C24.7229 13.3938 24.7229 13.4885 24.7229 13.5766C24.7229 14.6667 24.7229 15.7568 24.7229 16.8536C24.7229 17.2938 24.5398 17.4766 24.089 17.4766C22.2645 17.4766 20.4331 17.4766 18.6087 17.4766C18.2212 17.4766 17.9817 17.287 17.9747 16.9755C17.9676 16.6573 18.2142 16.4609 18.6157 16.4609C19.4258 16.4609 20.2288 16.4609 21.0389 16.4609C21.3629 15.0932 22.2293 14.2604 23.6663 13.9422C23.6663 13.712 23.6734 13.4682 23.6593 13.2245C23.6593 13.1839 23.5818 13.1161 23.5325 13.1026C22.976 12.9266 22.4688 12.676 22.0039 12.3307C21.9405 12.2833 21.8278 12.2766 21.7433 12.2969C21.222 12.4323 20.7008 12.588 20.1724 12.7302C19.616 12.8859 19.0736 13.1026 18.4748 12.8927C18.4889 14.6125 16.9815 15.3438 15.8826 15.1474C14.7062 14.9375 13.8891 13.7865 14.1497 12.649C14.4526 11.3219 15.622 10.7734 17.2703 11.1797C17.3548 10.5229 17.7 10.0354 18.3973 9.71042C18.2353 9.70365 18.1508 9.69688 18.0733 9.69688C15.9812 9.69688 13.8891 9.69688 11.797 9.6901C11.5857 9.6901 11.5082 9.74427 11.4519 9.95417C11.1278 11.1052 10.353 11.8432 9.1414 12.1479C9.06391 12.1682 8.99347 12.1885 8.91599 12.2021C8.91599 12.7844 8.91599 13.3599 8.91599 13.9422C9.78241 14.1047 10.4939 14.4974 10.9729 15.2016C11.1842 15.513 11.3392 15.8719 11.4589 16.2307C11.5223 16.4203 11.5998 16.4609 11.7829 16.4542C12.4099 16.4474 13.0297 16.4474 13.6567 16.4542C14.037 16.4542 14.2836 16.6505 14.2836 16.962C14.2836 17.2667 14.0441 17.4698 13.6637 17.4698C11.9309 17.4698 10.198 17.4698 8.47221 17.4698C8.05661 17.4698 7.85938 17.2734 7.85938 16.874C7.85938 14.3349 7.85938 11.7958 7.85938 9.25677C7.85938 8.85729 8.04957 8.67448 8.47926 8.67448C9.60631 8.66771 10.7263 8.67448 11.8534 8.66771C11.9731 8.66771 12.1351 8.61354 12.2126 8.52552C13.5933 7.08333 15.2909 6.23698 17.3266 6.04063C17.3689 6.03385 17.4112 6.01354 17.4464 6C22.2998 6 27.1461 6 31.9995 6C31.9995 8.36979 31.9995 10.7396 31.9995 13.1094ZM13.6567 8.68125C13.7553 8.68125 13.8469 8.68125 13.9455 8.68125C16.2207 8.68125 18.496 8.67448 20.7712 8.68802C21.5742 8.69479 22.3702 8.69479 23.1239 8.39688C23.1591 8.38333 23.1944 8.37656 23.2296 8.36979C23.4973 8.31563 23.7508 8.45781 23.8354 8.69479C23.9199 8.94531 23.8142 9.19583 23.5677 9.31094C23.4761 9.35156 23.3705 9.37865 23.2718 9.40573C21.8419 9.81198 20.4119 10.2115 18.982 10.6177C18.827 10.6651 18.665 10.7396 18.5523 10.8411C18.3198 11.0443 18.2987 11.376 18.4607 11.6333C18.6298 11.9109 18.9468 12.0193 19.3131 11.9177C20.1161 11.6943 20.9121 11.4776 21.7081 11.2339C22.0462 11.1323 22.2998 11.1865 22.5674 11.4167C23.9551 12.6083 26.0754 12.5203 27.3574 11.2474C27.4842 11.1188 27.5547 10.9901 27.5476 10.8005C27.5406 9.6224 27.5406 8.45104 27.5406 7.27292C27.5406 7.19167 27.5335 7.11042 27.5265 7.00208C27.449 7.00208 27.3926 7.00208 27.3292 7.00208C24.2017 7.00208 21.0741 6.99531 17.9465 7.00885C16.9322 7.00885 15.9671 7.2526 15.0584 7.68594C14.5372 7.95 14.0511 8.24792 13.6567 8.68125ZM28.6113 7.02917C28.6113 8.83698 28.6113 10.6313 28.6113 12.4255C29.4002 12.4255 30.168 12.4255 30.9358 12.4255C30.9358 10.6177 30.9358 8.83021 30.9358 7.02917C30.1539 7.02917 29.3861 7.02917 28.6113 7.02917ZM17.4112 13.0688C17.4041 12.4729 16.904 11.9922 16.2912 11.9922C15.6642 11.9922 15.1641 12.4865 15.1711 13.0958C15.1782 13.6917 15.6924 14.1724 16.3052 14.1589C16.9251 14.1521 17.4182 13.6646 17.4112 13.0688ZM10.4234 16.4542C10.2896 15.7635 9.62744 15.1339 8.92303 15.0188C8.92303 15.4927 8.92303 15.9734 8.92303 16.4542C9.42316 16.4542 9.91625 16.4542 10.4234 16.4542ZM22.1377 16.4474C22.6661 16.4474 23.1591 16.4474 23.6522 16.4474C23.6522 15.9599 23.6522 15.4859 23.6522 14.9917C22.8703 15.2219 22.3772 15.6958 22.1377 16.4474ZM8.91599 11.1323C9.59927 11.0443 10.3248 10.3536 10.4093 9.71042C9.91625 9.71042 9.41612 9.71042 8.91599 9.71042C8.91599 10.1979 8.91599 10.6651 8.91599 11.1323Z" fill="#161617"/>
<path d="M5.37334 31.9999C5.08453 31.851 5 31.6208 5 31.3093C5.01409 29.2848 5.00704 27.2671 5.00704 25.2426C5.00704 24.701 5.16906 24.5385 5.72554 24.5385C6.71876 24.5385 7.71197 24.5385 8.70519 24.5385C9.2969 24.5385 9.43073 24.6536 9.49413 25.2156C9.81816 24.9921 10.1492 24.7755 10.4592 24.5385C10.5226 24.4911 10.5296 24.3557 10.5296 24.2609C10.5367 22.5682 10.5296 20.8755 10.5296 19.1827C10.5296 18.6411 10.6846 18.4854 11.2481 18.4854C15.4534 18.4854 19.6658 18.4854 23.8711 18.4854C24.4346 18.4854 24.6037 18.6479 24.6037 19.2031C24.6037 20.801 24.6037 22.3989 24.6037 23.9968C24.6037 24.0984 24.6037 24.1932 24.6037 24.315C24.8573 24.315 25.0827 24.288 25.3011 24.3218C26.4 24.4775 27.1044 25.6083 26.6394 26.5697C26.0689 27.7411 25.4349 28.8854 24.4487 29.8062C23.1244 31.0385 21.5607 31.763 19.7292 31.9525C19.6728 31.9593 19.6094 31.9796 19.5531 31.9932C14.8336 31.9999 10.0999 31.9999 5.37334 31.9999ZM20.7647 28.0932C21.2437 27.9104 21.5959 27.6395 21.8706 27.2807C22.3919 26.6036 22.9131 25.9197 23.4273 25.2359C23.4978 25.1411 23.54 25.0057 23.54 24.8906C23.5471 23.1843 23.5471 21.4713 23.5471 19.765C23.5471 19.6906 23.54 19.6161 23.533 19.5416C22.3919 19.5416 21.2648 19.5416 20.1237 19.5416C20.1237 20.3406 20.1237 21.1192 20.1237 21.8979C20.1237 22.4395 19.7785 22.6494 19.2713 22.4327C18.7853 22.2229 18.2992 22.0062 17.7991 21.8098C17.6794 21.7624 17.5033 21.7624 17.3835 21.8098C16.8552 22.013 16.3339 22.2432 15.8127 22.4531C15.3619 22.6359 15.0237 22.4124 15.0167 21.9385C15.0097 21.3291 15.0167 20.7197 15.0167 20.1104C15.0167 19.9208 15.0167 19.7244 15.0167 19.5281C13.8615 19.5281 12.7415 19.5281 11.6074 19.5281C11.6074 21.0515 11.6074 22.5614 11.6074 24.0781C11.6567 24.0781 11.6919 24.0781 11.7271 24.0713C13.6924 23.6718 15.2844 24.2541 16.5171 25.7708C16.5805 25.8452 16.7143 25.8994 16.82 25.8994C17.5737 25.913 18.3274 25.9062 19.0882 25.9062C19.5954 25.9062 20.0321 26.089 20.3773 26.4546C20.8069 26.915 20.9126 27.4567 20.7647 28.0932ZM9.473 30.9775C9.55753 30.9843 9.60684 30.9843 9.65614 30.9843C12.8049 30.9843 15.9465 31.0114 19.0952 30.9708C20.9549 30.9505 22.5327 30.2395 23.8359 28.9598C24.6389 28.1744 25.1109 27.1859 25.6462 26.238C25.7026 26.1364 25.7167 25.9874 25.6955 25.8723C25.6533 25.6015 25.4772 25.4119 25.1954 25.3442C24.8855 25.2697 24.6389 25.3713 24.4558 25.6083C23.8993 26.3327 23.3428 27.064 22.7863 27.7952C22.0326 28.7838 21.0183 29.2848 19.7433 29.2781C18.6374 29.2713 17.5314 29.2781 16.4255 29.2781C16.2071 29.2781 15.9888 29.2848 15.7634 29.2713C15.4323 29.251 15.228 28.9869 15.2844 28.6755C15.3337 28.4182 15.545 28.2692 15.8972 28.2692C16.9045 28.2692 17.9189 28.2692 18.9262 28.2624C19.0952 28.2624 19.2854 28.2354 19.4333 28.1676C19.7081 28.039 19.8349 27.714 19.7574 27.4296C19.6799 27.1385 19.4193 26.9354 19.0741 26.9286C18.2218 26.9218 17.3694 26.915 16.5171 26.9286C16.1578 26.9354 15.9395 26.8067 15.7493 26.5156C15.0167 25.439 13.9601 24.8906 12.6288 24.965C11.2481 25.0395 10.2126 25.7031 9.57162 26.9083C9.52231 26.9963 9.48004 27.0979 9.48004 27.1926C9.473 28.4452 9.473 29.6911 9.473 30.9775ZM8.4023 30.9775C8.4023 29.163 8.4023 27.3755 8.4023 25.5744C7.6204 25.5744 6.8526 25.5744 6.07775 25.5744C6.07775 27.3822 6.07775 29.1765 6.07775 30.9775C6.85964 30.9775 7.6204 30.9775 8.4023 30.9775ZM19.0459 19.5281C18.0527 19.5281 17.0736 19.5281 16.0804 19.5281C16.0804 20.09 16.0804 20.6452 16.0804 21.2275C16.3903 21.0989 16.6932 21.0041 16.9679 20.8551C17.3976 20.6182 17.7991 20.6182 18.2288 20.8619C18.4753 21.0041 18.7571 21.0921 19.0459 21.214C19.0459 20.6182 19.0459 20.0765 19.0459 19.5281Z" fill="#161617"/>
<path d="M16.6582 16.969C16.6582 17.2466 16.4046 17.4835 16.1158 17.4768C15.834 17.47 15.6016 17.2398 15.6016 16.969C15.6016 16.6846 15.8481 16.4612 16.144 16.4679C16.4257 16.4679 16.6582 16.6914 16.6582 16.969Z" fill="#161617"/>
</g>
<defs>
<clipPath id="clip0_618_15623">
<rect width="27" height="26" fill="white" transform="translate(5 6)"/>
</clipPath>
</defs>
</svg>
