<svg width="476" height="247" viewBox="0 0 476 247" fill="none" xmlns="http://www.w3.org/2000/svg">
<path d="M7.194 182H21.582V154.096H38.586C52.538 154.096 63.002 144.94 63.002 130.661V129.135C63.002 114.856 52.974 105.7 38.586 105.7H7.194V182ZM21.582 141.016V118.78H37.169C44.036 118.78 48.614 122.813 48.614 129.353V130.443C48.614 136.983 43.927 141.016 37.169 141.016H21.582ZM70.9062 182H85.2942V153.224H105.35C109.601 153.224 111.236 155.622 111.236 159.11V182H125.624V157.039C125.624 150.935 122.245 147.011 116.468 146.684V144.722C122.899 142.106 127.804 136.547 127.804 127.391V126.083C127.804 113.766 118.321 105.7 104.042 105.7H70.9062V182ZM85.2942 140.144V118.78H102.516C109.492 118.78 113.416 122.813 113.416 128.917V130.007C113.416 136.111 109.274 140.144 102.516 140.144H85.2942ZM167.353 183.526C186.537 183.526 198.745 172.626 198.745 153.006V134.694C198.745 115.074 186.537 104.174 167.353 104.174C148.169 104.174 135.961 115.074 135.961 134.694V153.006C135.961 172.626 148.169 183.526 167.353 183.526ZM167.353 170.664C156.671 170.664 150.349 163.906 150.349 153.442V134.258C150.349 123.794 156.671 117.036 167.353 117.036C178.035 117.036 184.357 123.794 184.357 134.258V153.442C184.357 163.906 178.035 170.664 167.353 170.664ZM204.666 182H236.058C256.55 182 267.45 171.536 267.45 151.044V136.656C267.45 116.164 256.55 105.7 236.058 105.7H204.666V118.344H214.694V169.356H204.666V182ZM229.082 168.92V118.78H236.276C247.83 118.78 253.062 125.102 253.062 136.22V151.48C253.062 162.598 247.83 168.92 236.276 168.92H229.082ZM306.801 183.526C325.549 183.526 336.667 172.626 336.667 155.186V105.7H322.279V155.622C322.279 164.996 316.829 170.664 306.801 170.664C296.773 170.664 291.323 164.996 291.323 155.622V105.7H276.935V155.186C276.935 172.626 288.053 183.526 306.801 183.526ZM377.528 183.526C396.276 183.526 406.958 172.626 406.958 154.75V153.224H392.788V155.186C392.788 164.124 387.774 170.664 377.528 170.664C367.282 170.664 361.178 163.906 361.178 153.224V134.476C361.178 123.794 367.282 117.036 377.528 117.036C387.774 117.036 392.788 123.576 392.788 132.514V133.604H406.958V132.95C406.958 115.074 396.276 104.174 377.528 104.174C358.562 104.174 346.79 115.074 346.79 134.694V153.006C346.79 172.626 358.562 183.526 377.528 183.526ZM432.779 182H447.167V118.78H469.403V105.7H410.543V118.78H432.779V182Z" fill="white"/>
<g opacity="0.4">
<mask id="mask0_553_21951" style="mask-type:alpha" maskUnits="userSpaceOnUse" x="0" y="182" width="476" height="65">
<rect y="182" width="476" height="65" fill="#D9D9D9"/>
</mask>
<g mask="url(#mask0_553_21951)">
<path d="M7.19434 270H21.5823V242.096H38.5863C52.5383 242.096 63.0023 232.94 63.0023 218.661V217.135C63.0023 202.856 52.9743 193.7 38.5863 193.7H7.19434V270ZM21.5823 229.016V206.78H37.1693C44.0363 206.78 48.6143 210.813 48.6143 217.353V218.443C48.6143 224.983 43.9273 229.016 37.1693 229.016H21.5823Z" fill="white"/>
<path d="M70.9065 270H85.2945V241.224H105.351C109.602 241.224 111.237 243.622 111.237 247.11V270H125.625V245.039C125.625 238.935 122.246 235.011 116.469 234.684V232.722C122.9 230.106 127.805 224.547 127.805 215.391V214.083C127.805 201.766 118.322 193.7 104.043 193.7H70.9065V270ZM85.2945 228.144V206.78H102.517C109.493 206.78 113.417 210.813 113.417 216.917V218.007C113.417 224.111 109.275 228.144 102.517 228.144H85.2945Z" fill="white"/>
<path d="M167.354 271.526C186.538 271.526 198.746 260.626 198.746 241.006V222.694C198.746 203.074 186.538 192.174 167.354 192.174C148.17 192.174 135.962 203.074 135.962 222.694V241.006C135.962 260.626 148.17 271.526 167.354 271.526ZM167.354 258.664C156.672 258.664 150.35 251.906 150.35 241.442V222.258C150.35 211.794 156.672 205.036 167.354 205.036C178.036 205.036 184.358 211.794 184.358 222.258V241.442C184.358 251.906 178.036 258.664 167.354 258.664Z" fill="white"/>
<path d="M204.667 270H236.059C256.551 270 267.451 259.536 267.451 239.044V224.656C267.451 204.164 256.551 193.7 236.059 193.7H204.667V206.344H214.695V257.356H204.667V270ZM229.083 256.92V206.78H236.277C247.831 206.78 253.063 213.102 253.063 224.22V239.48C253.063 250.598 247.831 256.92 236.277 256.92H229.083Z" fill="white"/>
<path d="M306.801 271.526C325.549 271.526 336.667 260.626 336.667 243.186V193.7H322.279V243.622C322.279 252.996 316.829 258.664 306.801 258.664C296.773 258.664 291.323 252.996 291.323 243.622V193.7H276.935V243.186C276.935 260.626 288.053 271.526 306.801 271.526Z" fill="white"/>
<path d="M377.529 271.526C396.277 271.526 406.959 260.626 406.959 242.75V241.224H392.789V243.186C392.789 252.124 387.775 258.664 377.529 258.664C367.283 258.664 361.179 251.906 361.179 241.224V222.476C361.179 211.794 367.283 205.036 377.529 205.036C387.775 205.036 392.789 211.576 392.789 220.514V221.604H406.959V220.95C406.959 203.074 396.277 192.174 377.529 192.174C358.563 192.174 346.791 203.074 346.791 222.694V241.006C346.791 260.626 358.563 271.526 377.529 271.526Z" fill="white"/>
<path d="M432.779 270H447.167V206.78H469.403V193.7H410.543V206.78H432.779V270Z" fill="white"/>
</g>
</g>
<path d="M7.524 96H22.572V65.904H43.548C47.994 65.904 49.704 68.412 49.704 72.06V96H64.752V69.894C64.752 63.51 61.218 59.406 55.176 59.064V57.012C61.902 54.276 67.032 48.462 67.032 38.886V37.518C67.032 24.636 57.114 16.2 42.18 16.2H7.524V96ZM22.572 52.224V29.88H40.584C47.88 29.88 51.984 34.098 51.984 40.482V41.622C51.984 48.006 47.652 52.224 40.584 52.224H22.572ZM77.3873 96H129.371V82.32H92.4353V62.598H125.495V48.918H92.4353V29.88H128.687V16.2H77.3873V96ZM174.596 116.52H186.566V104.892H179.84C177.788 104.892 176.648 103.752 176.648 101.472V97.026C192.494 94.518 202.184 83.574 202.184 65.676V46.524C202.184 26.004 189.416 14.604 169.352 14.604C149.288 14.604 136.52 26.004 136.52 46.524V65.676C136.52 83.574 146.21 94.518 162.056 97.026V103.752C162.056 111.504 167.072 116.52 174.596 116.52ZM169.352 84.144C158.18 84.144 151.568 77.076 151.568 66.132V46.068C151.568 35.124 158.18 28.056 169.352 28.056C180.524 28.056 187.136 35.124 187.136 46.068V66.132C187.136 77.076 180.524 84.144 169.352 84.144ZM243.997 97.596C263.605 97.596 275.233 86.196 275.233 67.956V16.2H260.185V68.412C260.185 78.216 254.485 84.144 243.997 84.144C233.509 84.144 227.809 78.216 227.809 68.412V16.2H212.761V67.956C212.761 86.196 224.389 97.596 243.997 97.596ZM287.645 96H339.629V82.32H302.693V62.598H335.753V48.918H302.693V29.88H338.945V16.2H287.645V96ZM376.304 97.596C394.772 97.596 406.514 87.564 406.514 72.972C406.514 58.38 395.228 52.452 378.242 48.804L375.62 48.234C366.044 46.182 361.598 43.332 361.598 37.404C361.598 31.476 365.816 27.828 374.936 27.828C384.056 27.828 389.642 31.476 389.642 40.596V44.016H404.462V40.596C404.462 23.268 392.036 14.604 374.936 14.604C357.836 14.604 346.778 23.268 346.778 37.86C346.778 52.452 356.468 58.038 372.998 61.686L375.62 62.256C385.88 64.536 391.694 66.816 391.694 73.428C391.694 79.812 386.564 84.372 376.304 84.372C366.044 84.372 359.774 79.584 359.774 70.008V66.816H344.954V70.008C344.954 87.336 357.836 97.596 376.304 97.596ZM431.478 96H446.526V29.88H469.782V16.2H408.222V29.88H431.478V96Z" fill="#3C1174"/>
</svg>
