<svg width="124" height="124" viewBox="0 0 124 124" fill="none" xmlns="http://www.w3.org/2000/svg">
<circle cx="62" cy="62" r="62" fill="#282828"/>
<circle cx="61.9999" cy="61.9999" r="33.5479" stroke="#BCD63F" stroke-width="0.849315"/>
<path d="M63.6987 45.0137L63.6987 43.7397L61.1507 43.7397L61.1507 45.0137L63.6987 45.0137ZM61.1507 45.0137L61.1507 76.2954L63.6986 76.2954L63.6987 45.0137L61.1507 45.0137ZM73.041 67.2959C66.4971 67.2959 61.1506 72.5071 61.1506 78.9863L63.6986 78.9863C63.6986 73.9598 67.8584 69.8439 73.041 69.8439L73.041 67.2959ZM63.6986 78.9863C63.6986 72.5072 58.3521 67.2957 51.8081 67.2957L51.8081 69.8436C56.9908 69.8436 61.1506 73.9598 61.1506 78.9863L63.6986 78.9863Z" fill="white"/>
<path d="M42.5543 102.251C40.2779 101.117 38.2147 101.633 37.3191 103.432C36.4235 105.231 37.4508 106.654 39.3206 108.146L39.6088 108.377C40.6633 109.218 41.0364 109.842 40.6725 110.573C40.3087 111.304 39.5648 111.494 38.4407 110.935C37.3165 110.375 36.8519 109.582 37.4116 108.458L37.6215 108.037L35.7948 107.127L35.5849 107.549C34.5213 109.684 35.5212 111.515 37.629 112.565C39.7368 113.614 41.6316 113.225 42.5273 111.426C43.4229 109.628 42.5713 108.344 40.7577 106.88L40.4695 106.649C39.3447 105.738 38.768 105.1 39.1739 104.285C39.5657 103.498 40.4779 103.251 41.7426 103.881C43.0073 104.511 43.4863 105.486 42.8985 106.666L42.7026 107.059L44.5294 107.969L44.7253 107.576C45.7889 105.44 44.8307 103.384 42.5543 102.251Z" fill="#949494"/>
<path d="M34.7267 97.1486C32.9882 95.7534 31.1811 95.9737 29.8114 97.0283L31.0201 98.582C31.7836 97.9065 32.6591 97.7436 33.5895 98.4903C34.52 99.2371 34.729 100.431 33.8054 101.582L33.7071 101.705C32.7836 102.855 31.5724 102.91 30.642 102.163C29.7115 101.416 29.7105 100.49 30.2021 99.6766L28.453 98.7962C27.6293 100.349 27.8398 102.169 29.5783 103.564C31.3412 104.979 33.6384 104.95 35.2301 102.967L35.3676 102.796C36.9593 100.812 36.4896 98.5635 34.7267 97.1486Z" fill="#949494"/>
<path d="M30.3796 93.4518L29.086 91.9555L25.7372 94.8507C24.906 95.5694 24.0299 95.3722 23.3729 94.6122L22.7364 93.8759L21.4063 95.0258L22.0223 95.7383C22.4946 96.2845 23.0779 96.5272 23.6967 96.2828L23.8815 96.4966L23.2165 97.0715L24.4895 98.544L30.3796 93.4518Z" fill="#949494"/>
<path d="M24.4869 85.0863C23.3181 83.0785 21.1584 82.3014 18.9877 83.5649L18.7707 83.6913C16.6 84.9549 16.2092 87.2167 17.378 89.2245C18.5468 91.2324 20.7066 92.0095 22.8772 90.7459L23.0943 90.6196C25.265 89.356 25.6557 87.0942 24.4869 85.0863ZM22.9675 85.9708C23.5756 87.0155 23.3202 88.1994 22.0586 88.9339L21.9229 89.0128C20.6612 89.7473 19.5135 89.3982 18.8975 88.34C18.2815 87.2818 18.5447 86.1114 19.8064 85.377L19.9421 85.298C21.2038 84.5636 22.3594 84.9262 22.9675 85.9708Z" fill="#949494"/>
<path d="M21.6345 79.7398L20.9305 77.8914L10.6616 81.8024L11.3656 83.6508L21.6345 79.7398Z" fill="#949494"/>
<path d="M20.1227 75.3328L19.6185 73.4202L8.9931 76.2215L9.49733 78.134L20.1227 75.3328Z" fill="#949494"/>
<path d="M18.4482 63.2433L18.4199 61.0458L16.7874 61.0669L16.8068 62.5737C16.8105 62.8563 16.6555 63.0152 16.3416 63.0193L12.2919 63.0714L12.2644 60.9367L10.632 60.9577L10.6595 63.0925L8.24222 63.1236L8.26769 65.1013L10.6849 65.0702L10.71 67.0166L12.3424 66.9956L12.3174 65.0492L16.7124 64.9926C17.7797 64.9789 18.4615 64.2793 18.4482 63.2433Z" fill="#949494"/>
<path d="M19.4443 55.1266C19.8672 52.8422 18.7363 50.8448 16.2666 50.3876L16.0197 50.3419C13.55 49.8847 11.779 51.3449 11.3561 53.6294C10.9333 55.9139 12.0642 57.9112 14.5339 58.3684L14.7808 58.4141C17.2505 58.8713 19.0215 57.4111 19.4443 55.1266ZM17.7156 54.8066C17.4956 55.9951 16.53 56.7264 15.0945 56.4607L14.9402 56.4321C13.5047 56.1664 12.862 55.1534 13.0849 53.9494C13.3078 52.7454 14.2704 52.0296 15.7059 52.2954L15.8603 52.3239C17.2958 52.5897 17.9356 53.6181 17.7156 54.8066Z" fill="#949494"/>
<path d="M24.2645 41.9183C25.2945 40.0483 24.6825 38.6539 24.1658 37.8675L22.6433 38.8748C23.037 39.3963 23.3124 40.0677 22.7823 41.0302C22.2521 41.9927 21.2045 42.3655 20.2468 41.8918L22.9808 36.928L22.3895 36.6023C20.2995 35.4512 18.15 35.9698 17.0443 37.9773C15.9235 40.0123 16.5411 42.1447 18.6861 43.3261L18.8511 43.417C20.9961 44.5984 23.136 43.967 24.2645 41.9183ZM18.9618 41.1661C18.2462 40.6107 18.0343 39.7591 18.5492 38.8241C19.0415 37.9304 19.8897 37.6269 20.7189 37.9761L18.9618 41.1661Z" fill="#949494"/>
<path d="M26.5638 37.5705L28.0846 35.8142L27.264 32.7571L27.449 32.5435L30.5919 32.9186L32.1127 31.1623L27.2963 30.7294L26.2061 26.0892L24.7058 27.8218L25.5028 30.8583L25.3178 31.0719L22.1986 30.7174L20.6983 32.45L25.4467 32.8655L26.5638 37.5705Z" fill="#949494"/>
<path d="M35.1786 32.7021L36.7689 31.5261L34.3702 28.2823L34.5974 28.1143C35.1891 28.3601 36.0679 28.4131 37.2038 27.5731C38.7184 26.4531 39.1724 24.3212 37.6603 22.2765L37.511 22.0746C35.999 20.0299 33.815 19.8487 32.3131 20.9594C31.1771 21.7994 30.9704 22.6551 31.0348 23.3494L30.8076 23.5174L30.2476 22.7601L28.6825 23.9174L35.1786 32.7021ZM35.6975 26.5394C34.713 27.2674 33.5049 27.1651 32.6089 25.9534L32.5156 25.8272C31.6196 24.6155 31.8883 23.4211 32.8601 22.7024C33.832 21.9837 35.0527 22.0768 35.9487 23.2885L36.042 23.4147C36.938 24.6264 36.682 25.8114 35.6975 26.5394Z" fill="#949494"/>
<path d="M41.7329 24.5354L43.4969 23.6407L38.5264 13.8407L36.7624 14.7354L41.7329 24.5354Z" fill="#949494"/>
<path d="M49.4169 21.5783C51.6321 20.8781 52.8639 18.9413 52.1069 16.5464L52.0313 16.3069C51.2743 13.912 49.1532 13.0349 46.938 13.735C44.7227 14.4352 43.491 16.372 44.2479 18.7669L44.3236 19.0064C45.0805 21.4013 47.2016 22.2784 49.4169 21.5783ZM48.887 19.9018C47.7345 20.2661 46.6353 19.7574 46.1954 18.3654L46.1481 18.2157C45.7081 16.8237 46.3003 15.7805 47.4678 15.4115C48.6353 15.0425 49.7195 15.5559 50.1595 16.9479L50.2068 17.0976C50.6467 18.4896 50.0396 19.5376 48.887 19.9018Z" fill="#949494"/>
<path d="M55.2149 19.942L57.1785 19.7044L56.6468 15.3097C56.5148 14.2188 57.1675 13.6022 58.1649 13.4816L59.1311 13.3647L58.92 11.6192L57.9849 11.7324C57.268 11.8191 56.741 12.1675 56.5982 12.8173L56.3177 12.8512L56.2121 11.9785L54.2797 12.2123L55.2149 19.942Z" fill="#949494"/>
<path d="M65.3007 19.7145C67.4318 19.8408 68.4279 18.689 68.9158 17.8845L67.3519 16.9426C67.0503 17.5223 66.5624 18.0595 65.4655 17.9945C64.3686 17.9295 63.5817 17.1438 63.5978 16.0755L69.2548 16.4106L69.2947 15.7368C69.4358 13.3549 68.0437 11.637 65.7559 11.5015C63.4367 11.364 61.7768 12.8382 61.6319 15.2828L61.6208 15.4708C61.4759 17.9154 62.9658 19.5762 65.3007 19.7145ZM63.7008 14.6034C63.8947 13.7185 64.5725 13.1611 65.6381 13.2243C66.6566 13.2846 67.2952 13.92 67.3363 14.8188L63.7008 14.6034Z" fill="#949494"/>
<path d="M78.7664 22.8132C80.9243 23.6741 83.104 22.955 84.0347 20.6222L84.1278 20.3889C85.0584 18.056 83.9722 16.034 81.8143 15.1731C79.6564 14.3123 77.4766 15.0314 76.546 17.3642L76.4529 17.5975C75.5222 19.9304 76.6085 21.9524 78.7664 22.8132ZM79.4178 21.1802C78.2951 20.7324 77.7665 19.6426 78.3075 18.2867L78.3656 18.1409C78.9066 16.7849 80.0256 16.3524 81.1628 16.8061C82.3001 17.2598 82.8141 18.3438 82.2732 19.6997L82.215 19.8455C81.6741 21.2015 80.5405 21.6281 79.4178 21.1802Z" fill="#949494"/>
<path d="M86.6676 26.8848C87.8207 27.6737 88.6846 27.523 89.1932 27.2243L89.4264 27.3838L88.8503 28.226L90.4568 29.325L94.8532 22.8989L93.2207 21.7821L90.9871 25.047C90.1717 26.2389 89.11 26.5397 88.1124 25.8572C87.2314 25.2545 87.067 24.4383 87.7318 23.4666L90.2668 19.7612L88.6343 18.6444L86.0107 22.4793C84.9205 24.0729 85.1647 25.8566 86.6676 26.8848Z" fill="#949494"/>
<path d="M92.0877 30.9332L93.4859 32.3323L96.617 29.2031C97.3943 28.4263 98.2822 28.5598 98.9924 29.2704L99.6804 29.9588L100.924 28.716L100.258 28.0498C99.7478 27.5391 99.1484 27.3391 98.5489 27.6275L98.3492 27.4276L98.971 26.8062L97.595 25.4294L92.0877 30.9332Z" fill="#949494"/>
<path d="M96.632 40.9193L97.5614 42.6653L101.123 40.7696L101.255 41.019C100.925 41.5682 100.744 42.4296 101.407 43.6767C102.293 45.3395 104.335 46.102 106.579 44.9071L106.801 44.789C109.046 43.5941 109.546 41.4605 108.668 39.8116C108.005 38.5644 107.189 38.2341 106.492 38.1957L106.36 37.9463L107.191 37.5037L106.276 35.7855L96.632 40.9193ZM102.651 42.3387C102.076 41.2579 102.355 40.078 103.685 39.3699L103.824 39.2961C105.154 38.588 106.296 39.0294 106.864 40.0964C107.432 41.1634 107.16 42.3571 105.83 43.0652L105.692 43.139C104.361 43.8471 103.227 43.4196 102.651 42.3387Z" fill="#949494"/>
<path d="M103.763 48.5548L104.346 50.4447L108.576 49.1392C109.626 48.8151 110.349 49.3477 110.645 50.3077L110.932 51.2376L112.612 50.7191L112.334 49.8192C112.121 49.1292 111.685 48.6725 111.02 48.6477L110.937 48.3777L111.777 48.1185L111.202 46.2585L103.763 48.5548Z" fill="#949494"/>
<path d="M105.796 58.5826C106.06 60.8908 107.725 62.4703 110.221 62.1855L110.47 62.157C112.966 61.8721 114.232 59.958 113.969 57.6497C113.705 55.3414 112.04 53.762 109.544 54.0468L109.295 54.0753C106.799 54.3601 105.533 56.2743 105.796 58.5826ZM107.543 58.3832C107.406 57.1822 108.115 56.2007 109.566 56.0351L109.722 56.0173C111.172 55.8517 112.083 56.6326 112.222 57.8491C112.361 59.0656 111.65 60.0316 110.199 60.1972L110.043 60.215C108.593 60.3805 107.68 59.5841 107.543 58.3832Z" fill="#949494"/>
<path d="M105.841 67.6227C105.685 69.0268 106.172 69.7602 106.725 70.185L106.694 70.4658L105.758 70.3616L105.542 72.2962L116.463 73.5116L116.682 71.5459L112.61 71.0927L112.641 70.8119C113.224 70.545 113.86 69.9366 114.016 68.5325C114.225 66.6603 112.97 64.8781 110.443 64.5968L110.193 64.569C107.666 64.2877 106.048 65.7661 105.841 67.6227ZM107.492 68.4065C107.625 67.2052 108.523 66.3733 110.021 66.54L110.177 66.5573C111.675 66.724 112.37 67.7175 112.234 68.9344C112.099 70.1513 111.203 70.9676 109.705 70.8009L109.549 70.7836C108.051 70.6169 107.358 69.6078 107.492 68.4065Z" fill="#949494"/>
<path d="M103.874 77.2378C103.414 78.5571 103.786 79.3515 104.207 79.7643L104.114 80.0311L103.151 79.6953L102.51 81.5334L109.862 84.0956L110.513 82.2279L106.778 80.9261C105.414 80.4509 104.846 79.5049 105.244 78.3635C105.595 77.3555 106.34 76.9833 107.452 77.3707L111.691 78.8481L112.342 76.9804L107.954 75.4513C106.131 74.8159 104.473 75.5182 103.874 77.2378Z" fill="#949494"/>
<path d="M99.3772 86.521C98.2089 88.4194 98.6521 90.1852 99.8687 91.4131L101.26 90.0206C100.495 89.347 100.225 88.4986 100.85 87.4826C101.475 86.4665 102.634 86.1107 103.891 86.884L104.024 86.9663C105.281 87.7397 105.486 88.9346 104.861 89.9507C104.235 90.9668 103.316 91.083 102.448 90.6963L101.792 92.5412C103.435 93.1655 105.214 92.7305 106.383 90.832C107.567 88.9069 107.254 86.631 105.088 85.2982L104.901 85.1831C102.735 83.8503 100.562 84.5959 99.3772 86.521Z" fill="#949494"/>
<path d="M94.2583 93.4911L92.7708 95.1089L93.9725 96.2139L94.9925 95.1046C95.1838 94.8966 95.4056 94.8873 95.6367 95.0998L98.618 97.8411L97.1729 99.4126L98.3747 100.518L99.8197 98.9461L101.599 100.582L102.938 99.1264L101.158 97.4901L102.476 96.0573L101.274 94.9523L99.9567 96.3851L96.7212 93.4101C95.9355 92.6875 94.9595 92.7285 94.2583 93.4911Z" fill="#949494"/>
<path d="M88.3217 98.4511C86.742 99.6413 86.2712 101.156 87.2536 102.46C88.2359 103.763 89.6415 103.333 91.2347 102.526L91.633 102.324C92.2853 101.99 92.7591 101.889 93.0614 102.29C93.3353 102.654 93.1794 103.125 92.5775 103.578C91.9757 104.032 91.37 104.115 90.7503 103.579L89.6235 105.136C90.6675 105.921 92.1305 105.88 93.5221 104.832C95.0016 103.717 95.46 102.291 94.5343 101.062C93.6086 99.8336 92.162 100.157 90.6786 100.901L90.2803 101.103C89.4367 101.522 88.991 101.583 88.6982 101.194C88.4053 100.806 88.5391 100.253 89.2663 99.7049C89.9935 99.157 90.7906 98.9889 91.6148 99.7438L92.7858 98.2719C91.5903 97.1286 89.9516 97.2232 88.3217 98.4511Z" fill="#949494"/>
<path d="M68.3337 111.707L67.1093 111.707L65.979 111.911L65.9006 111.707L66.8424 111.063L67.7058 110.184L66.8895 109.368L66.0104 110.231L65.3668 111.173L65.1628 111.094L65.3668 109.964L65.3668 108.74L64.2052 108.74L64.2052 109.964L64.4093 111.094L64.2052 111.173L63.5616 110.231L62.6825 109.368L61.8662 110.184L62.7296 111.063L63.6715 111.707L63.593 111.911L62.4628 111.707L61.2383 111.707L61.2383 112.868L62.4628 112.868L63.593 112.664L63.6715 112.868L62.7296 113.512L61.8662 114.391L62.6825 115.207L63.5616 114.344L64.2052 113.402L64.4093 113.48L64.2052 114.611L64.2052 115.835L65.3668 115.835L65.3668 114.611L65.1628 113.48L65.3668 113.402L66.0104 114.344L66.8895 115.207L67.7058 114.391L66.8424 113.512L65.9006 112.868L65.979 112.664L67.1093 112.868L68.3337 112.868L68.3337 111.707Z" fill="#949494"/>
</svg>
