<svg width="24" height="24" viewBox="0 0 24 24" fill="none" xmlns="http://www.w3.org/2000/svg">
<path d="M20.25 5C17.587 5 14.992 4.057 12.45 2.15C12.3202 2.05263 12.1623 2 12 2C11.8377 2 11.6798 2.05263 11.55 2.15C9.008 4.057 6.413 5 3.75 5C3.55109 5 3.36032 5.07902 3.21967 5.21967C3.07902 5.36032 3 5.55109 3 5.75V11C3 16.001 5.958 19.676 11.725 21.948C11.9017 22.0176 12.0983 22.0176 12.275 21.948C18.042 19.676 21 16 21 11V5.75C21 5.55109 20.921 5.36032 20.7803 5.21967C20.6397 5.07902 20.4489 5 20.25 5ZM16.757 9.303L10.757 14.803C10.6145 14.9335 10.4271 15.004 10.2339 14.9997C10.0407 14.9954 9.8566 14.9167 9.72 14.78L7.22 12.28C7.14631 12.2113 7.08721 12.1285 7.04622 12.0365C7.00523 11.9445 6.98319 11.8452 6.98141 11.7445C6.97963 11.6438 6.99816 11.5438 7.03588 11.4504C7.0736 11.357 7.12974 11.2722 7.20096 11.201C7.27218 11.1297 7.35701 11.0736 7.4504 11.0359C7.54379 10.9982 7.64382 10.9796 7.74452 10.9814C7.84523 10.9832 7.94454 11.0052 8.03654 11.0462C8.12854 11.0872 8.21134 11.1463 8.28 11.22L10.273 13.212L15.743 8.197C15.8897 8.06253 16.0837 7.99184 16.2825 8.00047C16.4813 8.00909 16.6685 8.09634 16.803 8.243C16.9375 8.38966 17.0082 8.58374 16.9995 8.78253C16.9909 8.98132 16.9037 9.16854 16.757 9.303Z" fill="#3BB76C"/>
</svg>
