<svg width="30" height="31" viewBox="0 0 30 31" fill="none" xmlns="http://www.w3.org/2000/svg">
<path d="M14.9431 3.02738C11.7207 3.04242 8.63532 4.33309 6.362 6.61705C4.08869 8.90102 2.81246 11.9924 2.8125 15.2149C2.8125 18.4472 4.09654 21.5471 6.38214 23.8327C8.66774 26.1183 11.7677 27.4023 15 27.4023C18.2323 27.4023 21.3323 26.1183 23.6179 23.8327C25.9035 21.5471 27.1875 18.4472 27.1875 15.2149C27.1875 11.9825 25.9035 8.8826 23.6179 6.59701C21.3323 4.31141 18.2323 3.02738 15 3.02738C14.981 3.02733 14.9621 3.02733 14.9431 3.02738Z" fill="#DADADA"/>
<path d="M19.3775 10.1421C19.3775 10.1421 20.6675 9.63912 20.56 10.8608C20.5242 11.3638 20.2017 13.1244 19.9509 15.0287L19.0908 20.6698C19.0908 20.6698 19.0192 21.4962 18.3741 21.64C17.7291 21.7837 16.7616 21.1369 16.5824 20.9932C16.4391 20.8854 13.8948 19.2685 12.9989 18.4781C12.7481 18.2625 12.4614 17.8313 13.0348 17.3283L16.7974 13.7352C17.2274 13.304 17.6574 12.298 15.8657 13.5196L10.8489 16.9331C10.8489 16.9331 10.2755 17.2923 9.20051 16.969L6.87125 16.2504C6.87125 16.2504 6.01122 15.7114 7.48044 15.1724C11.0639 13.4837 15.4716 11.759 19.3775 10.1421Z" fill="#161617"/>
</svg>
