<svg width="708" height="230" viewBox="0 0 708 230" fill="none" xmlns="http://www.w3.org/2000/svg">
<path fill-rule="evenodd" clip-rule="evenodd" d="M107.455 14.7136C107.455 12.6785 107.842 10.7656 108.615 8.97469C109.388 7.18382 110.426 5.63716 111.729 4.33471C113.072 2.99156 114.639 1.93332 116.43 1.15999C118.221 0.386664 120.134 0 122.169 0C124.204 0 126.096 0.386664 127.847 1.15999C129.637 1.93332 131.204 2.99156 132.548 4.33471C133.891 5.67787 134.949 7.24488 135.722 9.03574C136.496 10.7859 136.882 12.6785 136.882 14.7136V29.183C136.882 31.2181 136.496 33.1311 135.722 34.9219C134.949 36.7128 133.891 38.2798 132.548 39.623C131.245 40.9254 129.699 41.9633 127.908 42.7366C126.117 43.51 124.204 43.8966 122.169 43.8966C120.134 43.8966 118.221 43.51 116.43 42.7366C114.639 41.9633 113.072 40.9254 111.729 39.623C110.426 38.2798 109.388 36.7128 108.615 34.9219C107.842 33.1311 107.455 31.2181 107.455 29.183V14.7136ZM114.842 29.183C114.842 30.2006 115.026 31.157 115.392 32.0525C115.799 32.9072 116.328 33.6805 116.979 34.3725C117.671 35.0237 118.445 35.5528 119.299 35.9598C120.195 36.3261 121.151 36.5093 122.169 36.5093C123.186 36.5093 124.122 36.3261 124.977 35.9598C125.873 35.5528 126.646 35.0237 127.297 34.3725C127.948 33.6805 128.457 32.9072 128.823 32.0525C129.23 31.157 129.434 30.2006 129.434 29.183V14.7136C129.434 13.7368 129.23 12.8006 128.823 11.9052C128.457 11.0098 127.948 10.2364 127.297 9.58522C126.646 8.93399 125.873 8.42522 124.977 8.05891C124.122 7.65189 123.186 7.44839 122.169 7.44839C121.192 7.44839 120.256 7.65189 119.36 8.05891C118.465 8.42522 117.671 8.93399 116.979 9.58522C116.328 10.2364 115.799 11.0098 115.392 11.9052C115.026 12.8006 114.842 13.7368 114.842 14.7136V29.183ZM1.22168 0.610523H28.8784V7.99785H18.7437V43.3472H11.3564V7.99785H1.22168V0.610523ZM60.4525 0.610523V43.3472H53.0041V25.0925H38.4126V43.3472H31.0252V0.610523H38.4126V17.6441H53.0041V0.610523H60.4525ZM65.3552 0.610523H88.9214V7.99785H72.7426V17.6441H87.3341V25.0925H72.7426V35.8988H88.9214V43.3472H65.3552V0.610523ZM174.202 35.1661V0.610523H166.814V36.5093H164.311L156.557 0.610523H140.562V43.3472H147.949V2.19788H149.353L156.802 36.8146C157.005 37.8321 157.371 38.7682 157.901 39.623C158.47 40.4777 159.122 41.2307 159.854 41.8819C160.628 42.5331 161.482 43.0419 162.418 43.4082C163.395 43.7745 164.392 43.9577 165.41 43.9577C166.631 43.9577 167.771 43.7338 168.829 43.2861C169.887 42.7977 170.803 42.1668 171.576 41.3935C172.39 40.5795 173.021 39.6433 173.469 38.5851C173.957 37.5268 174.202 36.3872 174.202 35.1661ZM186.154 35.8988V0.610523H178.767V43.3472H202.333V35.8988H186.154ZM222.768 0.610523L216.479 20.5746H215.136L208.848 0.610523H201.094L207.871 22.162H212.084V43.3472H219.532V22.162H223.745L230.521 0.610523H222.768ZM228.191 84.4465H213.926C213.926 82.5758 213.537 80.783 212.757 79.0681C212.056 77.3532 211.081 75.8722 209.834 74.6251C208.587 73.3779 207.106 72.4035 205.391 71.702C203.754 70.9225 201.961 70.5328 200.013 70.5328C198.142 70.5328 196.349 70.9225 194.634 71.702C192.919 72.4035 191.399 73.3779 190.074 74.6251C188.827 75.8722 187.814 77.3532 187.034 79.0681C186.333 80.783 185.982 82.5758 185.982 84.4465V112.157C185.982 114.106 186.333 115.938 187.034 117.652C187.814 119.289 188.827 120.77 190.074 122.095C191.399 123.343 192.919 124.356 194.634 125.135C196.349 125.837 198.142 126.188 200.013 126.188C201.961 126.188 203.754 125.837 205.391 125.135C207.106 124.356 208.587 123.343 209.834 122.095C211.081 120.77 212.056 119.289 212.757 117.652C213.537 115.938 213.926 114.106 213.926 112.157V110.286H200.013V96.1387H228.191V112.157C228.191 116.054 227.45 119.718 225.969 123.148C224.488 126.577 222.462 129.578 219.889 132.151C217.395 134.645 214.433 136.633 211.003 138.114C207.574 139.595 203.91 140.335 200.013 140.335C196.115 140.335 192.452 139.595 189.022 138.114C185.592 136.633 182.591 134.645 180.019 132.151C177.525 129.578 175.537 126.577 174.056 123.148C172.575 119.718 171.834 116.054 171.834 112.157V84.4465C171.834 80.5491 172.575 76.9245 174.056 73.5728C175.537 70.143 177.564 67.142 180.136 64.5698C182.708 61.9975 185.709 59.9708 189.139 58.4898C192.569 57.0088 196.193 56.2683 200.013 56.2683C203.91 56.2683 207.535 57.0088 210.886 58.4898C214.316 59.9708 217.317 61.9975 219.889 64.5698C222.462 67.142 224.488 70.143 225.969 73.5728C227.45 76.9245 228.191 80.5491 228.191 84.4465ZM14.1476 90.0588H32.8551C35.4274 90.0588 37.6099 89.1624 39.4027 87.3696C41.1955 85.5768 42.0919 83.3942 42.0919 80.8219C42.0919 78.2496 41.1955 76.0671 39.4027 74.2743C37.6099 72.4815 35.4274 71.5851 32.8551 71.5851H14.1476V90.0588ZM32.8551 57.4375C36.1289 57.4375 39.1689 58.0611 41.975 59.3083C44.8591 60.5554 47.3534 62.2313 49.458 64.3359C51.5626 66.4405 53.2385 68.9349 54.4857 71.8189C55.7329 74.6251 56.3564 77.6261 56.3564 80.8219C56.3564 84.0957 55.7329 87.1747 54.4857 90.0588C53.2385 92.8649 51.5626 95.3203 49.458 97.4249C47.3534 99.5295 44.8591 101.205 41.975 102.453C39.1689 103.7 36.1289 104.323 32.8551 104.323H14.1476V139.283H0V57.4375H32.8551ZM75.7829 125.018V57.4375H61.6353V139.283H106.767V125.018H75.7829ZM163.79 123.148C165.271 119.718 166.012 116.093 166.012 112.274V57.4375H151.747V112.274C151.747 114.145 151.358 115.938 150.578 117.652C149.877 119.367 148.902 120.848 147.655 122.095C146.408 123.343 144.927 124.356 143.212 125.135C141.575 125.837 139.782 126.188 137.834 126.188C135.963 126.188 134.17 125.837 132.455 125.135C130.818 124.356 129.337 123.343 128.012 122.095C126.765 120.848 125.752 119.367 124.972 117.652C124.193 115.938 123.803 114.145 123.803 112.274V57.4375H109.656V112.274C109.656 116.093 110.396 119.718 111.877 123.148C113.358 126.577 115.385 129.578 117.957 132.151C120.529 134.723 123.53 136.75 126.96 138.231C130.39 139.712 134.014 140.452 137.834 140.452C141.731 140.452 145.356 139.712 148.708 138.231C152.137 136.75 155.138 134.723 157.711 132.151C160.283 129.578 162.309 126.577 163.79 123.148ZM301.12 57.4375L289.077 95.671H286.505L274.462 57.4375H259.613L272.591 98.711H280.659V139.283H294.923V98.711H302.991L315.969 57.4375H301.12ZM316.548 84.4465C316.548 80.5491 317.289 76.8856 318.77 73.4558C320.251 70.0261 322.238 67.0641 324.733 64.5698C327.305 61.9975 330.306 59.9708 333.736 58.4898C337.165 57.0088 340.829 56.2683 344.726 56.2683C348.624 56.2683 352.248 57.0088 355.6 58.4898C359.03 59.9708 362.031 61.9975 364.603 64.5698C367.175 67.142 369.202 70.143 370.683 73.5728C372.164 76.9245 372.905 80.5491 372.905 84.4465V112.157C372.905 116.054 372.164 119.718 370.683 123.148C369.202 126.577 367.175 129.578 364.603 132.151C362.109 134.645 359.147 136.633 355.717 138.114C352.287 139.595 348.624 140.335 344.726 140.335C340.829 140.335 337.165 139.595 333.736 138.114C330.306 136.633 327.305 134.645 324.733 132.151C322.238 129.578 320.251 126.577 318.77 123.148C317.289 119.718 316.548 116.054 316.548 112.157V84.4465ZM330.696 112.157C330.696 114.106 331.047 115.938 331.748 117.652C332.528 119.289 333.541 120.77 334.788 122.095C336.113 123.343 337.594 124.356 339.231 125.135C340.946 125.837 342.778 126.188 344.726 126.188C346.675 126.188 348.468 125.837 350.105 125.135C351.82 124.356 353.301 123.343 354.548 122.095C355.795 120.77 356.769 119.289 357.471 117.652C358.25 115.938 358.64 114.106 358.64 112.157V84.4465C358.64 82.5758 358.25 80.783 357.471 79.0681C356.769 77.3532 355.795 75.8722 354.548 74.6251C353.301 73.3779 351.82 72.4035 350.105 71.702C348.468 70.9225 346.675 70.5328 344.726 70.5328C342.856 70.5328 341.063 70.9225 339.348 71.702C337.633 72.4035 336.113 73.3779 334.788 74.6251C333.541 75.8722 332.528 77.3532 331.748 79.0681C331.047 80.783 330.696 82.5758 330.696 84.4465V112.157ZM432.917 123.148C434.398 119.718 435.138 116.093 435.138 112.274V57.4375H420.874V112.274C420.874 114.145 420.484 115.938 419.705 117.652C419.003 119.367 418.029 120.848 416.781 122.095C415.534 123.343 414.053 124.356 412.338 125.135C410.702 125.837 408.909 126.188 406.96 126.188C405.089 126.188 403.296 125.837 401.582 125.135C399.945 124.356 398.464 123.343 397.139 122.095C395.891 120.848 394.878 119.367 394.099 117.652C393.319 115.938 392.929 114.145 392.929 112.274V57.4375H378.782V112.274C378.782 116.093 379.522 119.718 381.003 123.148C382.484 126.577 384.511 129.578 387.083 132.151C389.656 134.723 392.657 136.75 396.086 138.231C399.516 139.712 403.141 140.452 406.96 140.452C410.857 140.452 414.482 139.712 417.834 138.231C421.264 136.75 424.264 134.723 426.837 132.151C429.409 129.578 431.436 126.577 432.917 123.148ZM538.529 57.4375V123.615C538.529 125.954 538.062 128.136 537.126 130.163C536.269 132.19 535.061 133.983 533.502 135.541C532.021 137.022 530.267 138.231 528.24 139.166C526.214 140.023 524.031 140.452 521.693 140.452C519.744 140.452 517.834 140.101 515.963 139.4C514.171 138.698 512.534 137.724 511.053 136.477C509.65 135.23 508.402 133.788 507.311 132.151C506.298 130.514 505.596 128.721 505.207 126.772L490.942 60.4775H488.253V139.283H474.105V57.4375H504.739L519.588 126.188H524.382V57.4375H538.529ZM547.273 57.4375H592.405V71.5851H561.42V90.0588H589.365V104.323H561.42V125.018H592.405V139.283H547.273V57.4375ZM644.563 57.4375H599.431V139.283H644.563V125.018H613.579V104.323H641.523V90.0588H613.579V71.5851H644.563V57.4375ZM690.641 59.659C687.29 58.178 683.665 57.4375 679.768 57.4375H651.589V139.283H679.768C683.665 139.283 687.29 138.542 690.641 137.061C694.071 135.58 697.072 133.554 699.644 130.982C702.217 128.409 704.243 125.408 705.724 121.979C707.205 118.549 707.946 114.924 707.946 111.105V85.6157C707.946 81.7183 707.205 78.0938 705.724 74.742C704.243 71.3123 702.217 68.3113 699.644 65.739C697.072 63.1667 694.071 61.14 690.641 59.659ZM665.737 71.5851H679.768C681.716 71.5851 683.509 71.9748 685.146 72.7543C686.861 73.4558 688.342 74.4692 689.589 75.7943C690.836 77.0415 691.811 78.5225 692.512 80.2373C693.292 81.8742 693.681 83.667 693.681 85.6157V111.105C693.681 112.976 693.292 114.768 692.512 116.483C691.811 118.198 690.836 119.679 689.589 120.926C688.342 122.173 686.861 123.187 685.146 123.966C683.431 124.668 681.638 125.018 679.768 125.018H665.737V71.5851ZM0 153.107V187.332H14.1476V153.107H0ZM61.6353 153.107V187.332H106.767V173.067H75.7829V153.107H61.6353ZM109.656 153.107V160.323C109.656 164.142 110.396 167.767 111.877 171.197C113.358 174.626 115.385 177.627 117.957 180.2C120.529 182.772 123.53 184.799 126.96 186.28C130.39 187.761 134.014 188.501 137.834 188.501C141.731 188.501 145.356 187.761 148.708 186.28C152.137 184.799 155.138 182.772 157.711 180.2C160.283 177.627 162.309 174.626 163.79 171.197C165.271 167.767 166.012 164.142 166.012 160.323V153.107H151.748V160.323C151.748 162.194 151.358 163.987 150.578 165.701C149.877 167.416 148.902 168.897 147.655 170.144C146.408 171.392 144.927 172.405 143.212 173.184C141.575 173.886 139.782 174.237 137.834 174.237C135.963 174.237 134.17 173.886 132.455 173.184C130.818 172.405 129.337 171.392 128.012 170.144C126.765 168.897 125.752 167.416 124.972 165.701C124.193 163.987 123.803 162.194 123.803 160.323V153.107H109.656ZM171.834 153.107V160.206C171.834 164.103 172.575 167.767 174.056 171.197C175.537 174.626 177.525 177.627 180.019 180.2C182.591 182.694 185.592 184.682 189.022 186.163C192.452 187.644 196.115 188.384 200.013 188.384C203.91 188.384 207.574 187.644 211.003 186.163C214.433 184.682 217.395 182.694 219.889 180.2C222.462 177.627 224.488 174.626 225.969 171.197C227.45 167.767 228.191 164.103 228.191 160.206V153.107H200.013V158.335H213.926V160.206C213.926 162.155 213.537 163.987 212.757 165.701C212.056 167.338 211.081 168.819 209.834 170.144C208.587 171.392 207.106 172.405 205.391 173.184C203.754 173.886 201.961 174.237 200.013 174.237C198.142 174.237 196.349 173.886 194.634 173.184C192.919 172.405 191.399 171.392 190.074 170.144C188.827 168.819 187.814 167.338 187.034 165.701C186.333 163.987 185.982 162.155 185.982 160.206V153.107H171.834ZM280.659 153.107V187.332H294.923V153.107H280.659ZM316.548 153.107V160.206C316.548 164.103 317.289 167.767 318.77 171.197C320.251 174.626 322.238 177.627 324.733 180.2C327.305 182.694 330.306 184.682 333.736 186.163C337.165 187.644 340.829 188.384 344.726 188.384C348.624 188.384 352.287 187.644 355.717 186.163C359.147 184.682 362.109 182.694 364.603 180.2C367.176 177.627 369.202 174.626 370.683 171.197C372.164 167.767 372.905 164.103 372.905 160.206V153.107H358.64V160.206C358.64 162.155 358.25 163.987 357.471 165.701C356.769 167.338 355.795 168.819 354.548 170.144C353.301 171.392 351.82 172.405 350.105 173.184C348.468 173.886 346.675 174.237 344.726 174.237C342.778 174.237 340.946 173.886 339.231 173.184C337.594 172.405 336.113 171.392 334.788 170.144C333.541 168.819 332.528 167.338 331.748 165.701C331.047 163.987 330.696 162.155 330.696 160.206V153.107H316.548ZM378.782 153.107V160.323C378.782 164.142 379.522 167.767 381.003 171.197C382.484 174.626 384.511 177.627 387.083 180.2C389.656 182.772 392.657 184.799 396.086 186.28C399.516 187.761 403.141 188.501 406.96 188.501C410.858 188.501 414.482 187.761 417.834 186.28C421.264 184.799 424.265 182.772 426.837 180.2C429.409 177.627 431.436 174.626 432.917 171.197C434.398 167.767 435.138 164.142 435.138 160.323V153.107H420.874V160.323C420.874 162.194 420.484 163.987 419.705 165.701C419.003 167.416 418.029 168.897 416.782 170.144C415.534 171.392 414.053 172.405 412.339 173.184C410.702 173.886 408.909 174.237 406.96 174.237C405.089 174.237 403.297 173.886 401.582 173.184C399.945 172.405 398.464 171.392 397.139 170.144C395.892 168.897 394.878 167.416 394.099 165.701C393.319 163.987 392.929 162.194 392.929 160.323V153.107H378.782ZM474.105 153.107V187.332H488.253V153.107H474.105ZM500.534 153.107L505.207 174.821C505.596 176.77 506.298 178.563 507.311 180.2C508.402 181.837 509.65 183.279 511.053 184.526C512.534 185.773 514.171 186.747 515.963 187.449C517.834 188.15 519.744 188.501 521.693 188.501C524.031 188.501 526.214 188.072 528.24 187.215C530.267 186.28 532.021 185.071 533.502 183.59C535.061 182.032 536.269 180.239 537.126 178.212C538.062 176.185 538.529 174.003 538.529 171.664V153.107H524.382V174.237H519.588L515.024 153.107H500.534ZM547.273 153.107V187.332H592.405V173.067H561.421V153.107H547.273ZM599.431 153.107V187.332H644.563V173.067H613.579V153.107H599.431ZM651.589 153.107V187.332H679.768C683.665 187.332 687.29 186.591 690.641 185.11C694.071 183.629 697.072 181.603 699.644 179.031C702.217 176.458 704.243 173.457 705.724 170.027C707.205 166.598 707.946 162.973 707.946 159.154V153.107H693.681V159.154C693.681 161.025 693.292 162.817 692.512 164.532C691.811 166.247 690.836 167.728 689.589 168.975C688.342 170.222 686.861 171.236 685.146 172.015C683.431 172.717 681.638 173.067 679.768 173.067H665.737V153.107H651.589ZM0.00675012 228.395V201.156H14.1543V228.395H0.00675012ZM61.642 228.395V201.156H75.7896V214.131H106.774V228.395H61.642ZM109.662 201.386V201.156H123.81V201.386C123.81 203.257 124.2 205.05 124.979 206.765C125.759 208.48 126.772 209.961 128.019 211.208C129.344 212.455 130.825 213.468 132.462 214.248C134.177 214.949 135.97 215.3 137.841 215.3C139.789 215.3 141.582 214.949 143.219 214.248C144.934 213.468 146.415 212.455 147.662 211.208C148.909 209.961 149.883 208.48 150.585 206.765C151.365 205.05 151.754 203.257 151.754 201.386V201.156H166.019V201.386C166.019 205.206 165.278 208.83 163.797 212.26C162.316 215.69 160.29 218.691 157.717 221.263C155.145 223.835 152.144 225.862 148.714 227.343C145.363 228.824 141.738 229.565 137.841 229.565C134.021 229.565 130.396 228.824 126.967 227.343C123.537 225.862 120.536 223.835 117.964 221.263C115.391 218.691 113.365 215.69 111.884 212.26C110.403 208.83 109.662 205.206 109.662 201.386ZM171.841 201.269V201.156H185.989V201.269C185.989 203.218 186.339 205.05 187.041 206.765C187.82 208.402 188.834 209.883 190.081 211.208C191.406 212.455 192.926 213.468 194.641 214.248C196.356 214.949 198.149 215.3 200.019 215.3C201.968 215.3 203.761 214.949 205.398 214.248C207.113 213.468 208.594 212.455 209.841 211.208C211.088 209.883 212.062 208.402 212.764 206.765C213.543 205.05 213.933 203.218 213.933 201.269V201.156H228.198V201.269C228.198 205.167 227.457 208.83 225.976 212.26C224.495 215.69 222.468 218.691 219.896 221.263C217.402 223.757 214.44 225.745 211.01 227.226C207.58 228.707 203.917 229.448 200.019 229.448C196.122 229.448 192.458 228.707 189.029 227.226C185.599 225.745 182.598 223.757 180.026 221.263C177.531 218.691 175.544 215.69 174.063 212.26C172.582 208.83 171.841 205.167 171.841 201.269ZM280.665 228.395V201.156H294.93V228.395H280.665ZM316.555 201.269V201.156H330.703V201.269C330.703 203.218 331.053 205.05 331.755 206.765C332.534 208.402 333.548 209.883 334.795 211.208C336.12 212.455 337.601 213.468 339.238 214.248C340.953 214.949 342.785 215.3 344.733 215.3C346.682 215.3 348.475 214.949 350.112 214.248C351.827 213.468 353.308 212.455 354.555 211.208C355.802 209.883 356.776 208.402 357.478 206.765C358.257 205.05 358.647 203.218 358.647 201.269V201.156H372.911V201.269C372.911 205.167 372.171 208.83 370.69 212.26C369.209 215.69 367.182 218.691 364.61 221.263C362.116 223.757 359.154 225.745 355.724 227.226C352.294 228.707 348.631 229.448 344.733 229.448C340.836 229.448 337.172 228.707 333.743 227.226C330.313 225.745 327.312 223.757 324.74 221.263C322.245 218.691 320.258 215.69 318.777 212.26C317.296 208.83 316.555 205.167 316.555 201.269ZM378.789 201.386V201.156H392.936V201.386C392.936 203.257 393.326 205.05 394.105 206.765C394.885 208.48 395.898 209.961 397.145 211.208C398.471 212.455 399.952 213.468 401.588 214.248C403.303 214.949 405.096 215.3 406.967 215.3C408.916 215.3 410.708 214.949 412.345 214.248C414.06 213.468 415.541 212.455 416.788 211.208C418.035 209.961 419.01 208.48 419.711 206.765C420.491 205.05 420.881 203.257 420.881 201.386V201.156H435.145V201.386C435.145 205.206 434.405 208.83 432.924 212.26C431.443 215.69 429.416 218.691 426.844 221.263C424.271 223.835 421.27 225.862 417.841 227.343C414.489 228.824 410.864 229.565 406.967 229.565C403.147 229.565 399.523 228.824 396.093 227.343C392.663 225.862 389.662 223.835 387.09 221.263C384.518 218.691 382.491 215.69 381.01 212.26C379.529 208.83 378.789 205.206 378.789 201.386ZM474.112 228.395V201.156H488.26V228.395H474.112ZM505.213 215.885L502.044 201.156H516.54L519.595 215.3H524.389V201.156H538.536V212.728C538.536 215.066 538.069 217.249 537.133 219.275C536.276 221.302 535.068 223.095 533.509 224.654C532.028 226.135 530.274 227.343 528.247 228.278C526.22 229.136 524.038 229.565 521.699 229.565C519.751 229.565 517.841 229.214 515.97 228.512C514.177 227.811 512.541 226.836 511.059 225.589C509.656 224.342 508.409 222.9 507.318 221.263C506.305 219.626 505.603 217.833 505.213 215.885ZM547.28 228.395V201.156H561.427V214.131H592.412V228.395H547.28ZM599.438 228.395V201.156H613.586V214.131H644.57V228.395H599.438ZM651.596 228.395V201.156H665.744V214.131H679.774C681.645 214.131 683.438 213.78 685.153 213.079C686.868 212.299 688.349 211.286 689.596 210.039C690.843 208.791 691.817 207.31 692.519 205.596C693.167 204.169 693.546 202.689 693.655 201.156H707.938C707.826 204.632 707.09 207.943 705.731 211.091C704.25 214.521 702.223 217.522 699.651 220.094C697.079 222.666 694.078 224.693 690.648 226.174C687.296 227.655 683.672 228.395 679.774 228.395H651.596Z" fill="url(#paint0_linear_1742_3123)"/>
<defs>
<linearGradient id="paint0_linear_1742_3123" x1="708" y1="0.47669" x2="-65.6648" y2="243.882" gradientUnits="userSpaceOnUse">
<stop stop-color="#383838"/>
<stop offset="1" stop-color="#383838" stop-opacity="0"/>
</linearGradient>
</defs>
</svg>
