<svg width="461" height="162" viewBox="0 0 461 162" fill="none" xmlns="http://www.w3.org/2000/svg">
<path d="M62.2253 11.0788L60.6247 20.2024C60.518 21.1628 60.4113 22.1232 60.3045 23.0836C60.1978 24.044 60.1445 24.951 60.1445 25.8047C60.1445 27.0852 60.0911 28.6858 59.9844 30.6066C59.9844 32.4207 59.9844 34.3948 59.9844 36.529L65.2665 35.8887C66.4403 35.782 67.5608 35.782 68.6279 35.8887C69.8017 35.8887 70.9755 35.9954 72.1493 36.2088C75.4573 36.8491 77.3781 38.9299 77.9116 42.4513C78.0183 42.8782 78.0717 43.2517 78.0717 43.5718C78.1784 43.8919 78.2317 44.2654 78.2317 44.6922C78.2317 47.4667 77.5381 49.5475 76.1509 50.9347C74.7637 52.2153 72.3627 52.8022 68.948 52.6955L59.9844 51.0948C59.9844 53.7625 59.9311 56.3236 59.8244 58.7779C59.8244 61.1255 59.8244 63.6332 59.8244 66.3009L65.2665 65.6606C66.4403 65.5539 67.5608 65.5539 68.6279 65.6606C69.8017 65.6606 70.9755 65.7674 72.1493 65.9808C75.4573 66.621 77.3781 68.7019 77.9116 72.2233C78.0183 72.6501 78.0717 73.0236 78.0717 73.3437C78.1784 73.6638 78.2317 74.0373 78.2317 74.4642C78.2317 77.2386 77.5381 79.3194 76.1509 80.7067C74.7637 81.9872 72.3627 82.5741 68.948 82.4674L59.8244 80.8667C59.8244 83.321 59.8244 85.722 59.8244 88.0696C59.9311 90.3105 59.9844 92.1779 59.9844 93.6719C59.9844 95.3792 60.0911 97.0866 60.3045 98.7939C60.6247 100.501 60.8914 102.209 61.1049 103.916C61.3183 105.41 61.2649 106.797 60.9448 108.078C60.6247 109.358 59.8777 110.532 58.7039 111.599C57.6368 112.559 56.4097 113.2 55.0224 113.52C53.7419 113.84 52.4614 113.84 51.1809 113.52C50.0071 113.093 48.8866 112.453 47.8195 111.599C46.8592 110.639 46.1656 109.411 45.7387 107.918C45.2052 106.317 44.9917 104.716 45.0985 103.116C45.3119 101.515 45.5787 99.9677 45.8988 98.4738C46.3256 96.4463 46.5924 94.4722 46.6991 92.5514C46.8058 90.5239 46.8592 88.4965 46.8592 86.469V80.3865C43.7646 80.2798 40.8834 80.2265 38.2157 80.2265C35.548 80.2265 32.7735 80.2265 29.8924 80.2265C29.8924 81.9338 29.9991 83.6412 30.2125 85.3485C30.5326 86.9492 30.7994 88.6032 31.0128 90.3105C31.2262 91.8044 31.1729 93.1917 30.8528 94.4722C30.5326 95.7527 29.7857 96.9265 28.6119 97.9936C27.5448 98.954 26.3176 99.5942 24.9304 99.9144C23.6499 100.234 22.3694 100.234 21.0888 99.9144C19.915 99.4875 18.7946 98.8473 17.7275 97.9936C16.7671 97.0332 16.0735 95.806 15.6467 94.3121C15.1131 92.7115 14.8997 91.1108 15.0064 89.5102C15.2198 87.9096 15.4866 86.3623 15.8067 84.8683C16.0201 84.1214 16.1269 83.4278 16.1269 82.7875C16.2336 82.0405 16.3403 81.2936 16.447 80.5466C15.3799 80.76 14.3662 80.9201 13.4058 81.0268C12.4454 81.1335 11.485 81.2402 10.5246 81.3469C9.03068 81.5603 7.64346 81.507 6.36295 81.1869C5.08244 80.8667 3.90863 80.1198 2.84154 78.946C1.88115 77.8789 1.2409 76.7051 0.920769 75.4246C0.600641 74.0373 0.600641 72.7568 0.920769 71.583C1.34761 70.3025 1.98786 69.1821 2.84154 68.2217C3.80192 67.2613 5.02908 66.5143 6.52301 65.9808C8.12365 65.4472 9.72429 65.2872 11.3249 65.5006C12.9256 65.6073 14.4729 65.8207 15.9668 66.1408C16.0735 66.2475 16.3403 66.3009 16.7671 66.3009C16.7671 64.2734 16.7138 62.2993 16.6071 60.3785C16.6071 58.4578 16.7138 56.4836 16.9272 54.4562V50.7747C15.7534 50.8814 14.6329 51.0415 13.5658 51.2549C12.6054 51.3616 11.5917 51.4683 10.5246 51.575C9.03068 51.7884 7.64346 51.7351 6.36295 51.4149C5.08244 51.0948 3.90863 50.3478 2.84154 49.174C1.88115 48.1069 1.2409 46.9331 0.920769 45.6526C0.600641 44.2654 0.600641 42.9849 0.920769 41.8111C1.34761 40.5306 1.98786 39.4101 2.84154 38.4497C3.80192 37.4894 5.02908 36.7424 6.52301 36.2088C8.12365 35.6753 9.72429 35.5152 11.3249 35.7287C12.9256 35.8354 14.4729 36.0488 15.9668 36.3689L16.1269 36.529C16.0201 35.035 15.9134 33.6478 15.8067 32.3673C15.7 30.9801 15.54 29.5395 15.3265 28.0456C15.2198 26.8718 15.1665 25.7513 15.1665 24.6842C15.2732 23.5104 15.4332 22.3366 15.6467 21.1628C16.2869 17.8548 18.3678 15.9341 21.8892 15.4005C22.316 15.2938 22.6895 15.2405 23.0096 15.2405C23.3297 15.1337 23.7032 15.0804 24.1301 15.0804C26.9045 15.0804 28.932 15.774 30.2125 17.1612C31.5997 18.5484 32.24 20.9494 32.1333 24.3641L30.5326 33.4878L30.0524 37.3293C31.5464 37.3293 32.7735 37.3293 33.7339 37.3293C34.6943 37.3293 36.4016 37.3827 38.856 37.4894C40.2432 37.5961 41.5771 37.6494 42.8576 37.6494C44.2448 37.5427 45.632 37.4894 47.0192 37.4894C46.9125 33.7545 46.6991 29.9664 46.379 26.1248C46.1656 22.2833 45.8454 18.4951 45.4186 14.7603C45.3119 13.5865 45.2585 12.466 45.2585 11.3989C45.3652 10.2251 45.5253 9.05131 45.7387 7.8775C46.379 4.56952 48.4598 2.64875 51.9812 2.11519C52.4081 2.00849 52.7815 1.95513 53.1017 1.95513C53.4218 1.84842 53.7953 1.79507 54.2221 1.79507C56.9966 1.79507 59.024 2.48868 60.3045 3.8759C61.6918 5.26313 62.332 7.66409 62.2253 11.0788ZM29.7323 67.1012C30.586 67.1012 31.2796 67.1012 31.8131 67.1012C32.4534 67.1012 33.0403 67.1012 33.5738 67.1012C34.2141 67.1012 34.9077 67.1546 35.6547 67.2613C36.5084 67.2613 37.5754 67.2613 38.856 67.2613C40.1365 67.368 41.417 67.4213 42.6975 67.4213C44.0847 67.3146 45.4719 67.2613 46.8592 67.2613V50.6146C43.7646 50.5079 40.8834 50.4546 38.2157 50.4546C35.548 50.4546 32.7735 50.4546 29.8924 50.4546C29.7857 53.229 29.7323 56.0034 29.7323 58.7779C29.7323 61.5523 29.7323 64.3268 29.7323 67.1012ZM84.2954 24.3641C82.6948 24.3641 81.1475 24.3641 79.6535 24.3641C78.1596 24.2574 76.6657 24.2574 75.1717 24.3641C71.6503 24.5775 68.1289 24.7376 64.6075 24.8443C60.9794 24.951 57.4046 25.1111 53.8832 25.3245C52.0692 25.5379 50.2551 25.7513 48.441 25.9648C46.5203 26.1782 44.5995 26.3382 42.6787 26.4449C41.1848 26.6584 39.7442 26.4983 38.357 25.9648C36.9698 25.4312 35.8493 24.4708 34.9957 23.0836C33.1816 20.0957 32.9682 17.1079 34.3554 14.12C35.7426 11.3456 38.2503 10.2785 41.8784 10.9187C42.6254 11.1321 43.3723 11.3456 44.1193 11.559C44.7596 11.7724 45.5065 11.9858 46.3602 12.1992C47.4273 12.6261 48.3343 12.7861 49.0813 12.6794C52.8161 12.5727 56.6043 12.5194 60.4459 12.5194C64.1807 12.4127 67.9155 12.2526 71.6503 12.0392C73.4644 12.0392 75.2785 12.0392 77.0925 12.0392C78.9066 11.9325 80.7206 11.8258 82.5347 11.719H84.2954C84.2954 11.0788 84.2954 10.5452 84.2954 10.1184C84.2954 9.58485 84.242 9.05131 84.1353 8.51776C83.7085 4.99635 85.0424 2.80881 88.1369 1.95513C89.7376 1.63501 91.2315 1.5283 92.6187 1.63501C93.7925 1.63501 94.6996 2.00849 95.3398 2.75545C95.9801 3.39571 96.4069 4.30274 96.6203 5.47654C96.727 6.22351 96.7804 6.97048 96.7804 7.71744C96.7804 8.3577 96.7804 8.99795 96.7804 9.63821C96.7804 10.4919 97.2072 10.9187 98.0609 10.9187C100.835 10.7053 103.556 10.4919 106.224 10.2785C108.892 9.95834 111.56 9.37144 114.227 8.51776C114.441 8.30434 114.708 8.19764 115.028 8.19764C115.348 8.19764 115.615 8.14428 115.828 8.03756C119.563 7.07719 121.91 8.46441 122.871 12.1992C123.618 15.6139 122.871 18.7085 120.63 21.483C119.136 23.0836 117.535 23.6705 115.828 23.2437C113.48 22.4967 111.186 22.2299 108.945 22.4433C106.704 22.6568 104.41 22.8168 102.063 22.9235C101.422 22.9235 100.782 22.9769 100.142 23.0836C99.5015 23.1903 98.8079 23.2437 98.0609 23.2437C97.2072 23.2437 96.7804 23.7239 96.7804 24.6842V40.6906V102.635C96.7804 106.05 96.727 109.518 96.6203 113.04C96.6203 116.561 96.6737 120.029 96.7804 123.444C96.7804 124.938 96.8871 126.378 97.1005 127.766C97.4207 129.259 97.6874 130.753 97.9009 132.247C98.0076 133.848 98.0609 135.449 98.0609 137.049C98.1676 138.65 98.1143 140.197 97.9009 141.691C97.7941 143.292 97.2072 144.572 96.1401 145.533C95.0731 146.6 93.7925 147.24 92.2986 147.453C90.8047 147.774 89.4175 147.613 88.1369 146.973C86.8564 146.333 85.7893 145.373 84.9357 144.092C83.7619 142.278 83.0682 140.411 82.8548 138.49C82.6414 136.676 82.7481 134.755 83.175 132.727C83.6018 130.593 83.8686 128.406 83.9753 126.165C84.082 124.031 84.1353 121.896 84.1353 119.762C84.1353 104.076 84.1353 88.4965 84.1353 73.0236C84.242 57.444 84.2954 41.7577 84.2954 25.9648V24.3641ZM118.113 63.7399C119.073 62.3527 120.033 61.0188 120.994 59.7383C122.061 58.351 123.075 56.9638 124.035 55.5766C126.169 52.482 128.464 49.5475 130.918 46.7731C133.372 43.9986 135.987 41.3309 138.761 38.7699C140.575 37.1692 142.549 36.4223 144.683 36.529C146.711 36.529 148.311 37.1692 149.485 38.4497C150.766 39.7303 151.353 41.3843 151.246 43.4117C151.139 45.8661 151.033 48.267 150.926 50.6146C150.926 52.8555 150.819 55.1498 150.606 57.4974C150.499 59.5249 150.499 61.499 150.606 63.4197C150.712 65.3405 151.033 67.2613 151.566 69.1821C152.206 71.6364 151.78 73.9306 150.286 76.0648C149.539 77.1319 148.632 77.9856 147.564 78.6258C146.604 79.1594 145.484 79.3194 144.203 79.106C141.109 78.5725 139.188 76.8651 138.441 73.984C138.227 73.4504 138.121 72.9702 138.121 72.5434C138.121 72.0099 138.121 71.4763 138.121 70.9428V58.1376H137.801C134.493 62.5127 131.291 66.8878 128.197 71.2629C125.209 75.5313 122.381 80.0664 119.713 84.8683C118.219 87.6428 117.526 90.4172 117.632 93.1917C117.739 95.5393 117.739 97.8869 117.632 100.234C117.632 102.475 117.632 104.77 117.632 107.117C117.632 108.825 117.419 110.319 116.992 111.599C116.352 114.267 114.645 115.761 111.87 116.081C109.096 116.614 106.908 115.707 105.308 113.36C103.707 111.012 103.173 108.344 103.707 105.357C104.347 101.835 104.774 98.3137 104.987 94.7923C105.201 91.2709 105.254 87.6961 105.148 84.068C105.148 80.1198 105.201 76.2249 105.308 72.3833C105.414 68.4351 105.414 64.4335 105.308 60.3785C105.201 58.5645 104.987 56.6971 104.667 54.7763C104.347 52.8555 104.027 50.9881 103.707 49.174C103.494 47.7868 103.28 46.453 103.067 45.1724C102.96 43.8919 103.12 42.5581 103.547 41.1708C104.294 38.7165 105.681 36.9558 107.709 35.8887C109.843 34.7149 112.137 34.5015 114.591 35.2485C117.152 35.8887 118.433 37.7028 118.433 40.6906C118.433 42.0779 118.379 43.4651 118.273 44.8523C118.166 46.1328 118.113 47.4667 118.113 48.8539V63.7399ZM185.653 47.5734C187.788 48.9606 189.815 50.4012 191.736 51.8951C193.657 53.3891 195.738 54.5629 197.978 55.4165C199.686 56.1635 201.233 56.9638 202.62 57.8175C203.581 58.6712 204.168 59.5782 204.381 60.5386C205.021 64.06 204.114 66.8878 201.66 69.022C199.206 71.0495 196.378 71.1028 193.177 69.1821C191.683 68.2217 190.082 67.4213 188.375 66.7811C186.774 66.1408 185.067 65.714 183.253 65.5006C176.743 64.6469 172.155 67.3146 169.487 73.5038C167.993 77.1319 167.406 80.7067 167.726 84.2281C168.046 87.6428 169.167 91.0041 171.088 94.3121C171.835 95.4859 172.742 96.4463 173.809 97.1933C174.983 97.9402 176.156 98.5805 177.33 99.114C179.358 99.9677 181.438 100.555 183.573 100.875C185.707 101.195 187.841 101.248 189.975 101.035C191.469 100.928 192.856 100.501 194.137 99.7543C195.417 98.9006 196.484 97.9402 197.338 96.8731C198.192 95.6993 198.832 94.4722 199.259 93.1917C199.686 91.9112 199.846 90.684 199.739 89.5102C199.526 88.5498 199.472 87.5894 199.579 86.629C199.686 85.5619 199.846 84.4949 200.059 83.4278C200.273 80.9734 201.126 79.3194 202.62 78.4658C204.221 77.5054 205.928 77.0785 207.742 77.1853C209.556 77.1853 211.104 77.9856 212.384 79.5862C213.665 81.0802 214.198 82.7875 213.985 84.7083C213.771 87.8028 213.238 90.8441 212.384 93.8319C211.637 96.7131 210.463 99.4875 208.863 102.155C206.088 106.637 202.727 109.838 198.779 111.759C194.83 113.68 190.349 114.373 185.333 113.84C181.599 113.52 178.077 112.88 174.769 111.919C171.995 111.065 169.434 109.892 167.086 108.398C164.845 106.797 162.924 104.77 161.324 102.315C159.083 98.9006 157.429 95.3259 156.362 91.591C155.295 87.8562 154.921 83.9079 155.241 79.7463C155.561 75.6913 156.415 71.9565 157.802 68.5418C159.296 65.0204 161.484 61.8725 164.365 59.098C165.539 57.9242 166.766 56.9105 168.046 56.0568C169.434 55.2031 170.928 54.5095 172.528 53.976C172.315 53.7625 172.101 53.6025 171.888 53.4958C171.675 53.2824 171.461 53.0689 171.248 52.8555C169.754 51.6817 168.207 50.6146 166.606 49.6542C165.112 48.5871 163.618 47.4667 162.124 46.2929C159.456 44.2654 158.549 41.8644 159.403 39.09C159.83 37.7028 160.577 36.5823 161.644 35.7287C162.818 34.875 164.205 34.4481 165.806 34.4481C168.153 34.3414 170.447 34.2881 172.688 34.2881C175.036 34.2881 177.437 34.2881 179.891 34.2881H205.661C210.143 34.2881 212.544 36.7424 212.864 41.651C213.078 44.7456 212.224 46.9331 210.303 48.2137C208.383 49.4942 206.195 49.6542 203.741 48.6938C202.247 48.0536 200.7 47.6268 199.099 47.4133C197.498 47.1999 195.844 47.1466 194.137 47.2533H185.814C185.814 47.36 185.76 47.4133 185.653 47.4133C185.653 47.4133 185.653 47.4667 185.653 47.5734ZM272.314 108.878C272.101 109.518 271.888 110.212 271.674 110.959C271.461 111.599 271.194 112.293 270.874 113.04C270.02 114.854 268.686 116.134 266.872 116.881C265.165 117.628 263.351 117.681 261.43 117.041C260.15 116.614 259.136 115.921 258.389 114.96C257.642 114 257.322 112.826 257.428 111.439C258.175 103.649 258.442 95.9128 258.229 88.2297C258.015 80.4399 258.015 72.6501 258.229 64.8603C258.335 63.2597 258.389 61.659 258.389 60.0584C258.389 58.3511 258.389 56.5903 258.389 54.7763C257.855 55.4165 257.535 55.8967 257.428 56.2169C253.48 63.153 249.852 70.1424 246.544 77.1853C243.343 84.2281 240.195 91.3776 237.1 98.6338C236.247 100.555 235.393 102.475 234.539 104.396C233.792 106.317 232.992 108.238 232.138 110.158C230.858 112.826 228.67 114.267 225.576 114.48C222.908 114.694 220.827 113.947 219.333 112.239C217.839 110.532 217.359 108.344 217.893 105.677C218.319 103.436 218.586 101.195 218.693 98.954C218.8 96.7131 218.853 94.4722 218.853 92.2313C218.853 86.2556 218.853 80.3332 218.853 74.4642C218.853 68.5952 218.906 62.6728 219.013 56.6971C219.013 54.7763 218.853 52.8555 218.533 50.9347C218.213 49.014 217.946 47.0932 217.733 45.1724C217.412 43.6785 217.359 42.1312 217.573 40.5306C217.786 39.0366 218.48 37.8628 219.653 37.0092C220.934 36.0488 222.428 35.4085 224.135 35.0884C226.589 34.6616 228.35 34.9817 229.417 36.0488C230.591 37.1159 231.231 38.5565 231.338 40.3705C231.338 41.0108 231.338 41.651 231.338 42.2913C231.445 42.9315 231.498 43.6252 231.498 44.3721V80.0664C231.711 79.7463 231.925 79.3728 232.138 78.946C235.553 71.0495 239.288 63.3664 243.343 55.8967C247.398 48.4271 251.72 41.0108 256.308 33.6478C257.162 32.474 258.069 31.4069 259.029 30.4465C259.989 29.3795 261.27 28.7392 262.871 28.5258C265.005 28.0989 266.819 28.4724 268.313 29.6462C269.807 30.7133 270.66 32.314 270.874 34.4481C270.981 34.875 270.981 35.3018 270.874 35.7287C270.874 36.1555 270.874 36.5823 270.874 37.0092C270.874 45.5459 270.874 54.0827 270.874 62.6194C270.874 71.0495 270.82 79.5329 270.714 88.0696C270.607 91.1642 270.714 94.2054 271.034 97.1933C271.354 100.074 271.781 103.009 272.314 105.997V108.878ZM312.658 107.277C309.884 110.585 306.469 112.559 302.414 113.2C299.319 113.733 296.438 113.573 293.771 112.719C291.103 111.866 288.595 110.372 286.248 108.238C283.9 106.104 282.032 103.703 280.645 101.035C279.365 98.3671 278.298 95.4859 277.444 92.3913C276.27 88.3364 275.63 84.2814 275.523 80.2265C275.523 76.0648 275.79 71.9031 276.324 67.7415C276.75 64.4335 277.391 61.2322 278.244 58.1376C279.098 55.0431 280.325 52.0552 281.926 49.174C283.1 47.1466 284.38 45.2791 285.767 43.5718C287.155 41.7577 288.809 40.1037 290.729 38.6098C296.171 34.5549 302.041 34.1814 308.336 37.4894C309.19 38.0229 309.99 38.5565 310.737 39.09C311.484 39.6235 312.285 40.1571 313.138 40.6906C313.138 40.4772 313.138 40.3172 313.138 40.2105C313.245 39.997 313.298 39.7836 313.298 39.5702C313.298 36.3689 313.352 33.1676 313.458 29.9663C313.565 26.7651 313.512 23.6171 313.298 20.5226C313.298 18.9219 313.085 17.3746 312.658 15.8807C312.338 14.2801 312.018 12.7328 311.698 11.2389C311.164 8.67783 311.484 6.49029 312.658 4.67622C313.939 2.75545 315.806 1.5283 318.26 0.99475C319.434 0.781334 320.555 0.888042 321.622 1.31487C322.795 1.635 323.756 2.16855 324.503 2.91552C325.357 3.55578 325.997 4.40945 326.424 5.47654C326.85 6.54364 326.957 7.61073 326.744 8.67782C326.21 11.9858 325.943 15.2938 325.943 18.6018C326.05 21.8031 326.05 25.0577 325.943 28.3657C325.73 34.0213 325.623 39.6236 325.623 45.1724C325.73 50.7213 325.73 56.3236 325.623 61.9792C325.623 71.0495 325.57 80.0131 325.463 88.8699C325.463 97.7268 325.463 106.69 325.463 115.761V115.921C325.463 118.268 325.036 119.869 324.183 120.723C323.436 121.576 321.888 122.11 319.541 122.323H317.3C315.166 122.11 313.565 121.256 312.498 119.762C311.431 118.375 311.057 116.721 311.378 114.8C311.591 113.627 311.804 112.559 312.018 111.599C312.231 110.532 312.445 109.411 312.658 108.238V107.277ZM288.168 77.9856C288.168 80.6533 288.328 83.2677 288.648 85.8287C289.075 88.283 289.822 90.7374 290.889 93.1917C291.423 94.4722 292.01 95.646 292.65 96.7131C293.29 97.7802 294.197 98.7406 295.371 99.5942C296.972 100.768 298.572 101.195 300.173 100.875C301.88 100.555 303.214 99.4875 304.175 97.6735C304.708 96.4997 305.242 95.3259 305.775 94.1521C306.416 92.8715 306.896 91.5377 307.216 90.1505C307.856 87.6961 308.39 85.1885 308.817 82.6274C309.35 80.0664 309.884 77.5587 310.417 75.1044C310.631 73.8239 310.844 72.49 311.057 71.1028C311.271 69.7156 311.271 68.4351 311.057 67.2613C310.737 65.1271 310.257 63.0463 309.617 61.0188C308.977 58.8846 308.336 56.7504 307.696 54.6162C307.376 53.4424 306.842 52.4287 306.095 51.575C305.348 50.7213 304.495 49.921 303.534 49.174C302.147 48.3204 300.973 47.9469 300.013 48.0536C299.053 48.0536 297.986 48.6405 296.812 49.8143C295.531 50.9881 294.464 52.3753 293.61 53.976C292.757 55.4699 292.01 57.0172 291.37 58.6178C290.196 61.7124 289.395 64.9137 288.969 68.2217C288.542 71.423 288.275 74.6776 288.168 77.9856ZM343.804 70.1424V95.2725C343.911 96.8731 344.018 98.5271 344.124 100.234C344.338 101.835 344.551 103.489 344.765 105.196C344.978 106.69 344.978 108.078 344.765 109.358C344.551 110.532 343.804 111.599 342.524 112.559C339.643 114.8 336.708 115.174 333.72 113.68C331.906 112.933 330.999 111.492 330.999 109.358C331.106 108.184 331.159 107.011 331.159 105.837C331.266 104.663 331.319 103.489 331.319 102.315V53.6558C331.319 52.2686 331.213 50.9347 330.999 49.6542C330.786 48.267 330.572 46.8798 330.359 45.4926C330.252 44.8523 330.145 44.2654 330.039 43.7319C330.039 43.0916 330.092 42.5047 330.199 41.9712C330.306 39.6235 331.373 37.7028 333.4 36.2088C335.534 34.6082 337.775 34.0747 340.123 34.6082C341.297 34.9283 342.257 35.7287 343.004 37.0092C343.751 38.183 344.124 39.5702 344.124 41.1708C344.018 43.305 343.964 45.3859 343.964 47.4133C343.964 49.3341 343.964 51.3082 343.964 53.3357V70.1424H343.804ZM343.644 16.521L343.324 21.483C343.004 23.297 342.204 24.7376 340.923 25.8047C339.643 26.7651 338.255 27.1385 336.761 26.9251C335.054 26.8184 333.667 26.1782 332.6 25.0044C331.533 23.8306 330.999 22.3366 330.999 20.5226C330.999 19.1353 330.999 17.8015 330.999 16.521C330.999 15.2405 331.053 13.9066 331.159 12.5194C331.373 10.7053 332.066 9.26473 333.24 8.19764C334.521 7.02383 335.961 6.54364 337.562 6.75706C339.376 6.86377 340.816 7.50402 341.884 8.67782C342.951 9.85163 343.538 11.3456 343.644 13.1596V16.521ZM403.036 108.878C402.822 109.518 402.609 110.212 402.395 110.959C402.182 111.599 401.915 112.293 401.595 113.04C400.741 114.854 399.407 116.134 397.593 116.881C395.886 117.628 394.072 117.681 392.151 117.041C390.871 116.614 389.857 115.921 389.11 114.96C388.363 114 388.043 112.826 388.15 111.439C388.897 103.649 389.163 95.9128 388.95 88.2297C388.736 80.4399 388.736 72.6501 388.95 64.8603C389.057 63.2597 389.11 61.659 389.11 60.0584C389.11 58.3511 389.11 56.5903 389.11 54.7763C388.576 55.4165 388.256 55.8967 388.15 56.2169C384.201 63.153 380.573 70.1424 377.265 77.1853C374.064 84.2281 370.916 91.3776 367.821 98.6338C366.968 100.555 366.114 102.475 365.26 104.396C364.513 106.317 363.713 108.238 362.859 110.158C361.579 112.826 359.391 114.267 356.297 114.48C353.629 114.694 351.548 113.947 350.054 112.239C348.56 110.532 348.08 108.344 348.614 105.677C349.041 103.436 349.307 101.195 349.414 98.954C349.521 96.7131 349.574 94.4722 349.574 92.2313C349.574 86.2556 349.574 80.3332 349.574 74.4642C349.574 68.5952 349.627 62.6728 349.734 56.6971C349.734 54.7763 349.574 52.8555 349.254 50.9347C348.934 49.014 348.667 47.0932 348.454 45.1724C348.134 43.6785 348.08 42.1312 348.294 40.5306C348.507 39.0366 349.201 37.8628 350.374 37.0092C351.655 36.0488 353.149 35.4085 354.856 35.0884C357.311 34.6616 359.071 34.9817 360.138 36.0488C361.312 37.1159 361.952 38.5565 362.059 40.3705C362.059 41.0108 362.059 41.651 362.059 42.2913C362.166 42.9315 362.219 43.6252 362.219 44.3721V80.0664C362.433 79.7463 362.646 79.3728 362.859 78.946C366.274 71.0495 370.009 63.3664 374.064 55.8967C378.119 48.4271 382.441 41.0108 387.029 33.6478C387.883 32.474 388.79 31.4069 389.75 30.4465C390.711 29.3795 391.991 28.7392 393.592 28.5258C395.726 28.0989 397.54 28.4724 399.034 29.6462C400.528 30.7133 401.382 32.314 401.595 34.4481C401.702 34.875 401.702 35.3018 401.595 35.7287C401.595 36.1555 401.595 36.5823 401.595 37.0092C401.595 45.5459 401.595 54.0827 401.595 62.6194C401.595 71.0495 401.542 79.5329 401.435 88.0696C401.328 91.1642 401.435 94.2054 401.755 97.1933C402.075 100.074 402.502 103.009 403.036 105.997V108.878ZM444.82 41.1708C445.033 40.5306 445.193 39.9437 445.3 39.4101C445.407 38.8766 445.567 38.343 445.78 37.8095C446.42 36.2089 447.221 35.035 448.181 34.2881C449.248 33.5411 450.689 33.2743 452.503 33.4878C453.356 33.4878 454.157 33.5945 454.904 33.8079C455.651 34.0213 456.451 34.2347 457.305 34.4481C458.372 34.875 459.119 35.5686 459.546 36.529C459.972 37.4894 460.079 38.5565 459.866 39.7303C459.652 40.7974 459.386 41.8644 459.065 42.9315C458.852 43.8919 458.639 44.9057 458.425 45.9728C458.212 48.2137 457.998 50.4546 457.785 52.6955C457.572 54.9363 457.411 57.1772 457.305 59.4181C456.985 65.8207 456.718 72.1699 456.504 78.4658C456.291 84.7616 456.078 91.1108 455.864 97.5134C455.331 106.904 455.01 116.188 454.904 125.365C454.797 134.542 454.85 143.825 455.064 153.216C455.064 154.496 454.904 155.67 454.584 156.737C453.943 159.191 452.343 160.685 449.782 161.219C447.541 161.646 445.567 160.952 443.859 159.138C443.539 158.818 443.272 158.444 443.059 158.018C442.846 157.697 442.632 157.324 442.419 156.897C440.605 153.803 438.631 150.815 436.496 147.934C434.469 145.159 432.228 142.385 429.774 139.61C427.853 137.369 425.345 135.395 422.251 133.688C419.583 132.301 418.196 130.273 418.089 127.605C417.876 125.791 418.302 124.191 419.37 122.804C420.543 121.416 422.144 120.403 424.171 119.762C425.772 119.229 427.213 119.282 428.493 119.922C429.88 120.669 431.001 121.79 431.855 123.284C432.602 124.564 433.348 125.525 434.095 126.165C435.376 127.552 436.656 128.833 437.937 130.006C439.324 131.287 440.658 132.514 441.939 133.688C442.259 124.831 442.579 115.921 442.899 106.957C443.219 97.8869 443.539 88.8166 443.859 79.7463C443.753 79.6396 443.699 79.5862 443.699 79.5862L443.219 80.5466C442.045 83.1076 440.871 85.722 439.698 88.3897C438.631 90.9508 437.51 93.4584 436.336 95.9128C434.842 99.0073 433.082 102.262 431.054 105.677C429.88 107.277 428.6 108.718 427.213 109.998C424.652 112.453 421.771 113.52 418.569 113.2C415.475 112.88 412.86 111.332 410.726 108.558C409.552 106.957 408.645 105.25 408.005 103.436C407.471 101.622 407.098 99.8077 406.885 97.9936C404.964 80.1731 407.738 63.2597 415.208 47.2533C415.635 46.1862 416.275 45.0657 417.129 43.8919C421.184 37.7028 426.839 35.1951 434.095 36.3689C435.909 36.5823 437.617 37.0092 439.217 37.6494C440.818 38.2897 442.365 39.2501 443.859 40.5306C443.859 40.5306 444.179 40.744 444.82 41.1708ZM419.85 99.114C420.063 99.114 420.223 99.1674 420.33 99.2741C420.97 98.1003 421.61 96.9799 422.251 95.9128C422.891 94.8457 423.478 93.7252 424.011 92.5514C426.679 87.0025 429.187 81.4003 431.534 75.7447C433.882 70.0891 436.123 64.3801 438.257 58.6178C439.004 56.3769 438.791 54.3494 437.617 52.5354L436.656 51.0948C435.376 49.4942 433.722 48.6938 431.694 48.6938C429.774 48.6938 428.28 49.6009 427.213 51.4149C425.825 53.7625 424.758 56.1102 424.011 58.4578C420.063 69.1287 418.356 80.3332 418.889 92.0712C418.996 93.245 419.103 94.4188 419.209 95.5926C419.423 96.7664 419.636 97.9402 419.85 99.114Z" fill="url(#paint0_linear_553_22164)"/>
<defs>
<linearGradient id="paint0_linear_553_22164" x1="309.5" y1="-21" x2="309.5" y2="179" gradientUnits="userSpaceOnUse">
<stop stop-color="white" stop-opacity="0.29"/>
<stop offset="0.822917" stop-color="white" stop-opacity="0"/>
</linearGradient>
</defs>
</svg>
