<svg width="30" height="31" viewBox="0 0 30 31" fill="none" xmlns="http://www.w3.org/2000/svg">
<path fill-rule="evenodd" clip-rule="evenodd" d="M15 27.7151C21.9036 27.7151 27.5 22.1186 27.5 15.2151C27.5 8.31153 21.9036 2.71509 15 2.71509C8.09644 2.71509 2.5 8.31153 2.5 15.2151C2.5 22.1186 8.09644 27.7151 15 27.7151ZM20.7324 10.8916C21.3549 10.8171 21.9483 10.6521 22.4998 10.4071C22.0873 11.0241 21.5653 11.566 20.9634 12.001C20.9699 12.1325 20.9724 12.2655 20.9724 12.399C20.9724 16.4652 17.8771 21.1544 12.217 21.1544C10.4791 21.1544 8.86169 20.6444 7.49979 19.7715C7.74027 19.8005 7.98525 19.815 8.23424 19.815C9.67614 19.815 11.0031 19.3225 12.056 18.4976C10.7096 18.4726 9.57265 17.5826 9.18117 16.3602C9.36916 16.3962 9.56215 16.4157 9.76063 16.4157C10.0411 16.4157 10.3131 16.3777 10.5711 16.3077C9.16417 16.0242 8.10274 14.7808 8.10274 13.2894V13.2509C8.51822 13.4814 8.99219 13.6199 9.49715 13.6359C8.67071 13.0839 8.12824 12.142 8.12824 11.0746C8.12824 10.5106 8.27973 9.98214 8.54472 9.52767C10.0626 11.3895 12.33 12.615 14.8878 12.743C14.8353 12.5175 14.8078 12.2825 14.8078 12.0415C14.8078 10.3421 16.1857 8.96421 17.8851 8.96421C18.7695 8.96421 19.57 9.33819 20.1314 9.93615C20.8319 9.79766 21.4914 9.54217 22.0853 9.1892C21.8558 9.90765 21.3679 10.5106 20.7324 10.8916Z" fill="#DADADA"/>
</svg>
