<svg width="112" height="112" viewBox="0 0 112 112" fill="none" xmlns="http://www.w3.org/2000/svg">
<path d="M48.1904 11.7414C51.9986 6.3458 60.0008 6.3458 63.809 11.7414C66.4522 15.4865 71.2458 17.044 75.5855 15.5678C81.8378 13.4411 88.3117 18.1446 88.2211 24.7482C88.1582 29.3316 91.1208 33.4093 95.4994 34.7659C101.808 36.7203 104.281 44.3308 100.326 49.62C97.5808 53.2911 97.5808 58.3314 100.326 62.0025C104.281 67.2916 101.808 74.9021 95.4994 76.8566C91.1208 78.2132 88.1582 82.2908 88.2211 86.8743C88.3117 93.4778 81.8378 98.1814 75.5855 96.0546C71.2458 94.5784 66.4522 96.136 63.809 99.881C60.0008 105.277 51.9986 105.277 48.1904 99.881C45.5472 96.136 40.7537 94.5784 36.4139 96.0546C30.1616 98.1814 23.6877 93.4778 23.7783 86.8743C23.8412 82.2908 20.8786 78.2132 16.5 76.8566C10.1917 74.9021 7.71888 67.2916 11.6736 62.0025C14.4186 58.3314 14.4186 53.2911 11.6736 49.62C7.71888 44.3308 10.1917 36.7203 16.5 34.7659C20.8786 33.4093 23.8412 29.3316 23.7783 24.7482C23.6877 18.1446 30.1616 13.4411 36.4139 15.5678C40.7537 17.044 45.5472 15.4865 48.1904 11.7414Z" fill="#BCD63F" stroke="black" stroke-width="0.780577"/>
<g clip-path="url(#clip0_553_21849)">
<path d="M52.1656 46.3513C50.2615 46.519 48.6907 46.9981 47.2389 47.8366C46.9533 48.0043 46.9057 48.5313 46.6677 48.8428C46.4059 49.2021 46.0727 49.7771 45.7395 49.801C45.2159 49.8489 44.6685 49.4896 44.5733 48.7949C44.4067 47.7887 44.9541 46.5909 45.8585 46.0159C47.9053 44.7223 50.1663 44.0276 52.594 44.0036C52.8558 44.0036 53.1176 44.0036 53.4032 44.0036C53.4508 44.0036 53.4984 43.9557 53.6174 43.8838C53.2604 43.1651 52.594 42.9735 51.9275 42.7818C51.6657 42.71 51.4039 42.71 51.1421 42.6621C50.5233 42.5423 50.1663 42.1829 50.2377 41.5361C50.3091 40.9132 50.7375 40.6018 51.3563 40.6258C52.7844 40.6976 53.9982 41.2486 54.974 42.3027C55.093 42.4225 55.212 42.5662 55.212 42.5423C55.9022 42.3506 56.4496 42.1111 57.0446 42.0392C61.4714 41.4882 64.6606 39.2363 66.5171 35.1398C67.9689 31.9057 71.6817 31.163 74.2283 33.6545C75.4183 34.8283 76.5845 36.0022 77.7031 37.2479C78.9407 38.6134 80.107 40.0508 81.2494 41.5121C83.9626 45.0098 83.8912 48.7709 82.011 52.5321C81.4636 53.634 81.297 54.6402 81.5588 55.7422C81.8444 56.94 81.5112 57.7785 80.3926 58.3055C80.226 58.3774 80.0832 58.4732 79.9404 58.593C78.5361 59.8387 76.9653 60.3418 75.1089 59.671C74.7757 59.5513 74.2045 59.719 73.8951 59.9346C72.3957 60.9647 70.9677 62.0906 69.4921 63.1207C69.0399 63.4322 69.0637 63.7197 69.1827 64.1748C69.7063 65.9236 69.6825 65.9476 68.1593 67.0017C67.9213 67.1694 67.6357 67.3131 67.4215 67.5287C66.3743 68.5109 65.2794 68.7026 64.0656 67.8401C63.8752 67.7204 63.5896 67.7443 63.3278 67.6964C63.3278 67.936 63.2564 68.1995 63.3278 68.4391C63.7562 70.0681 63.7562 70.0681 62.4472 71.0263C62.3996 71.0503 62.352 71.0982 62.3044 71.1222C61.5666 71.6252 60.9002 72.3918 60.091 72.5595C59.3532 72.7033 58.4964 72.2241 57.592 71.9846C57.6396 72.6314 57.6396 73.3261 57.7348 74.0209C57.83 74.8354 57.592 75.4343 56.8542 75.7936C56.7114 75.8655 56.5924 75.9374 56.4734 76.0332C54.5694 77.8539 52.3084 77.6862 49.9997 77.1352C49.7855 77.0873 49.5475 77.0633 49.3333 77.1352C44.4305 78.884 39.4087 79.435 34.2678 78.5486C33.2682 78.3809 32.2686 77.9497 31.388 77.4466C29.7696 76.5123 29.0556 74.7156 29.7458 72.9907C30.2694 71.6732 31.031 70.3556 31.983 69.2775C38.3615 61.9469 44.8113 54.7121 51.2373 47.4294C51.4753 47.1658 51.7371 46.8544 52.1656 46.3513ZM32.1496 72.7512C31.1024 74.2365 31.388 75.3385 32.9588 76.0572C33.411 76.2728 33.9108 76.4165 34.3868 76.5363C37.2904 77.1591 40.2417 77.0873 43.1453 76.6082C44.9303 76.2967 46.7629 75.8655 48.4289 75.1708C51.0469 74.0927 53.3318 72.4158 55.5928 70.7149C57.711 69.0859 59.9006 67.5527 62.0664 65.9715C65.9459 63.1207 69.8253 60.246 73.7047 57.4191C74.1093 57.1077 74.2045 56.8921 74.0141 56.413C72.6575 53.0591 72.7289 49.6813 74.0141 46.3753C74.8471 44.2671 76.0133 42.2548 77.1081 40.0269C75.6563 38.5176 74.0855 36.7688 72.3481 35.1877C70.9915 33.942 69.1113 34.5169 68.3497 36.1459C66.2552 40.6737 62.7566 43.3807 57.83 44.1713C56.402 44.4109 55.8784 45.0577 55.8546 46.4951C55.8546 47.2617 55.8308 48.0522 55.7118 48.8188C55.331 51.2863 54.736 53.634 52.9034 55.5266C49.3095 59.2638 45.7633 63.0249 42.2171 66.81C41.2889 67.8162 40.2893 68.4151 38.8851 68.3672C38.1473 68.3432 37.4094 68.6067 36.6716 68.5588C34.9818 68.487 34.3868 69.8525 33.3396 70.8586C33.6014 70.9305 33.6966 70.9784 33.8156 71.0024C36.862 71.6252 39.7181 70.9305 42.4551 69.6369C47.0961 67.4808 50.8089 64.079 54.1886 60.3179C55.4738 58.8805 56.6638 57.3473 57.9252 55.862C58.3774 55.3349 58.9248 55.1912 59.4722 55.6464C59.9958 56.0776 59.972 56.6286 59.615 57.1796C59.4008 57.491 59.139 57.8024 58.901 58.0899C55.1168 62.7614 51.0469 67.1454 45.8347 70.2597C41.6697 72.8231 37.1952 74.476 32.1496 72.7512ZM78.7503 42.0631C75.5849 46.0159 74.2521 52.005 76.1323 55.5266C80.9162 53.3226 83.0582 46.3992 78.7503 42.0631ZM41.7411 61.899C43.5975 62.45 44.8351 61.6594 45.7395 60.1262C43.5499 59.7908 43.0739 59.9825 41.7411 61.899ZM52.6892 52.1967C50.2615 51.9811 49.6427 52.2446 48.8335 53.9215C51.1897 54.233 51.9513 53.9215 52.6892 52.1967ZM49.2857 56.2453C47.1199 55.838 46.4059 56.1015 45.4063 57.8264C46.9771 58.0181 48.5003 58.1378 49.2857 56.2453ZM41.6935 64.2706C39.6943 63.9353 38.7661 64.4383 37.9331 66.1872C39.6467 66.4986 40.7177 65.5164 41.6935 64.2706ZM52.118 49.8969C53.6412 50.0885 53.784 49.8969 53.5698 48.2439C53.0938 48.7949 52.6416 49.298 52.118 49.8969Z" fill="#161617"/>
</g>
<defs>
<clipPath id="clip0_553_21849">
<rect width="53.8598" height="46.8346" fill="white" transform="translate(29.46 32.1929)"/>
</clipPath>
</defs>
</svg>
