<svg width="33" height="33" viewBox="0 0 33 33" fill="none" xmlns="http://www.w3.org/2000/svg">
<path d="M9.2124 26.5375L5.43115 25.7125C5.0874 25.6437 4.8124 25.4659 4.60615 25.179C4.3999 24.893 4.31969 24.5781 4.36553 24.2344L4.74365 20.35L2.16553 17.3937C1.93636 17.1416 1.82178 16.8437 1.82178 16.5C1.82178 16.1562 1.93636 15.8583 2.16553 15.6062L4.74365 12.65L4.36553 8.7656C4.31969 8.42185 4.3999 8.10698 4.60615 7.82098C4.8124 7.53406 5.0874 7.35623 5.43115 7.28748L9.2124 6.46248L11.2062 3.09373C11.3895 2.79581 11.6416 2.60102 11.9624 2.50935C12.2832 2.41769 12.6041 2.42914 12.9249 2.54373L16.4999 4.05623L20.0749 2.54373C20.3957 2.42914 20.7166 2.41769 21.0374 2.50935C21.3582 2.60102 21.6103 2.79581 21.7937 3.09373L23.7874 6.46248L27.5686 7.28748C27.9124 7.35623 28.1874 7.53406 28.3937 7.82098C28.5999 8.10698 28.6801 8.42185 28.6343 8.7656L28.2561 12.65L30.8343 15.6062C31.0634 15.8583 31.178 16.1562 31.178 16.5C31.178 16.8437 31.0634 17.1416 30.8343 17.3937L28.2561 20.35L28.6343 24.2344C28.6801 24.5781 28.5999 24.893 28.3937 25.179C28.1874 25.4659 27.9124 25.6437 27.5686 25.7125L23.7874 26.5375L21.7937 29.9062C21.6103 30.2041 21.3582 30.3989 21.0374 30.4906C20.7166 30.5823 20.3957 30.5708 20.0749 30.4562L16.4999 28.9437L12.9249 30.4562C12.6041 30.5708 12.2832 30.5823 11.9624 30.4906C11.6416 30.3989 11.3895 30.2041 11.2062 29.9062L9.2124 26.5375ZM14.0937 20.4187C14.3457 20.6708 14.6666 20.7969 15.0562 20.7969C15.4457 20.7969 15.7666 20.6708 16.0187 20.4187L21.8624 14.575C22.1374 14.3 22.2749 13.9732 22.2749 13.5946C22.2749 13.2169 22.1374 12.8906 21.8624 12.6156C21.5874 12.3406 21.2611 12.2031 20.8834 12.2031C20.5048 12.2031 20.178 12.3406 19.903 12.6156L15.0562 17.4625L13.0624 15.5031C12.7874 15.251 12.4611 15.1305 12.0834 15.1415C11.7048 15.1534 11.3895 15.2854 11.1374 15.5375C10.8853 15.7896 10.7593 16.1104 10.7593 16.5C10.7593 16.8896 10.8853 17.2104 11.1374 17.4625L14.0937 20.4187Z" fill="#3BB76C"/>
</svg>
