<svg width="30" height="31" viewBox="0 0 30 31" fill="none" xmlns="http://www.w3.org/2000/svg">
<path fill-rule="evenodd" clip-rule="evenodd" d="M15.0005 27.7151C21.9041 27.7151 27.5005 22.1186 27.5005 15.2151C27.5005 8.31153 21.9041 2.71509 15.0005 2.71509C8.09693 2.71509 2.50049 8.31153 2.50049 15.2151C2.50049 22.1186 8.09693 27.7151 15.0005 27.7151ZM17.0762 10.6773C17.4071 10.6773 17.9333 10.7355 18.3228 10.8134L18.673 8.61249C17.9136 8.45666 17.3292 8.33978 16.5308 8.33978C14.2327 8.33978 13.3174 9.43061 13.3174 11.3781V12.7998H11.8759V15.0984H13.3174V22.0898H16.1219V15.0984H18.1666L18.3618 12.7998H16.1219V11.6902C16.1219 11.0669 16.1801 10.6773 17.0762 10.6773Z" fill="#DADADA"/>
</svg>
