<svg width="24" height="24" viewBox="0 0 24 24" fill="none" xmlns="http://www.w3.org/2000/svg">
<path d="M3.65691 9.10274C3.90298 8.86234 4.23669 8.72729 4.58465 8.72729C4.9326 8.72729 5.26631 8.86234 5.51239 9.10274L12.0079 15.4502L18.5034 9.10274C18.7509 8.86916 19.0824 8.7399 19.4264 8.74283C19.7705 8.74575 20.0996 8.88061 20.3429 9.11836C20.5862 9.35611 20.7242 9.67774 20.7272 10.014C20.7302 10.3502 20.5979 10.6741 20.3589 10.9159L12.9356 18.17C12.6896 18.4104 12.3559 18.5455 12.0079 18.5455C11.6599 18.5455 11.3262 18.4104 11.0802 18.17L3.65691 10.9159C3.4109 10.6755 3.27271 10.3494 3.27271 10.0093C3.27271 9.66932 3.4109 9.34321 3.65691 9.10274Z" fill="#161617"/>
</svg>
