<svg width="512" height="212" viewBox="0 0 512 212" fill="none" xmlns="http://www.w3.org/2000/svg">
<path d="M47.7386 13.6164C47.7594 13.0916 48.4717 12.9497 48.6921 13.4264L60.3439 38.6307C60.742 39.4917 61.8292 39.7717 62.5936 39.2101L84.9713 22.7705C85.3945 22.4595 85.9496 22.9279 85.7143 23.3974L73.2736 48.2219C72.8486 49.0699 73.3076 50.0945 74.2232 50.342L101.029 57.5876C101.536 57.7247 101.515 58.4507 101.002 58.5594L73.8364 64.3107C72.9085 64.5072 72.3936 65.5048 72.771 66.375L83.8189 91.8498C84.0279 92.3317 83.4477 92.7686 83.0424 92.4347L61.6086 74.7819C60.8765 74.1789 59.7754 74.3984 59.3304 75.236L46.3017 99.757C46.0552 100.221 45.3519 100.04 45.3602 99.5145L45.7979 71.7506C45.8129 70.8022 44.9549 70.0782 44.0225 70.2525L16.728 75.3548C16.2117 75.4513 15.9148 74.7884 16.3305 74.4675L38.3102 57.4993C39.061 56.9196 39.0921 55.7974 38.3745 55.1771L17.3675 37.0186C16.9701 36.6752 17.3033 36.0298 17.8134 36.1547L44.7838 42.7595C45.705 42.9852 46.6018 42.3097 46.6394 41.362L47.7386 13.6164Z" fill="#3BB76C" stroke="black"/>
<path d="M450.122 59.2511C450.151 58.7354 450.848 58.5966 451.072 59.0618L457.071 71.5066C457.308 71.9984 457.793 72.3226 458.338 72.353L472.132 73.1226C472.648 73.1514 472.787 73.8479 472.321 74.0722L459.877 80.071C459.385 80.3081 459.061 80.7936 459.03 81.3387L458.261 95.1324C458.232 95.6481 457.535 95.7869 457.311 95.3216L451.312 82.8768C451.075 82.3851 450.59 82.0609 450.045 82.0305L436.251 81.2609C435.735 81.2321 435.596 80.5355 436.062 80.3113L448.506 74.3124C448.998 74.0754 449.322 73.5899 449.353 73.0448L450.122 59.2511Z" fill="#FFC907" stroke="black"/>
<path d="M107.082 85H131.47C139.845 85 145.674 80.444 145.674 72.605V71.935C145.674 65.235 141.185 62.622 138.237 61.818V60.612C141.118 59.741 145.406 57.128 145.406 50.629V49.959C145.406 42.656 139.778 38.1 131.202 38.1H107.082V45.872H113.246V77.228H107.082V85ZM122.09 57.396V46.14H130.264C134.016 46.14 136.562 48.083 136.562 51.433V52.103C136.562 55.453 133.949 57.396 130.264 57.396H122.09ZM122.09 76.96V65.436H130.398C134.284 65.436 136.83 67.379 136.83 70.863V71.533C136.83 75.017 134.217 76.96 130.398 76.96H122.09ZM151.641 85H182.193V76.96H160.485V65.369H179.915V57.329H160.485V46.14H181.791V38.1H151.641V85ZM205.289 85.938C216.813 85.938 223.379 79.238 223.379 68.25V67.312H214.669V68.518C214.669 74.012 211.587 78.032 205.289 78.032C198.991 78.032 195.239 73.878 195.239 67.312V55.788C195.239 49.222 198.991 45.068 205.289 45.068C211.587 45.068 214.669 49.088 214.669 54.582V55.252H223.379V54.85C223.379 43.862 216.813 37.162 205.289 37.162C193.631 37.162 186.395 43.862 186.395 55.922V67.178C186.395 79.238 193.631 85.938 205.289 85.938ZM247.536 85.938C259.328 85.938 266.832 79.238 266.832 67.178V55.922C266.832 43.862 259.328 37.162 247.536 37.162C235.744 37.162 228.24 43.862 228.24 55.922V67.178C228.24 79.238 235.744 85.938 247.536 85.938ZM247.536 78.032C240.97 78.032 237.084 73.878 237.084 67.446V55.654C237.084 49.222 240.97 45.068 247.536 45.068C254.102 45.068 257.988 49.222 257.988 55.654V67.446C257.988 73.878 254.102 78.032 247.536 78.032ZM273.316 85H281.892V44.599H283.098L291.138 85H305.744L313.784 44.599H314.99V85H323.566V38.1H307.151L299.044 78.97H297.838L289.731 38.1H273.316V85ZM331.126 85H361.678V76.96H339.97V65.369H359.4V57.329H339.97V46.14H361.276V38.1H331.126V85ZM378.69 85H387.802L390.348 74.682H407.098L409.644 85H418.756L406.428 38.1H391.018L378.69 85ZM392.425 66.508L398.12 43.661H399.326L405.021 66.508H392.425Z" fill="white"/>
<path d="M16.995 161.248C16.995 176.011 28.983 187.999 43.746 187.999C58.509 187.999 70.497 176.011 70.497 161.248H56.955C56.955 168.574 51.072 174.568 43.746 174.568C36.42 174.568 30.426 168.574 30.426 161.248V134.941C30.426 127.726 36.42 121.732 43.746 121.732C50.961 121.732 56.955 127.726 56.955 134.941V140.269H70.497V134.941C70.497 120.289 58.398 108.19 43.746 108.19C29.094 108.19 16.995 120.289 16.995 134.941V161.248ZM76.0895 161.248C76.0895 176.011 87.9665 187.999 102.84 187.999C117.603 187.999 129.591 176.011 129.591 161.248V134.941C129.591 120.289 117.492 108.19 102.84 108.19C88.0775 108.19 76.0895 120.178 76.0895 134.941V161.248ZM89.5205 134.941C89.5205 127.726 95.6255 121.732 102.84 121.732C110.166 121.732 116.049 127.726 116.049 134.941V161.248C116.049 168.574 110.166 174.568 102.84 174.568C95.5145 174.568 89.5205 168.574 89.5205 161.248V134.941ZM151.377 109.3H137.946V187H180.792V173.458H151.377V109.3ZM199.74 109.3H186.309V187H229.155V173.458H199.74V109.3ZM234.672 109.3V187H277.518V173.458H248.103V153.811H274.632V140.269H248.103V122.731H277.518V109.3H234.672ZM283.633 161.248C283.633 176.011 295.621 187.999 310.384 187.999C325.147 187.999 337.135 176.011 337.135 161.248H323.593C323.593 168.574 317.71 174.568 310.384 174.568C303.058 174.568 297.064 168.574 297.064 161.248V134.941C297.064 127.726 303.058 121.732 310.384 121.732C317.599 121.732 323.593 127.726 323.593 134.941V140.269H337.135V134.941C337.135 120.289 325.036 108.19 310.384 108.19C295.732 108.19 283.633 120.289 283.633 134.941V161.248ZM339.953 122.731H358.379V187H371.81V122.731H390.236V109.3H339.953V122.731ZM418.004 145.597L406.571 109.3H392.474L404.351 147.04L392.474 187H406.571L418.004 148.483H420.446L431.879 187H445.976L434.099 147.04L445.976 109.3H431.879L420.446 145.597H418.004ZM453.164 187H466.595V153.811H478.583L493.235 187H508.553L493.124 152.035C501.227 148.705 506.666 140.269 506.666 131.5C506.666 119.29 496.565 109.3 484.355 109.3H453.164V187ZM466.595 122.731H484.355C489.239 122.731 493.124 126.727 493.124 131.5C493.124 136.384 489.35 140.269 484.355 140.269H466.595V122.731Z" fill="white"/>
</svg>
