<svg width="112" height="112" viewBox="0 0 112 112" fill="none" xmlns="http://www.w3.org/2000/svg">
<path d="M48.002 11.7414C51.8101 6.3458 59.8123 6.3458 63.6205 11.7414C66.2637 15.4865 71.0573 17.044 75.397 15.5678C81.6493 13.4411 88.1232 18.1446 88.0326 24.7482C87.9697 29.3316 90.9323 33.4093 95.3109 34.7659C101.619 36.7203 104.092 44.3308 100.137 49.62C97.3923 53.2911 97.3923 58.3314 100.137 62.0025C104.092 67.2916 101.619 74.9021 95.3109 76.8566C90.9323 78.2132 87.9697 82.2908 88.0326 86.8743C88.1232 93.4778 81.6493 98.1814 75.397 96.0546C71.0573 94.5784 66.2637 96.136 63.6205 99.881C59.8123 105.277 51.8101 105.277 48.002 99.881C45.3588 96.136 40.5652 94.5784 36.2255 96.0546C29.9731 98.1814 23.4992 93.4778 23.5898 86.8743C23.6527 82.2908 20.6901 78.2132 16.3116 76.8566C10.0032 74.9021 7.53041 67.2916 11.4852 62.0025C14.2301 58.3314 14.2301 53.2911 11.4852 49.62C7.53041 44.3308 10.0032 36.7203 16.3116 34.7659C20.6901 33.4093 23.6527 29.3316 23.5898 24.7482C23.4992 18.1446 29.9731 13.4411 36.2255 15.5678C40.5652 17.044 45.3588 15.4865 48.002 11.7414Z" fill="#BCD63F" stroke="black" stroke-width="0.780577"/>
<g clip-path="url(#clip0_553_21856)">
<path d="M48.2891 76.2744C48.5536 74.7678 48.7189 73.1453 49.1157 71.589C49.4959 70.0989 49.281 69.0062 48.008 68.0128C46.8177 67.1022 45.8258 65.9433 44.7512 64.8837C44.3875 64.536 44.1065 64.1718 44.2883 63.642C44.4702 63.1122 44.8835 62.9632 45.396 62.897C47.3963 62.6155 49.3967 62.3341 51.3805 62.0029C51.645 61.9533 51.9757 61.7215 52.1079 61.4731C53.0337 59.6685 53.9099 57.8639 54.8027 56.0427C55.0176 55.5957 55.2821 55.2314 55.8442 55.2314C56.4063 55.2314 56.6708 55.5957 56.8857 56.0593C57.7619 57.8639 58.6711 59.6354 59.5308 61.44C59.7126 61.8374 59.9606 61.9864 60.3574 62.036C62.3578 62.3175 64.3581 62.6155 66.3585 62.897C66.8545 62.9632 67.2182 63.1453 67.3835 63.642C67.5488 64.1552 67.3008 64.5029 66.9536 64.8506C65.5154 66.2413 64.0936 67.6486 62.6553 69.0393C62.3412 69.3373 62.2255 69.6188 62.3082 70.0658C62.6719 72.0526 63.0025 74.0559 63.3497 76.0426C63.4323 76.5062 63.3827 76.9201 62.986 77.2181C62.5727 77.5327 62.1428 77.4664 61.713 77.2346C59.9606 76.3075 58.2082 75.4135 56.4724 74.4532C55.993 74.1883 55.6293 74.2049 55.1664 74.4698C53.414 75.43 51.645 76.3572 49.8596 77.2678C49.0661 77.6982 48.2725 77.2346 48.2891 76.2744ZM50.6531 74.5525C51.9757 73.8572 53.2156 73.2943 54.3563 72.5824C55.3978 71.9367 56.274 71.9201 57.299 72.5824C58.4397 73.3108 59.6796 73.8572 60.9856 74.536C60.9195 74.1386 60.8864 73.8572 60.8368 73.5923C60.6054 72.2512 60.3905 70.9102 60.1425 69.5691C60.0433 69.0062 60.1921 68.5758 60.6054 68.195C61.68 67.1685 62.738 66.1254 63.796 65.0824C63.8952 64.9831 63.9944 64.8506 64.1267 64.685C62.4239 64.4367 60.7872 64.1718 59.1671 63.9566C58.6381 63.8903 58.2909 63.642 58.076 63.1784C57.7453 62.4831 57.4147 61.8043 57.0675 61.1255C56.6708 60.3142 56.274 59.5195 55.8772 58.7082C55.778 58.7745 55.7284 58.791 55.7284 58.8076C55.249 59.7844 54.7696 60.7612 54.2736 61.738C53.0007 64.2546 53.695 63.7413 50.8185 64.1884C49.7439 64.3539 48.6528 64.5195 47.727 64.6519C48.7685 65.7612 49.7935 66.9367 50.8846 68.0128C51.4632 68.5757 51.612 69.1387 51.4632 69.9002C51.1822 71.3903 50.9507 72.8804 50.6531 74.5525Z" fill="#161617"/>
<path d="M70.5251 59.1222C70.5086 59.7182 70.1118 60.1818 69.5828 60.2149C69.0373 60.248 68.5744 59.8838 68.4917 59.2546C68.3099 57.9964 68.128 56.7215 67.9792 55.4467C67.6816 52.8639 67.4337 50.2812 67.103 47.6984C66.6732 44.2547 64.2761 42.0031 60.8209 41.5892C57.2996 41.1753 53.7948 41.2249 50.2735 41.6223C47.3969 41.9534 45.1486 43.9733 44.4708 47.0196C44.1732 48.3607 44.1236 49.7514 43.9748 51.1255C43.6772 53.7911 43.3797 56.4566 43.0655 59.1222C42.9664 59.9169 42.52 60.3142 41.8587 60.2149C41.247 60.1321 40.9495 59.6189 41.0321 58.8573C41.4289 55.2646 41.8257 51.6885 42.2059 48.0958C42.7349 43.1455 45.4792 40.2316 50.3727 39.5859C54.0097 39.1057 57.6467 39.1554 61.2838 39.5859C65.1192 40.0329 68.0453 42.7481 68.9215 46.6388C69.2687 48.1785 69.3348 49.7845 69.5332 51.3573C69.8473 53.8573 70.1614 56.3573 70.4755 58.8573C70.4921 58.9566 70.5086 59.056 70.5251 59.1222Z" fill="#161617"/>
<path d="M29.9884 76.2414C30.2199 74.95 30.4348 73.5427 30.6993 72.1355C30.815 71.5725 30.7489 71.1586 30.2695 70.7282C29.2776 69.8507 28.3683 68.8904 27.426 67.9798C27.0623 67.6322 26.8143 67.2514 27.0127 66.7216C27.1945 66.2249 27.5913 66.0759 28.0707 66.0097C29.4925 65.811 30.9308 65.6123 32.3525 65.3805C32.5839 65.3474 32.865 65.1156 32.9642 64.9004C33.6255 63.6421 34.2371 62.3673 34.8654 61.0759C35.0803 60.6123 35.3613 60.2646 35.9234 60.2646C36.469 60.2646 36.75 60.6289 36.9649 61.0925C37.5435 62.3011 38.1718 63.4931 38.7338 64.7017C38.9488 65.1653 39.2133 65.3805 39.7423 65.4302C41.131 65.5792 42.5197 65.7779 43.8918 66.0428C44.239 66.109 44.6357 66.4236 44.8176 66.7216C45.049 67.1189 44.8341 67.5494 44.487 67.8805C43.4289 68.8904 42.3709 69.9169 41.3459 70.96C41.164 71.1421 41.0483 71.5063 41.0979 71.7547C41.3128 73.1951 41.6104 74.6354 41.7923 76.0924C41.8418 76.4401 41.6765 76.9036 41.4451 77.1851C41.1475 77.5493 40.6681 77.4666 40.2548 77.2513C38.9983 76.5891 37.7254 75.9434 36.4855 75.248C36.1053 75.0328 35.8077 75.0162 35.4109 75.2315C34.1545 75.9268 32.865 76.5891 31.592 77.2513C30.7324 77.6983 29.9554 77.2182 29.9884 76.2414ZM30.2529 67.7812C31.0134 68.5593 31.7078 69.3043 32.4352 70.0163C32.8319 70.4136 32.9972 70.8275 32.8815 71.407C32.6831 72.4004 32.5344 73.4268 32.3525 74.5527C33.3114 74.056 34.1876 73.6421 35.0141 73.1454C35.6424 72.7811 36.1714 72.7811 36.7996 73.1454C37.6262 73.6255 38.4859 74.0394 39.4447 74.5527C39.2629 73.4931 39.1471 72.5825 38.9488 71.6719C38.7834 70.9269 38.9322 70.3805 39.5108 69.8507C40.2217 69.2216 40.8499 68.4931 41.5443 67.7646C40.635 67.6322 39.7588 67.4666 38.8826 67.4004C38.0395 67.3341 37.4774 66.9865 37.1468 66.1752C36.7996 65.3308 36.3532 64.5196 35.8903 63.609C35.3779 64.652 34.8984 65.5958 34.4521 66.5395C34.2371 66.9865 33.923 67.2514 33.4271 67.3176C32.369 67.45 31.3275 67.6156 30.2529 67.7812Z" fill="#161617"/>
<path d="M80.5428 77.4335C80.4271 77.3838 80.1625 77.3011 79.9311 77.1686C78.7077 76.5229 77.4844 75.8938 76.2775 75.2315C75.9304 75.0329 75.6493 75.0494 75.3022 75.2481C74.0623 75.9269 72.7893 76.5726 71.5329 77.2348C71.103 77.4666 70.6732 77.5494 70.2599 77.2348C69.8466 76.9203 69.8135 76.5064 69.8962 76.0097C70.1607 74.5858 70.4087 73.162 70.6236 71.7382C70.6567 71.5064 70.5409 71.1587 70.3756 70.9932C69.3672 69.9667 68.3257 68.9567 67.2842 67.9634C66.9204 67.6157 66.7055 67.2514 66.8543 66.7548C67.0196 66.225 67.4329 66.076 67.9454 66.0097C69.3672 65.8276 70.8055 65.6124 72.2272 65.3806C72.4587 65.3475 72.7232 65.0991 72.8389 64.8839C73.5002 63.6256 74.1119 62.3508 74.7401 61.0594C74.955 60.5959 75.2526 60.2482 75.7981 60.2647C76.3271 60.2813 76.5916 60.6124 76.8066 61.0594C77.4348 62.3343 78.0795 63.6091 78.6747 64.8839C78.84 65.2316 79.0549 65.364 79.4186 65.4137C80.8734 65.5958 82.3117 65.7945 83.75 66.0594C84.0806 66.1256 84.527 66.4568 84.6262 66.7713C84.7254 67.0693 84.5601 67.5991 84.3286 67.864C83.3036 68.9402 82.2125 69.9501 81.171 71.0097C81.0057 71.1753 80.89 71.5064 80.9396 71.7382C81.1545 73.162 81.419 74.5858 81.6504 76.0097C81.8323 76.8706 81.419 77.4501 80.5428 77.4335ZM70.0781 67.7978C70.5409 68.2614 70.9212 68.6422 71.3014 69.023C73.2026 70.9104 72.9546 70.215 72.5578 72.7978C72.5083 73.162 72.4256 73.5263 72.3595 73.8905C72.3264 74.0726 72.3264 74.2713 72.3099 74.5362C73.2853 74.0229 74.178 73.5925 75.0376 73.1123C75.5832 72.7978 76.0626 72.8143 76.6082 73.1123C77.4844 73.609 78.3771 74.0395 79.369 74.5527C79.1872 73.46 79.0549 72.4501 78.84 71.4733C78.7077 70.8441 78.8896 70.4137 79.3194 69.9832C80.0468 69.2879 80.7246 68.5594 81.4686 67.7812C80.4932 67.6488 79.5674 67.4832 78.6416 67.3839C77.9142 67.3011 77.4348 67.0197 77.1372 66.3077C76.757 65.4303 76.2941 64.5693 75.8146 63.6091C75.3022 64.6356 74.8393 65.5627 74.3929 66.5064C74.178 66.97 73.8473 67.2349 73.3183 67.3011C72.2437 67.4501 71.2188 67.6157 70.0781 67.7978Z" fill="#161617"/>
<path d="M55.7784 24.3873C59.1674 24.4038 61.8456 26.4237 62.5896 29.5032C63.4327 33.0131 61.1017 37.4501 57.7292 38.725C56.1586 39.3044 54.6212 39.2051 53.1167 38.4601C50.389 37.0859 48.4382 33.5594 48.7027 30.4965C49.0168 26.8873 51.943 24.3707 55.7784 24.3873ZM60.7214 31.0429C60.6884 30.7283 60.6719 30.3475 60.5892 29.9833C60.0767 27.7151 57.9275 26.2416 55.4147 26.4237C52.9349 26.6058 51.1164 28.0793 50.7857 30.1985C50.422 32.4998 51.8107 35.3806 53.8607 36.523C55.1006 37.2018 56.357 37.2349 57.5638 36.5064C59.5807 35.2813 60.5892 33.4435 60.7214 31.0429Z" fill="#161617"/>
<path d="M49.3968 49.4866C49.1819 52.5991 48.967 55.7117 48.752 58.8243C48.7355 58.9898 48.719 59.1554 48.7024 59.321C48.6033 59.9335 48.1569 60.2812 47.5783 60.2315C47.0493 60.1819 46.6855 59.768 46.6855 59.1554C46.7021 58.4931 46.7682 57.8309 46.8013 57.1852C46.9997 54.4534 47.1815 51.7051 47.3964 48.9733C47.446 48.3442 47.9089 47.9468 48.4545 47.9799C49 48.0131 49.3968 48.4601 49.4133 49.0727C49.4133 49.2217 49.4133 49.3541 49.4133 49.5031C49.4133 49.4866 49.3968 49.4866 49.3968 49.4866Z" fill="#161617"/>
<path d="M62.0272 49.619C62.0107 49.4203 61.9941 49.2051 61.9941 49.0064C62.0107 48.3938 62.424 47.9634 62.9861 47.9634C63.5316 47.9634 63.9614 48.3773 64.011 48.9899C64.1433 50.5958 64.2425 52.2018 64.3582 53.8077C64.4739 55.4799 64.6062 57.1355 64.7054 58.8077C64.7219 59.1223 64.6889 59.4699 64.5566 59.7514C64.3582 60.1653 63.9118 60.364 63.5151 60.1819C63.1844 60.0329 62.8207 59.6852 62.7381 59.3541C62.5728 58.7746 62.6058 58.1289 62.5562 57.5163C62.3909 54.8839 62.2091 52.2514 62.0272 49.619Z" fill="#161617"/>
</g>
<defs>
<clipPath id="clip0_553_21856">
<rect width="57.7627" height="53.0792" fill="white" transform="translate(26.9297 24.3872)"/>
</clipPath>
</defs>
</svg>
