<svg width="25" height="25" viewBox="0 0 25 25" fill="none" xmlns="http://www.w3.org/2000/svg">
<rect x="0.5" y="0.5" width="24" height="24" rx="5" fill="white"/>
<path d="M21.0001 12.6956C21.0001 12.1238 20.9495 11.5811 20.8626 11.0527H12.6846V14.3167H17.3671C17.1572 15.3878 16.542 16.2925 15.6301 16.9076V19.0788H18.4237C20.0593 17.5662 21.0001 15.3372 21.0001 12.6956Z" fill="#4285F4"/>
<path d="M12.6847 21.1846C15.0295 21.1846 16.9908 20.4029 18.4238 19.0785L15.6302 16.9074C14.8486 17.4284 13.8571 17.7469 12.6847 17.7469C10.4194 17.7469 8.50154 16.2198 7.81401 14.1572H4.93359V16.3935C6.35933 19.2305 9.2904 21.1846 12.6847 21.1846Z" fill="#34A853"/>
<path d="M7.81402 14.1574C7.63309 13.6363 7.539 13.079 7.539 12.5001C7.539 11.9211 7.64032 11.3638 7.81402 10.8427V8.60645H4.9336C4.34015 9.77887 4 11.096 4 12.5001C4 13.9041 4.34015 15.2213 4.9336 16.3937L7.81402 14.1574Z" fill="#FBBC05"/>
<path d="M12.6847 7.25311C13.9656 7.25311 15.1091 7.69458 16.0138 8.55581L18.4889 6.08068C16.9908 4.67666 15.0295 3.81543 12.6847 3.81543C9.2904 3.81543 6.35933 5.76948 4.93359 8.60647L7.81401 10.8428C8.50154 8.78017 10.4194 7.25311 12.6847 7.25311Z" fill="#EA4335"/>
</svg>
