<svg width="80" height="80" viewBox="0 0 80 80" fill="none" xmlns="http://www.w3.org/2000/svg">
<g clip-path="url(#clip0_553_19841)">
<path d="M37.2739 4.87928C38.888 3.45729 41.3152 3.45729 42.9533 4.87928L44.6119 6.31905C46.1128 7.62197 48.1768 8.05641 50.061 7.46602L52.1696 6.80532C54.2339 6.15851 56.4705 7.14867 57.3942 9.11827L58.2813 11.01C59.1312 12.8223 60.8652 14.0646 62.8504 14.2834L64.987 14.5189C67.1638 14.7588 68.8299 16.5887 68.8636 18.7765L68.894 20.7463C68.925 22.7632 70.0222 24.6218 71.7775 25.6306L73.5428 26.6452C75.4621 27.7483 76.2523 30.1145 75.3745 32.1304L74.6092 33.8883C73.8013 35.7438 74.0476 37.8975 75.2555 39.5393L76.4082 41.1061C77.7231 42.8933 77.4829 45.3738 75.8519 46.8511L74.3945 48.1712C72.8996 49.5252 72.2446 51.5783 72.675 53.561L73.0861 55.455C73.5531 57.6065 72.3306 59.7514 70.2476 60.4353L68.2669 61.0856C66.3654 61.7099 64.9421 63.2929 64.5217 65.2511L64.098 67.2247C63.6417 69.3498 61.6701 70.7884 59.501 70.5788L57.3175 70.3679C55.3394 70.1768 53.4135 71.0306 52.237 72.6203L50.9685 74.3343C49.6874 76.0654 47.3144 76.5697 45.4185 75.5138L43.4779 74.433C41.7444 73.4677 39.6415 73.4677 37.9244 74.433L36.002 75.5138C34.1239 76.5697 31.7425 76.0654 30.4321 74.3343L29.1346 72.6203C27.9313 71.0306 25.991 70.1768 24.0161 70.3679L21.8362 70.5788C19.6706 70.7884 17.6747 69.3498 17.1825 67.2247L16.7254 65.2511C16.272 63.2929 14.8219 61.7099 12.9099 61.0856L10.9182 60.4353C8.82366 59.7514 7.56495 57.6065 7.99559 55.455L8.37469 53.561C8.77155 51.5783 8.08188 49.5252 6.56412 48.1712L5.0844 46.8511C3.42839 45.3738 3.14628 42.8933 4.43099 41.1061L5.55724 39.5393C6.73738 37.8975 6.94734 35.7438 6.10812 33.8883L5.31304 32.1304C4.40123 30.1145 5.15142 27.7483 7.05211 26.6452L8.8003 25.6306C10.5385 24.6218 11.6043 22.7632 11.6013 20.7463L11.5983 18.7765C11.5951 16.5887 13.2303 14.7588 15.403 14.5189L17.5357 14.2834C19.5172 14.0646 21.2302 12.8223 22.0495 11.01L22.9046 9.11827C23.795 7.14867 26.0149 6.15851 28.0901 6.80532L30.2099 7.46602C32.1041 8.05641 34.1607 7.62197 35.6396 6.31905L37.2739 4.87928Z" fill="#FFC907" stroke="black" stroke-width="1.37252"/>
<g filter="url(#filter0_d_553_19841)">
<path d="M56.2894 29.2764C56.6404 30.1218 56.3596 31.1785 55.5872 31.7421L40 42.8731V42.8027V42.8731L24.4128 31.8125C23.6404 31.249 23.3596 30.1922 23.7106 29.3468C23.5702 29.5582 23.5 29.9104 23.5 30.1922V50.9043C23.5 52.102 24.483 53.0883 25.6766 53.0883H54.3234C55.517 53.0883 56.5 52.102 56.5 50.9043V30.1922C56.5 29.9104 56.4298 29.5582 56.2894 29.2764Z" fill="white"/>
<path d="M25.6766 28.0083C24.483 28.0083 23.5 28.9946 23.5 30.1922V50.9044C23.5 52.102 24.483 53.0883 25.6766 53.0883H27.6426V28.0083H25.6766Z" fill="#161617"/>
<path d="M25.677 52.8064C24.6238 52.8064 23.7812 51.9611 23.7812 50.9043V30.1922C23.7812 29.1354 24.6238 28.29 25.677 28.29H27.3621V52.8064H25.677Z" fill="#EF4949"/>
<path d="M54.3231 28.0083H52.3572V53.0883H54.3231C55.5168 53.0883 56.4997 52.102 56.4997 50.9044V30.1922C56.4997 28.9946 55.5168 28.0083 54.3231 28.0083Z" fill="#161617"/>
<path d="M52.6379 52.8064V28.29H54.323C55.3762 28.29 56.2188 29.1354 56.2188 30.1922V50.9043C56.2188 51.9611 55.3762 52.8064 54.323 52.8064H52.6379Z" fill="#D54B3D"/>
<path d="M26.7432 28.358L26.7436 28.3576L26.7337 28.3498C26.6455 28.2796 26.556 28.214 26.4644 28.1549H53.5356C53.444 28.214 53.3545 28.2796 53.2663 28.3498L53.266 28.3493L53.2568 28.358L40 40.7876L26.7432 28.358Z" fill="white" stroke="black" stroke-width="0.309859"/>
<path d="M56.0788 28.9241C55.4469 28.0082 54.1128 27.7264 53.2001 28.4309L40.0001 37.8007L26.8001 28.3605C25.8873 27.7264 24.5532 27.9378 23.9213 28.9241C23.2894 29.8399 23.5001 31.108 24.4128 31.8125L40.0001 42.873L55.5873 31.8125C56.5001 31.108 56.7107 29.8399 56.0788 28.9241Z" fill="#161617"/>
<path d="M40.0003 42.8729L27.6428 53.0881V34.1372L40.0003 42.8729Z" fill="#EFF0F0"/>
<path d="M40 42.5241L39.9298 42.4504L24.6234 31.5307C23.7809 30.9671 23.5702 29.8399 24.2021 29.065C24.483 28.5718 25.0447 28.29 25.6064 28.29C25.9575 28.29 26.3085 28.4309 26.6596 28.6423L40 38.153L53.3404 28.6423C53.6213 28.4309 53.9724 28.29 54.3936 28.29C54.9553 28.29 55.517 28.5718 55.8681 29.065C56.1489 29.4877 56.2192 29.9104 56.1489 30.4035C56.0787 30.8967 55.7979 31.3194 55.4468 31.5307L40.0702 42.4504L40 42.5241Z" fill="#EF4949"/>
<g style="mix-blend-mode:multiply">
<path d="M54.2224 53.0842H45.5535L24.9297 31.3042L39.9606 42.4509L55.4808 30.8642C55.9702 30.4976 56.2499 29.9109 56.3198 29.3242H56.3897V50.8109C56.3897 52.0576 55.4109 53.0842 54.2224 53.0842Z" fill="#D9D9D9" fill-opacity="0.33"/>
</g>
</g>
</g>
<defs>
<filter id="filter0_d_553_19841" x="23.5" y="28" width="34" height="26.0884" filterUnits="userSpaceOnUse" color-interpolation-filters="sRGB">
<feFlood flood-opacity="0" result="BackgroundImageFix"/>
<feColorMatrix in="SourceAlpha" type="matrix" values="0 0 0 0 0 0 0 0 0 0 0 0 0 0 0 0 0 0 127 0" result="hardAlpha"/>
<feOffset dx="1" dy="1"/>
<feComposite in2="hardAlpha" operator="out"/>
<feColorMatrix type="matrix" values="0 0 0 0 0 0 0 0 0 0 0 0 0 0 0 0 0 0 1 0"/>
<feBlend mode="normal" in2="BackgroundImageFix" result="effect1_dropShadow_553_19841"/>
<feBlend mode="normal" in="SourceGraphic" in2="effect1_dropShadow_553_19841" result="shape"/>
</filter>
<clipPath id="clip0_553_19841">
<rect width="80" height="80" fill="white"/>
</clipPath>
</defs>
</svg>
