<svg width="25" height="25" viewBox="0 0 25 25" fill="none" xmlns="http://www.w3.org/2000/svg">
<path d="M17.6372 1.44251C15.5163 0.661111 13.8419 0.2146 12.614 0.2146H11.8326C10.9395 0.2146 9.82326 0.437855 8.48372 0.772739C5.69302 1.66576 3.46046 3.45181 1.78605 6.01925C0.669767 8.25181 0.111628 9.92623 0.111628 11.1541V11.9355C0.111628 12.0472 0.111628 12.1588 0 12.1588C0 12.2704 0.111628 12.382 0.111628 12.4937V13.2751C0.111628 13.6099 0.223256 14.3913 0.55814 15.5076C0.893023 16.9588 1.78605 18.6332 3.12558 20.196C4.24186 21.4239 5.46977 22.4286 6.8093 22.9867C8.70698 23.7681 10.3814 24.2146 11.6093 24.2146H12.5023C14.0651 24.2146 15.9628 23.6565 18.0837 22.5402C22.1023 19.9727 24 16.5123 24 12.2704C24.1116 7.69367 21.9907 4.12158 17.6372 1.44251ZM19.3116 12.382V12.4937C19.3116 12.8286 19.2 13.0518 19.2 13.3867C18.8651 15.0611 17.9721 16.5123 16.5209 17.5169C14.8465 18.8565 12.8372 19.303 10.7163 18.8565C9.04186 18.5216 7.70233 17.6286 6.58605 16.289C5.46977 14.8379 5.02326 13.1634 5.13488 11.2658C5.24651 9.8146 5.91628 8.47507 6.8093 7.35879C7.92558 6.13088 9.26512 5.34948 10.9395 5.0146C11.1628 5.0146 11.4977 4.90297 11.7209 4.90297C11.9442 4.90297 12.2791 4.90297 12.5023 4.90297H12.614C13.7302 5.0146 14.7349 5.34948 15.7395 5.90762C17.5256 7.0239 18.7535 8.69832 19.0884 10.8193C19.0884 11.0425 19.2 11.3774 19.2 11.6006C19.3116 11.8239 19.3116 12.1588 19.3116 12.382Z" fill="#BCD63F"/>
<path d="M12.2791 6.46558C9.2652 6.46558 6.69775 8.92139 6.69775 11.9353C6.69775 14.9493 9.15357 17.5167 12.1675 17.5167C15.1815 17.5167 17.7489 15.0609 17.7489 12.047C17.7489 8.92139 15.2931 6.46558 12.2791 6.46558ZM14.9582 14.8377C14.735 15.0609 14.4001 15.0609 14.1768 14.9493L14.0652 14.8377C13.3954 14.1679 12.7257 13.3865 11.9443 12.7167C11.8326 12.6051 11.721 12.3819 11.721 12.1586C11.721 11.6005 11.721 11.1539 11.721 10.5958C11.721 10.0377 11.721 9.47953 11.721 9.03302C11.721 8.80976 11.8326 8.58651 12.0559 8.47488C12.2791 8.36325 12.5024 8.47488 12.7257 8.58651C12.8373 8.69813 12.9489 8.92139 12.9489 9.03302C12.9489 9.92604 12.9489 10.8191 12.9489 11.8237C12.9489 11.9353 12.9489 12.047 13.0605 12.1586C13.7303 12.8284 14.2885 13.3865 14.9582 14.0563C15.1815 14.2795 15.1815 14.6144 14.9582 14.8377Z" fill="#BCD63F"/>
</svg>
