<svg width="216" height="216" viewBox="0 0 216 216" fill="none" xmlns="http://www.w3.org/2000/svg">
<path d="M93.4968 23.1502C100.569 13.1296 115.431 13.1296 122.503 23.1502C127.808 30.667 137.43 33.7932 146.14 30.8303C157.752 26.8805 169.775 35.6159 169.607 47.8798C169.481 57.0794 175.427 65.2638 184.215 67.9866C195.931 71.6164 200.523 85.7505 193.179 95.5733C187.669 102.942 187.669 113.058 193.179 120.427C200.523 130.25 195.931 144.384 184.215 148.013C175.427 150.736 169.481 158.921 169.607 168.12C169.775 180.384 157.752 189.119 146.14 185.17C137.43 182.207 127.808 185.333 122.503 192.85C115.431 202.87 100.569 202.87 93.4968 192.85C88.1915 185.333 78.5702 182.207 69.8599 185.17C58.2481 189.119 46.225 180.384 46.3932 168.12C46.5194 158.921 40.5731 150.736 31.7848 148.013C20.0691 144.384 15.4766 130.25 22.8213 120.427C28.3308 113.058 28.3308 102.942 22.8213 95.5733C15.4766 85.7505 20.0691 71.6164 31.7848 67.9866C40.5731 65.2638 46.5194 57.0794 46.3932 47.8798C46.225 35.6159 58.2481 26.8805 69.8599 30.8303C78.5702 33.7932 88.1915 30.667 93.4968 23.1502Z" fill="#396CB4" stroke="black" stroke-width="3"/>
<path d="M108.286 154.603C89.667 154.603 71.0483 154.603 52.4683 154.603C50.1845 154.603 49.5652 153.984 49.6813 151.699C50.378 137.911 51.0748 124.123 51.7715 110.335C52.3522 98.5227 52.9328 86.7101 53.5134 74.8975C53.5908 73.0385 54.2102 72.4576 56.0682 72.4188C60.0164 72.4188 63.9647 72.3801 67.9129 72.4576C68.8806 72.4576 69.229 72.3027 69.1903 71.2182C69.1129 68.3522 69.1516 65.525 69.1516 62.659C69.229 50.8077 80.3383 42.4808 91.6799 45.7728C92.3379 45.9665 92.9185 45.9277 93.5766 45.7728C104.802 42.5195 115.911 50.8077 116.066 62.504C116.105 65.4862 116.105 68.4684 116.066 71.4119C116.066 72.3027 116.337 72.4576 117.15 72.4576C121.176 72.4188 125.201 72.4188 129.227 72.4576C131.008 72.4576 131.627 73.0772 131.743 74.8588C132.13 82.9146 132.556 90.9704 132.943 99.0261C132.982 99.9169 133.446 99.8395 134.027 99.8395C142.697 99.8395 151.368 99.8395 160.039 99.8395C162.439 99.8395 162.865 100.227 163.058 102.589C164.103 116.3 165.187 130.049 166.232 143.759C166.426 146.354 166.658 148.949 166.851 151.544C167.045 153.906 166.426 154.603 164.103 154.603C145.484 154.603 126.866 154.603 108.286 154.603ZM55.4875 113.666H55.4488C55.4488 114.286 55.4875 114.905 55.4488 115.486C54.8682 126.834 54.3263 138.182 53.7457 149.53C53.707 150.304 53.7457 150.692 54.7134 150.692C68.4161 150.653 82.0802 150.653 95.7829 150.692C96.5958 150.692 96.7894 150.42 96.8281 149.646C97.0603 146.005 97.3313 142.326 97.6022 138.685C98.5312 126.486 99.499 114.324 100.467 102.163C100.583 100.459 101.202 99.8395 102.905 99.8395C105.808 99.8395 108.673 99.8395 111.576 99.8395C113.473 99.8395 113.511 99.8395 113.395 97.8643C113.163 92.7907 112.892 87.6783 112.66 82.6048C112.582 80.8232 112.466 79.0416 112.389 77.2213C112.35 76.6017 112.157 76.2918 111.46 76.3305C109.37 76.3693 107.318 76.3693 105.228 76.3305C104.57 76.3305 104.376 76.5242 104.415 77.1826C104.454 78.6931 104.415 80.2035 104.415 81.714C104.415 83.2632 103.718 84.1539 102.479 84.1927C101.241 84.2314 100.505 83.3019 100.505 81.6752C100.505 80.2422 100.467 78.8092 100.505 77.415C100.544 76.6404 100.351 76.3693 99.499 76.3693C91.0218 76.408 82.5447 76.408 74.0676 76.3693C73.216 76.3693 73.0611 76.6404 73.0999 77.415C73.1386 81.0168 73.1386 84.58 73.0999 88.1818C73.0999 88.8402 73.3321 89.2275 73.874 89.5374C75.1901 90.3507 76.4288 91.2802 77.7449 92.0935C78.5964 92.6357 79.0222 93.3716 79.0222 94.4173C78.9835 99.336 79.0222 104.293 79.0222 109.212C79.0222 110.877 78.3255 111.575 76.6223 111.575C72.9837 111.575 69.3838 111.575 65.7453 111.575C64.0808 111.575 63.3841 110.877 63.3841 109.212C63.3841 104.293 63.3841 99.336 63.3841 94.4173C63.3841 93.3716 63.7711 92.6357 64.6614 92.0935C66.0162 91.2415 67.2936 90.312 68.6484 89.4599C69.1129 89.1501 69.3064 88.8402 69.3064 88.2593C69.2677 84.58 69.2677 80.9394 69.3064 77.2601C69.3064 76.6017 69.1516 76.3305 68.4548 76.3305C65.0872 76.3693 61.6809 76.3693 58.3133 76.3305C57.6552 76.3305 57.4617 76.5629 57.423 77.1439C57.3843 78.5769 57.3068 80.0099 57.2294 81.4041C56.5714 92.2097 56.0295 102.938 55.4875 113.666ZM124.001 150.692C131.356 150.692 138.749 150.692 146.104 150.73C146.955 150.73 147.188 150.537 147.11 149.646C146.646 143.914 146.22 138.182 145.794 132.45C145.097 123.271 144.362 114.092 143.704 104.913C143.626 103.945 143.356 103.712 142.427 103.712C132.866 103.751 123.266 103.751 113.705 103.751C110.802 103.751 107.937 103.79 105.034 103.751C104.338 103.751 104.105 103.945 104.105 104.642C104.067 105.881 103.95 107.082 103.873 108.283C103.331 115.215 102.789 122.187 102.247 129.119C101.705 135.936 101.241 142.752 100.66 149.568C100.583 150.498 100.854 150.692 101.744 150.692C109.176 150.692 116.608 150.692 124.001 150.692ZM92.6089 72.4576C94.9314 72.4576 97.2539 72.4188 99.5764 72.4576C100.234 72.4576 100.467 72.3027 100.467 71.6055C100.428 68.4297 100.583 65.2538 100.389 62.078C100.157 57.0819 97.7571 53.3251 93.4604 50.7302C92.8798 50.3816 92.3766 50.3429 91.796 50.7302C88.1574 52.8991 85.7962 55.9587 85.0994 60.1415C84.4414 64.0532 84.9446 68.0037 84.8285 71.9541C84.7898 72.69 85.3317 72.4188 85.6801 72.4576C88.0026 72.4576 90.2864 72.4576 92.6089 72.4576ZM150.826 146.857C152.336 144.611 153.613 142.675 154.929 140.699C155.084 140.467 155.123 140.196 155.084 139.886C154.736 136.594 154.426 133.341 154.078 130.049C153.304 122.264 152.491 114.479 151.755 106.733C151.484 103.712 151.523 103.751 148.542 103.751C147.613 103.751 147.497 104.061 147.575 104.874C147.846 107.818 148.078 110.8 148.271 113.782C149.162 124.665 149.975 135.587 150.826 146.857ZM87.3058 49.0648C80.7254 48.6001 74.3385 53.7124 73.3321 60.1803C72.7515 64.0532 73.216 67.9649 73.0611 71.8766C73.0224 72.535 73.4482 72.4576 73.8353 72.4576C75.8869 72.4576 77.8997 72.4188 79.9512 72.4963C80.8028 72.535 80.9189 72.2252 80.9189 71.4506C80.8802 69.0494 80.9964 66.6481 80.8802 64.2469C80.648 58.2438 82.6221 53.1702 87.3058 49.0648ZM97.9119 49.0261C102.75 53.2476 104.647 58.4374 104.376 64.5567C104.26 66.9192 104.376 69.2817 104.338 71.6442C104.338 72.1477 104.376 72.4576 105.034 72.4576C107.202 72.4188 109.331 72.4188 111.499 72.4576C112.04 72.4576 112.195 72.3027 112.195 71.7604C112.157 68.4297 112.273 65.0989 112.118 61.7682C111.77 54.5257 105.305 48.6775 97.9119 49.0261ZM162.323 144.96C162.323 144.417 162.323 144.146 162.323 143.875C161.897 138.259 161.471 132.682 161.045 127.066C160.503 120.211 160 113.356 159.419 106.501C159.342 105.61 159.768 104.371 158.994 103.906C158.297 103.48 157.174 103.829 156.245 103.751C155.471 103.674 155.394 104.061 155.471 104.681C155.626 105.959 155.781 107.276 155.897 108.554C156.826 117.965 157.871 127.338 158.607 136.749C158.839 139.963 160.31 142.365 162.323 144.96ZM67.2162 101.272C67.2162 103.132 67.2549 105.029 67.2162 106.888C67.2162 107.547 67.4097 107.702 68.0291 107.702C70.0419 107.663 72.0934 107.663 74.1063 107.702C74.8804 107.74 75.0353 107.469 75.0353 106.733C74.9966 103.131 74.9966 99.4909 75.0353 95.889C75.0353 95.2306 74.8417 94.8433 74.2611 94.5335C73.1773 93.9138 72.1321 92.6745 71.087 92.6745C70.0419 92.6745 68.9968 93.9138 67.9129 94.5335C67.371 94.8433 67.1388 95.2306 67.1775 95.889C67.2549 97.6706 67.2162 99.4522 67.2162 101.272ZM116.298 78.6931C116.647 85.1222 116.956 91.164 117.266 97.1671C117.421 99.8395 117.421 99.762 120.092 99.8782C121.369 99.9169 121.524 99.4909 121.447 98.3677C120.982 91.3964 120.595 84.4251 120.208 77.415C120.169 76.5629 119.86 76.2531 119.047 76.3305C118.118 76.4467 116.918 75.9432 116.376 76.5629C115.95 77.0664 116.298 78.267 116.298 78.6931ZM124.156 79.0804C124.505 84.8898 124.892 91.2802 125.317 97.7093C125.472 99.8782 125.472 99.8007 127.679 99.8782C128.801 99.9169 129.111 99.6071 129.033 98.4839C128.646 91.7062 128.337 84.9285 128.027 78.1508C127.95 76.3693 127.95 76.3693 126.208 76.3693C124.079 76.3693 124.079 76.3693 124.156 79.0804ZM161.277 150.653C159.961 148.678 158.761 146.896 157.561 145.114C157.407 144.882 157.252 144.301 156.826 144.921C155.587 146.78 154.31 148.678 152.994 150.653C155.82 150.653 158.452 150.653 161.277 150.653Z" fill="#161617"/>
<path d="M55.4885 113.666C56.0304 102.938 56.5723 92.1711 57.1142 81.4429C57.1916 80.0099 57.2303 78.5769 57.3078 77.1827C57.3465 76.6017 57.54 76.3306 58.198 76.3694C61.5657 76.4081 64.972 76.4081 68.3396 76.3694C69.0751 76.3694 69.2299 76.6017 69.1912 77.2989C69.1525 80.9782 69.1525 84.6188 69.1912 88.2981C69.1912 88.8403 68.9977 89.1889 68.5332 89.4987C67.1784 90.3508 65.901 91.2803 64.5462 92.1323C63.6559 92.6746 63.2688 93.4104 63.2688 94.4561C63.3076 99.3748 63.2688 104.332 63.2688 109.251C63.2688 110.916 63.9656 111.613 65.6301 111.613C69.2686 111.613 72.8685 111.613 76.5071 111.613C78.1716 111.613 78.8683 110.916 78.907 109.251C78.907 104.332 78.907 99.3748 78.907 94.4561C78.907 93.4104 78.5199 92.6746 77.6296 92.1323C76.3136 91.2803 75.0749 90.3895 73.7588 89.5762C73.2169 89.2276 72.9846 88.879 72.9846 88.2206C73.0233 84.6188 73.0233 81.0556 72.9846 77.4538C72.9846 76.6792 73.1395 76.4081 73.9524 76.4081C82.4295 76.4468 90.9066 76.4468 99.3837 76.4081C100.197 76.4081 100.429 76.6792 100.39 77.4538C100.351 78.8868 100.351 80.3198 100.39 81.7141C100.39 83.3407 101.126 84.2702 102.364 84.2315C103.564 84.1928 104.261 83.3407 104.3 81.7528C104.3 80.2423 104.338 78.7319 104.3 77.2214C104.3 76.6017 104.455 76.3694 105.113 76.3694C107.203 76.4081 109.254 76.4081 111.345 76.3694C112.041 76.3694 112.274 76.6405 112.274 77.2601C112.351 79.0417 112.467 80.8233 112.545 82.6436C112.816 87.7172 113.048 92.8295 113.28 97.9031C113.357 99.8783 113.357 99.8783 111.461 99.8783C108.558 99.8783 105.693 99.8783 102.79 99.8783C101.087 99.8783 100.468 100.498 100.351 102.202C99.4225 114.402 98.4547 126.563 97.487 138.724C97.2161 142.365 96.9064 146.044 96.7129 149.685C96.6742 150.459 96.4806 150.73 95.6677 150.73C81.965 150.692 68.3009 150.692 54.5982 150.73C53.6305 150.73 53.5918 150.343 53.6305 149.568C54.2111 138.221 54.7917 126.873 55.3336 115.525C55.3723 114.905 55.3336 114.286 55.3336 113.705C55.4498 113.666 55.4498 113.666 55.4885 113.666Z" fill="#EF4985"/>
<path d="M124 150.691C116.607 150.691 109.175 150.691 101.781 150.73C100.852 150.73 100.62 150.536 100.697 149.607C101.239 142.791 101.743 135.974 102.284 129.158C102.826 122.225 103.368 115.254 103.91 108.321C103.988 107.12 104.142 105.881 104.142 104.68C104.142 103.983 104.413 103.79 105.071 103.79C107.975 103.828 110.839 103.79 113.742 103.79C123.303 103.79 132.903 103.79 142.464 103.751C143.393 103.751 143.664 103.983 143.741 104.952C144.399 114.131 145.135 123.309 145.831 132.488C146.257 138.22 146.683 143.952 147.147 149.684C147.225 150.536 146.993 150.769 146.141 150.769C138.748 150.691 131.393 150.691 124 150.691ZM135.651 122.38C135.651 119.127 135.69 116.454 135.651 113.743C135.651 112.194 134.412 111.187 133.096 111.691C132.09 112.078 131.742 112.852 131.742 113.898C131.742 118.817 131.742 123.736 131.742 128.693C131.742 132.605 129.303 135.045 125.432 135.045C124.464 135.045 123.497 135.045 122.49 135.045C118.503 135.045 116.103 132.643 116.065 128.693C116.065 123.774 116.065 118.856 116.065 113.898C116.065 112.465 115.29 111.574 114.129 111.574C112.929 111.574 112.194 112.426 112.194 113.859C112.194 119.049 112.155 124.2 112.194 129.39C112.233 133.999 115.6 137.872 120.129 138.763C122.103 139.15 124.116 138.956 126.09 138.918C130.696 138.84 134.606 135.509 135.419 130.939C135.961 127.957 135.496 124.859 135.651 122.38Z" fill="#BCD63F"/>
<path d="M150.828 146.857C149.976 135.587 149.125 124.665 148.312 113.743C148.08 110.761 147.886 107.818 147.615 104.836C147.538 104.022 147.693 103.712 148.583 103.712C151.563 103.751 151.486 103.712 151.796 106.695C152.531 114.479 153.344 122.264 154.118 130.01C154.428 133.302 154.776 136.555 155.125 139.847C155.163 140.157 155.125 140.428 154.97 140.661C153.615 142.674 152.338 144.611 150.828 146.857Z" fill="#BCD63F"/>
<path d="M162.324 144.96C160.311 142.365 158.879 139.964 158.608 136.749C157.873 127.338 156.828 117.965 155.899 108.554C155.783 107.276 155.628 105.959 155.473 104.681C155.395 104.061 155.473 103.674 156.247 103.751C157.176 103.829 158.299 103.48 158.995 103.906C159.808 104.371 159.344 105.61 159.421 106.501C160.002 113.356 160.505 120.211 161.047 127.067C161.473 132.682 161.898 138.259 162.324 143.875C162.324 144.146 162.324 144.417 162.324 144.96Z" fill="#BCD63F"/>
<path d="M67.2148 101.273C67.2148 99.4911 67.2536 97.7095 67.2148 95.9279C67.2148 95.2695 67.4084 94.8822 67.9503 94.5724C69.0341 93.9527 70.0793 92.7134 71.1244 92.7134C72.1695 92.7134 73.2146 93.914 74.2985 94.5724C74.8404 94.8822 75.0726 95.2695 75.0726 95.9279C75.0339 99.5298 75.0339 103.17 75.0726 106.772C75.0726 107.508 74.9178 107.741 74.1436 107.741C72.1308 107.663 70.0793 107.702 68.0664 107.741C67.4471 107.741 67.2148 107.586 67.2536 106.927C67.2536 104.991 67.2148 103.132 67.2148 101.273Z" fill="#BCD63F"/>
<path d="M116.298 78.6932C116.298 78.2285 115.95 77.0666 116.376 76.5631C116.918 75.9434 118.156 76.4469 119.047 76.3307C119.859 76.2533 120.169 76.5631 120.208 77.4152C120.595 84.3865 120.982 91.3579 121.446 98.3679C121.524 99.4911 121.369 99.9171 120.092 99.8784C117.421 99.7622 117.421 99.8397 117.266 97.1673C116.956 91.1642 116.608 85.1611 116.298 78.6932Z" fill="#EF4985"/>
<path d="M124.156 79.0802C124.078 76.3691 124.078 76.3691 126.207 76.3691C127.949 76.3691 127.949 76.3691 128.026 78.1507C128.336 84.9284 128.685 91.7061 129.033 98.4838C129.11 99.607 128.762 99.9168 127.678 99.8781C125.472 99.8006 125.433 99.8393 125.317 97.7092C124.891 91.2801 124.543 84.8897 124.156 79.0802Z" fill="#EF4985"/>
<path d="M161.276 150.653C158.45 150.653 155.818 150.653 152.992 150.653C154.308 148.678 155.586 146.78 156.824 144.921C157.25 144.301 157.405 144.882 157.56 145.115C158.798 146.896 159.96 148.678 161.276 150.653Z" fill="#BCD63F"/>
<path d="M135.655 122.38C135.5 124.859 135.964 127.918 135.461 130.939C134.648 135.509 130.777 138.84 126.132 138.918C124.158 138.956 122.145 139.111 120.171 138.763C115.642 137.911 112.275 133.999 112.236 129.39C112.197 124.2 112.197 119.049 112.236 113.86C112.236 112.427 113.01 111.536 114.171 111.574C115.371 111.574 116.107 112.465 116.107 113.898C116.107 118.817 116.107 123.736 116.107 128.693C116.107 132.643 118.546 135.045 122.532 135.045C123.5 135.045 124.468 135.045 125.474 135.045C129.345 135.045 131.784 132.605 131.784 128.693C131.784 123.774 131.784 118.856 131.784 113.898C131.784 112.853 132.093 112.039 133.139 111.691C134.455 111.226 135.693 112.194 135.693 113.743C135.655 116.454 135.655 119.127 135.655 122.38Z" fill="#161617"/>
</svg>
