<svg width="24" height="24" viewBox="0 0 24 24" fill="none" xmlns="http://www.w3.org/2000/svg">
<path d="M14.532 8.68376L14.986 8.47434L14.532 8.68376C14.6777 8.99957 14.977 9.21701 15.3223 9.25796L21.326 9.9698L16.8873 14.0746C16.632 14.3107 16.5177 14.6625 16.5855 15.0037L17.7637 20.9335L12.4882 17.9805C12.1847 17.8106 11.8148 17.8106 11.5113 17.9805L6.23579 20.9335L7.41404 15.0037C7.48182 14.6625 7.3675 14.3107 7.11217 14.0746L2.67346 9.9698L8.67718 9.25796C9.02255 9.21701 9.32183 8.99957 9.4675 8.68376L11.9998 3.19385L14.532 8.68376Z" stroke="#161617" stroke-linecap="round" stroke-linejoin="round"/>
<mask id="mask0_96_1122" style="mask-type:alpha" maskUnits="userSpaceOnUse" x="1" y="2" width="11" height="20">
<rect x="1" y="2" width="11" height="20" fill="#D9D9D9"/>
</mask>
<g mask="url(#mask0_96_1122)">
<path d="M14.078 8.89318L14.986 8.47434L14.078 8.89318C14.2965 9.36689 14.7454 9.69306 15.2634 9.75448L20.1907 10.3387L16.5479 13.7075C16.1649 14.0617 15.9934 14.5894 16.095 15.1011L17.062 19.9677L12.7324 17.5442C12.2772 17.2894 11.7223 17.2894 11.2671 17.5442L6.93746 19.9677L7.90445 15.1011C8.00612 14.5894 7.83465 14.0617 7.45164 13.7075L6.8141 14.3969L7.45164 13.7075L3.80879 10.3387L8.73605 9.75448C9.2541 9.69306 9.70303 9.36689 9.92153 8.89318L11.9998 4.3876L14.078 8.89318Z" fill="#161617" stroke="#161617" stroke-width="2" stroke-linecap="round" stroke-linejoin="round"/>
</g>
</svg>
