<svg width="32" height="35" viewBox="0 0 32 35" fill="none" xmlns="http://www.w3.org/2000/svg">
<g clip-path="url(#clip0_1512_9603)">
<path d="M13.4368 24.8473C14.7233 24.8473 16.0099 24.8473 17.2964 24.8473C17.3577 24.2112 17.419 23.5751 17.4802 22.9389C17.7866 20.0763 18.0929 17.2774 18.3992 14.4148C18.6443 12.1247 18.8893 9.77099 19.1344 7.48092C19.1957 6.78117 18.9506 6.4631 18.2767 6.4631C13.498 6.4631 8.71937 6.4631 4.00198 6.4631C3.81818 6.4631 3.69565 6.4631 3.51186 6.39949C3.2668 6.27226 3.083 5.9542 3.14427 5.63613C3.20553 5.31807 3.45059 5.06361 3.75692 5C3.81818 5 3.94071 5 4.00198 5C8.78063 5 13.6206 5 18.3992 5C19.5632 5 20.4822 5.76336 20.6047 6.84478C20.666 7.4173 20.5435 7.98982 20.5435 8.56234C20.4822 9.3257 20.3597 10.0891 20.2984 10.8524C20.4209 10.8524 20.5435 10.8524 20.666 10.8524C21.83 10.8524 22.9941 10.8524 24.0968 10.8524C25.1996 10.8524 26.1186 11.2977 26.8538 12.1247C28.2016 13.6514 29.4881 15.2417 30.836 16.7048C31.8775 17.8499 32.2451 19.0585 32 20.5852C31.8162 21.7939 31.7549 23.0025 31.6324 24.2748C31.5099 25.4835 30.6522 26.3104 29.4881 26.3104C29.1818 26.3104 28.8142 26.1832 28.5692 26.374C28.3241 26.5013 28.3241 26.9466 28.1403 27.201C27.0988 28.9822 25.6285 30.0636 23.6067 30C21.7075 29.9364 20.2984 28.5369 20.1759 26.6285C20.1759 26.5649 20.1759 26.5013 20.1759 26.374C20.0534 26.374 19.9921 26.374 19.8696 26.374C17.7866 26.374 15.7036 26.374 13.6206 26.374C13.3755 26.374 13.3142 26.4377 13.1917 26.6285C12.4565 28.6641 10.496 30.0636 8.47431 30C6.63636 29.9364 5.22727 28.6641 4.92095 26.7557C4.92095 26.6285 4.85968 26.5013 4.85968 26.374C4.12451 26.374 3.38933 26.374 2.59289 26.374C2.28656 26.374 1.98024 26.374 1.67391 26.374C1.24506 26.374 1 25.9924 1 25.6107C1 25.229 1.30632 24.9109 1.67391 24.9109C2.71542 24.9109 3.69565 24.9109 4.73715 24.9109C4.98221 24.9109 5.04348 24.8473 5.16601 24.5929C6.02372 22.5573 7.49407 21.3486 9.63834 21.2214C11.5375 21.0941 13.1304 22.4936 13.3755 24.402C13.4368 24.5293 13.4368 24.6565 13.4368 24.8473ZM28.6917 24.8473C28.9368 24.8473 29.1206 24.8473 29.3656 24.8473C29.917 24.8473 30.1621 24.5929 30.2233 24.0204C30.3459 22.8117 30.4684 21.5394 30.5909 20.3308C30.7134 19.5038 30.6522 18.7405 30.0395 18.0407C28.6304 16.3868 27.2213 14.7964 25.8123 13.1425C25.3834 12.6336 24.832 12.3791 24.2194 12.3791C22.9328 12.3791 21.6462 12.3791 20.3597 12.3791C20.1759 12.3791 20.1146 12.4427 20.1146 12.6336C20.0534 13.4606 19.9308 14.2875 19.8696 15.1145C19.6245 17.5318 19.3794 19.8855 19.0731 22.3028C19.0119 23.1298 18.8893 24.0204 18.8281 24.9109C19.2569 24.9109 19.6245 24.9109 20.0534 24.9109C20.2372 24.9109 20.3597 24.8473 20.4209 24.6565C20.9111 23.257 21.83 22.2392 23.1779 21.6667C24.6482 20.9669 26.1186 20.9669 27.4051 22.0483C28.2016 22.6845 28.5692 23.7023 28.6917 24.8473ZM24.9545 22.6209C23.3617 22.6209 21.83 23.9567 21.5237 25.6107C21.1561 27.3282 22.3202 28.6641 23.9743 28.4733C25.5672 28.3461 26.915 26.9466 27.1601 25.3562C27.4051 23.8295 26.4862 22.6209 24.9545 22.6209ZM9.76087 22.6209C8.16798 22.6209 6.69763 23.8931 6.33004 25.5471C5.96245 27.2646 7.06522 28.6005 8.78063 28.4733C10.3123 28.3461 11.7213 27.0102 12.0277 25.4198C12.2727 23.8931 11.2925 22.6209 9.76087 22.6209Z" fill="white"/>
<path d="M7.00302 19.6946C5.53266 19.6946 4.00104 19.6946 2.53069 19.6946C1.91804 19.6946 1.55045 19.1856 1.79551 18.6767C1.91804 18.3587 2.1631 18.2314 2.46942 18.2314C3.14334 18.2314 3.81725 18.2314 4.55243 18.2314C6.81923 18.2314 9.14729 18.2314 11.4141 18.2314C11.5366 18.2314 11.7204 18.2314 11.8429 18.2314C12.1493 18.2951 12.3943 18.6767 12.3331 18.9948C12.2718 19.3765 12.0267 19.6309 11.6591 19.6309C11.1078 19.6309 10.5564 19.6309 10.005 19.6309C8.96349 19.6946 7.98326 19.6946 7.00302 19.6946Z" fill="white"/>
<path d="M11.9683 10.8523C11.1718 10.8523 10.3754 10.8523 9.64019 10.8523C9.15007 10.8523 8.84375 10.5978 8.84375 10.0889C8.84375 9.64361 9.15007 9.38916 9.64019 9.38916C11.2331 9.38916 12.7647 9.38916 14.3576 9.38916C14.8477 9.38916 15.2153 9.70723 15.2153 10.0889C15.2153 10.5342 14.909 10.8523 14.3576 10.8523C13.5611 10.8523 12.7647 10.8523 11.9683 10.8523Z" fill="white"/>
<path d="M6.3303 13.8423C7.12674 13.8423 7.92319 13.8423 8.65837 13.8423C9.14848 13.8423 9.45481 14.0967 9.45481 14.6056C9.45481 15.0509 9.14848 15.3054 8.65837 15.3054C7.06548 15.3054 5.53386 15.3054 3.94097 15.3054C3.45086 15.3054 3.14453 14.9873 3.14453 14.542C3.14453 14.0967 3.45086 13.8423 4.00224 13.8423C4.73742 13.8423 5.53386 13.8423 6.3303 13.8423Z" fill="white"/>
<path d="M17.4191 30.0002C16.929 30.0002 16.3776 30.0002 15.8875 30.0002C15.3974 30.0002 15.1523 29.6821 15.1523 29.2369C15.1523 28.7916 15.4587 28.5371 15.8875 28.5371C16.929 28.5371 17.9093 28.5371 18.9508 28.5371C19.4409 28.5371 19.7472 28.8552 19.7472 29.3005C19.7472 29.7458 19.4409 30.0002 19.012 30.0002C18.4606 30.0002 17.9705 30.0002 17.4191 30.0002Z" fill="white"/>
<path d="M2.96007 30.0001C2.65375 30.0001 2.34742 30.0001 2.0411 30.0001C1.61225 30.0001 1.36719 29.682 1.36719 29.3003C1.36719 28.9187 1.67351 28.6006 2.0411 28.6006C2.65375 28.6006 3.20513 28.6006 3.81778 28.6006C4.24663 28.6006 4.49169 28.9187 4.49169 29.3639C4.49169 29.7456 4.18537 30.0637 3.81778 30.0637H3.75652C3.51146 30.0001 3.20513 30.0001 2.96007 30.0001Z" fill="white"/>
<path d="M5.96378 9.38916C6.20884 9.38916 6.4539 9.38916 6.69896 9.38916C7.06655 9.38916 7.3116 9.70723 7.37287 10.0889C7.37287 10.4706 7.12781 10.8523 6.76022 10.8523C6.20884 10.8523 5.71872 10.8523 5.16734 10.8523C4.79975 10.8523 4.55469 10.4706 4.55469 10.0889C4.55469 9.70723 4.86101 9.45277 5.2286 9.38916C5.47366 9.38916 5.71872 9.38916 5.96378 9.38916Z" fill="white"/>
<path d="M12.3322 13.8423C12.5773 13.8423 12.8223 13.8423 13.0674 13.8423C13.435 13.8423 13.68 14.1604 13.7413 14.542C13.7413 14.9237 13.4962 15.3054 13.1286 15.3054C12.6385 15.3054 12.0871 15.3054 11.597 15.3054C11.2294 15.3054 10.9844 14.9237 10.9844 14.542C10.9844 14.1604 11.2294 13.8423 11.6583 13.8423C11.8421 13.8423 12.0871 13.8423 12.3322 13.8423Z" fill="white"/>
<path d="M24.8921 19.6947C23.9118 19.6947 22.9928 19.6947 22.0126 19.6947C21.4 19.6947 21.1549 19.3766 21.2162 18.7405C21.3387 17.4682 21.4 16.196 21.5225 14.9873C21.5225 14.7965 21.5225 14.6693 21.5837 14.4784C21.645 14.0967 21.8901 13.8423 22.2577 13.8423C22.8703 13.8423 23.483 13.8423 24.0956 13.8423C24.2794 13.8423 24.4632 13.9695 24.5857 14.0967C25.8723 15.5598 27.1588 16.9593 28.4454 18.4224C28.6905 18.6769 28.6905 18.9313 28.5679 19.2494C28.4454 19.5675 28.2004 19.6947 27.894 19.6947C26.8525 19.6947 25.8723 19.6947 24.8921 19.6947ZM26.3011 18.2316C26.1786 18.0408 26.0561 17.9135 25.9336 17.8499C25.3209 17.1502 24.647 16.4504 24.0343 15.6871C23.6668 15.2418 23.2992 15.3054 22.8703 15.369C22.809 16.3232 22.7478 17.2774 22.6253 18.2952C23.8505 18.2316 25.0146 18.2316 26.3011 18.2316Z" fill="white"/>
</g>
<defs>
<clipPath id="clip0_1512_9603">
<rect width="31" height="25" fill="white" transform="translate(1 5)"/>
</clipPath>
</defs>
</svg>
