<svg width="32" height="35" viewBox="0 0 32 35" fill="none" xmlns="http://www.w3.org/2000/svg">
<path d="M8.34483 3C13.1724 3 17.9138 3 22.7414 3C23.431 3.17417 23.7759 3.6967 24.1207 4.21922C25.3276 6.3964 26.6207 8.57357 27.8276 10.7508C27.9138 11.0991 28 11.3604 28 11.7087C28 17.7177 28 23.8138 28 29.8228C28 31.2162 27.1379 32 25.8448 32C18.9483 32 12.0517 32 5.24138 32C3.86207 32 3.08621 31.2162 3.08621 29.8228C3 23.8138 3 17.8048 3 11.7958C3 11.3604 3.08621 11.012 3.25862 10.6637C4.46552 8.48649 5.75862 6.3964 6.87931 4.21922C7.31034 3.6967 7.65517 3.17417 8.34483 3ZM4.72414 11.8829C4.72414 11.97 4.72414 12.1441 4.72414 12.2312C4.72414 18.0661 4.72414 23.9009 4.72414 29.8228C4.72414 30.2583 4.81034 30.3453 5.24138 30.3453C12.1379 30.3453 18.9483 30.3453 25.8448 30.3453C26.2759 30.3453 26.3621 30.2583 26.3621 29.8228C26.3621 23.988 26.3621 18.1532 26.3621 12.2312C26.3621 12.1441 26.3621 12.0571 26.3621 11.8829C19.1207 11.8829 11.8793 11.8829 4.72414 11.8829ZM14.6379 10.1411C14.6379 8.31231 14.6379 6.48348 14.6379 4.65465C14.5517 4.65465 14.5517 4.65465 14.4655 4.65465C12.569 4.65465 10.6724 4.65465 8.77586 4.65465C8.60345 4.65465 8.51724 4.74174 8.43103 4.91592C7.56897 6.57057 6.62069 8.22523 5.67241 9.87988C5.67241 9.96697 5.58621 10.0541 5.58621 10.1411C8.60345 10.1411 11.6207 10.1411 14.6379 10.1411ZM16.3621 10.1411C19.3793 10.1411 22.3966 10.1411 25.4138 10.1411V10.0541C24.4655 8.31231 23.431 6.65766 22.4828 4.91592C22.3966 4.74174 22.3103 4.65465 22.1379 4.74174C20.3276 4.74174 18.5172 4.74174 16.7069 4.74174C16.6207 4.74174 16.5345 4.74174 16.4483 4.74174C16.3621 6.57057 16.3621 8.31231 16.3621 10.1411Z" fill="black"/>
</svg>
